<svg width="31" height="52" viewBox="0 0 31 52" fill="none" xmlns="http://www.w3.org/2000/svg">
<path d="M27.0061 2.36748C25.6985 2.36748 24.6385 3.42749 24.6385 4.73502C24.639 4.98322 24.679 5.22976 24.7569 5.46542L22.8368 6.6859C21.5726 7.49137 19.9059 7.22442 18.9564 6.06442L17.0743 3.76203C17.3738 3.35879 17.5357 2.86988 17.5359 2.36754C17.5359 1.06 16.4759 0 15.1684 0C13.8609 0 12.8008 1.06 12.8008 2.36754C12.8011 2.86988 12.963 3.35879 13.2625 3.76203L11.3803 6.06442C10.4311 7.22375 8.7651 7.49065 7.50117 6.6859L5.58004 5.46542C5.658 5.22976 5.69796 4.98322 5.6984 4.73502C5.69862 3.42749 4.63884 2.36732 3.33125 2.3671C2.02377 2.36687 0.963601 3.42671 0.963379 4.73425C0.963157 5.96166 1.90103 6.9857 3.12372 7.09307L4.52293 15.4859C4.57037 15.7713 4.81718 15.9806 5.1065 15.9807H25.2304C25.5198 15.9806 25.7666 15.7713 25.814 15.4859L27.2132 7.09307C28.5155 6.97627 29.4766 5.82582 29.3598 4.5235C29.2505 3.30447 28.23 2.36976 27.0061 2.36748Z" fill="url(#paint0_linear_2401:71048)"/>
<path d="M15.1684 18.3485C20.7254 18.3485 25.2303 17.0235 25.2303 15.3891C25.2303 13.7546 20.7254 12.4297 15.1684 12.4297C9.61133 12.4297 5.10645 13.7546 5.10645 15.3891C5.10645 17.0235 9.61133 18.3485 15.1684 18.3485Z" fill="#FFA000"/>
<path d="M15.1685 18.9405C9.87353 18.9405 4.51465 17.7212 4.51465 15.3892C4.51465 13.0571 9.87353 11.8379 15.1685 11.8379C20.4634 11.8379 25.8223 13.0571 25.8223 15.3892C25.8223 17.7212 20.4634 18.9405 15.1685 18.9405ZM15.1685 13.0216C8.95136 13.0216 5.69839 14.5605 5.69839 15.3892C5.69839 16.2178 8.95136 17.7567 15.1685 17.7567C21.3856 17.7567 24.6386 16.2178 24.6386 15.3892C24.6386 14.5605 21.3856 13.0216 15.1685 13.0216Z" fill="#FFD54F"/>
<g clip-path="url(#clip0_2401:71048)">
<path d="M15.3926 10.043C7.04459 10.043 0.248535 16.8212 0.248535 25.1474C0.248535 35.4859 13.7998 50.6637 14.3798 51.2991C14.9189 51.902 15.8664 51.902 16.4055 51.2991C16.9855 50.6555 30.5367 35.4859 30.5367 25.1474C30.5367 16.8212 23.7407 10.043 15.3926 10.043Z" fill="#FF0000" stroke="#990000" stroke-width="0.331019" stroke-miterlimit="10"/>
<path d="M15.351 32.2226C20.4699 32.2226 24.6196 28.0729 24.6196 22.9541C24.6196 17.8352 20.4699 13.6855 15.351 13.6855C10.2322 13.6855 6.08252 17.8352 6.08252 22.9541C6.08252 28.0729 10.2322 32.2226 15.351 32.2226Z" fill="white"/>
<path fill-rule="evenodd" clip-rule="evenodd" d="M6.36501 24.8209C6.17592 24.3139 6.01809 23.8492 5.9126 23.4727H13.532C14.1024 23.4727 14.5709 23.6959 14.9716 24.1654C15.6982 25.012 16.4247 25.8509 17.1581 26.6899C17.2124 26.7515 17.2668 26.813 17.3347 26.8823L18.2989 25.7663C18.3967 25.6529 18.4951 25.5396 18.5939 25.4259L18.5942 25.4256L18.5942 25.4256C18.7904 25.1998 18.9875 24.9729 19.1817 24.7426C19.4805 24.3963 19.8336 24.1808 20.2478 24.15C20.503 24.1333 20.7583 24.1367 20.9956 24.1399C21.0865 24.1411 21.1749 24.1423 21.2596 24.1423C20.544 24.9701 19.8224 25.8026 19.0903 26.6471L19.0894 26.6482C18.4809 27.3501 17.8651 28.0604 17.2396 28.7834C17.2383 28.7805 17.2363 28.7746 17.2336 28.7666C17.2219 28.732 17.1967 28.6578 17.1581 28.6141C16.8617 28.2704 16.5645 27.9276 16.2673 27.5847L16.2671 27.5845C15.6725 26.8986 15.078 26.2127 14.4894 25.52C14.0752 25.0351 13.5931 24.8196 13.0159 24.8196C10.9567 24.8247 8.8974 24.823 6.83614 24.8213H6.83604H6.83582C6.6789 24.8212 6.52196 24.821 6.36501 24.8209Z" fill="#FF0000"/>
<path fill-rule="evenodd" clip-rule="evenodd" d="M25.5551 22.2572C25.5613 22.2402 25.5642 22.2312 25.5642 22.2312C25.5642 22.2312 25.5581 22.2311 25.5463 22.2308L25.5551 22.2572ZM24.8509 22.2176C23.615 22.1948 21.0901 22.1519 19.8612 22.1576C19.3723 22.1653 18.9445 22.3885 18.5914 22.7887C18.4782 22.9196 18.3643 23.0496 18.2503 23.1796C18.0225 23.4395 17.7946 23.6995 17.5728 23.9663C17.5174 24.0292 17.4713 24.1063 17.424 24.1856C17.4018 24.2228 17.3794 24.2604 17.3555 24.2973C17.2245 24.1465 17.0971 24.0032 16.9733 23.8639C16.6799 23.5339 16.4067 23.2266 16.1536 22.8965C15.5357 22.0806 14.7344 22.1191 13.9331 22.173C14.3258 22.626 14.7185 23.0782 15.1128 23.5322C15.8641 24.3972 16.6214 25.2692 17.3963 26.1676C17.405 26.1528 17.4137 26.134 17.4233 26.1134C17.4436 26.0695 17.468 26.017 17.5049 25.9752C17.696 25.7528 17.889 25.5316 18.0821 25.3102C18.4037 24.9414 18.7256 24.5723 19.0396 24.1972C19.4334 23.7354 19.8952 23.5199 20.4588 23.5199C21.3543 23.5246 22.2658 23.5213 23.1738 23.5181C23.6687 23.5163 24.1626 23.5145 24.6523 23.514C24.5405 22.729 24.6774 22.3574 24.8509 22.2176Z" fill="#FF0000"/>
</g>
<defs>
<linearGradient id="paint0_linear_2401:71048" x1="15.1664" y1="15.9806" x2="15.1664" y2="1.14302e-05" gradientUnits="userSpaceOnUse">
<stop stop-color="#FD5900"/>
<stop offset="1" stop-color="#FFDE00"/>
</linearGradient>
<clipPath id="clip0_2401:71048">
<rect width="30.7847" height="42.3704" fill="white" transform="translate(0 9.62891)"/>
</clipPath>
</defs>
</svg>
