<svg width="24" height="24" viewBox="0 0 24 24" fill="none" xmlns="http://www.w3.org/2000/svg">
<path d="M11.8607 11.5609C13.449 11.5609 14.8241 10.9913 15.948 9.86737C17.0715 8.74365 17.6414 7.36871 17.6414 5.78027C17.6414 4.19238 17.0717 2.81726 15.9478 1.69318C14.8239 0.569641 13.4488 0 11.8607 0C10.2723 0 8.89734 0.569641 7.77362 1.69336C6.6499 2.81708 6.08008 4.1922 6.08008 5.78027C6.08008 7.36871 6.6499 8.74384 7.77362 9.86755C8.89771 10.9911 10.2728 11.5609 11.8607 11.5609ZM8.76825 2.68781C9.63049 1.82556 10.642 1.40643 11.8607 1.40643C13.0793 1.40643 14.0909 1.82556 14.9534 2.68781C15.8156 3.55023 16.2349 4.56189 16.2349 5.78027C16.2349 6.99902 15.8156 8.0105 14.9534 8.87292C14.0909 9.73535 13.0793 10.1545 11.8607 10.1545C10.6423 10.1545 9.63086 9.73517 8.76825 8.87292C7.90582 8.01068 7.48651 6.99902 7.48651 5.78027C7.48651 4.56189 7.90582 3.55023 8.76825 2.68781Z" fill="#EE0033"/>
<path d="M21.9748 18.4547C21.9424 17.987 21.8768 17.4769 21.7803 16.9382C21.6829 16.3954 21.5575 15.8824 21.4073 15.4135C21.2521 14.9288 21.0413 14.4501 20.7804 13.9915C20.5099 13.5154 20.1921 13.1008 19.8354 12.7597C19.4624 12.4028 19.0057 12.1159 18.4777 11.9066C17.9514 11.6984 17.3682 11.593 16.7444 11.593C16.4994 11.593 16.2625 11.6935 15.8049 11.9914C15.5233 12.175 15.1938 12.3875 14.8262 12.6224C14.5118 12.8227 14.0859 13.0104 13.5598 13.1803C13.0466 13.3464 12.5255 13.4306 12.0109 13.4306C11.4968 13.4306 10.9756 13.3464 10.462 13.1803C9.93652 13.0106 9.51044 12.8229 9.19659 12.6226C8.8324 12.3898 8.50281 12.1774 8.21698 11.9912C7.75977 11.6933 7.52283 11.5928 7.27783 11.5928C6.65381 11.5928 6.0708 11.6984 5.54474 11.9068C5.01703 12.1157 4.56018 12.4026 4.18683 12.7599C3.83014 13.1012 3.51227 13.5156 3.242 13.9915C2.98145 14.4501 2.77051 14.9286 2.61523 15.4136C2.46527 15.8826 2.33984 16.3954 2.24243 16.9382C2.14575 17.4761 2.08038 17.9865 2.04797 18.4552C2.01611 18.9135 2 19.3905 2 19.8724C2 21.1252 2.39825 22.1395 3.18359 22.8875C3.95923 23.6255 4.98535 23.9998 6.23358 23.9998H17.7897C19.0376 23.9998 20.0637 23.6255 20.8395 22.8875C21.6251 22.14 22.0233 21.1254 22.0233 19.8723C22.0231 19.3887 22.0068 18.9117 21.9748 18.4547ZM19.8698 21.8685C19.3573 22.3563 18.6769 22.5934 17.7896 22.5934H6.23358C5.34607 22.5934 4.66565 22.3563 4.15332 21.8687C3.6507 21.3902 3.40643 20.7371 3.40643 19.8724C3.40643 19.4227 3.42126 18.9787 3.45093 18.5524C3.47986 18.1342 3.539 17.6748 3.62671 17.1866C3.71332 16.7045 3.82355 16.2521 3.95465 15.8425C4.08044 15.4497 4.25201 15.0608 4.46478 14.6862C4.66785 14.3291 4.90149 14.0228 5.1593 13.7759C5.40045 13.545 5.70441 13.3561 6.06256 13.2144C6.3938 13.0833 6.76605 13.0115 7.17017 13.0007C7.21942 13.0269 7.30713 13.0768 7.44922 13.1695C7.73834 13.3579 8.07159 13.5729 8.44 13.8082C8.85529 14.0729 9.39032 14.3121 10.0295 14.5184C10.683 14.7297 11.3495 14.837 12.0111 14.837C12.6727 14.837 13.3394 14.7297 13.9925 14.5186C14.6323 14.3119 15.1671 14.0729 15.5829 13.8078C15.96 13.5668 16.2839 13.3581 16.573 13.1695C16.7151 13.077 16.8028 13.0269 16.8521 13.0007C17.2563 13.0115 17.6286 13.0833 17.96 13.2144C18.318 13.3561 18.6219 13.5452 18.8631 13.7759C19.1209 14.0226 19.3546 14.3289 19.5576 14.6863C19.7706 15.0608 19.9423 15.4499 20.0679 15.8423C20.1992 16.2524 20.3096 16.7047 20.3961 17.1865C20.4836 17.6755 20.5429 18.1351 20.5718 18.5526V18.553C20.6017 18.9776 20.6167 19.4214 20.6169 19.8724C20.6167 20.7372 20.3724 21.3902 19.8698 21.8685Z" fill="#EE0033"/>
</svg>
