<svg width="36" height="36" viewBox="0 0 36 36" fill="none" xmlns="http://www.w3.org/2000/svg">
<path d="M18.0016 0C16.1721 0 14.6836 1.48765 14.6836 3.3161V5.57682C14.8502 9.96942 21.1533 9.96935 21.3197 5.57675V3.3161C21.3196 1.48765 19.8312 0 18.0016 0V0ZM19.2077 5.57682C19.1473 7.17317 16.8561 7.17394 16.7954 5.57682V3.3161C16.7954 2.65146 17.3365 2.11064 18.0015 2.11064C18.6666 2.11064 19.2077 2.65146 19.2077 3.3161V5.57682H19.2077Z" fill="#35C75C"/>
<path d="M18.0016 27.1289C16.1721 27.1289 14.6836 28.6166 14.6836 30.445V32.7057C14.8502 37.0983 21.1533 37.0982 21.3197 32.7056V30.445C21.3196 28.6165 19.8312 27.1289 18.0016 27.1289ZM19.2077 32.7056C19.1473 34.302 16.8561 34.3028 16.7954 32.7056V30.4449C16.7954 29.7803 17.3365 29.2395 18.0015 29.2395C18.6666 29.2395 19.2077 29.7803 19.2077 30.4449V32.7056H19.2077Z" fill="#35C75C"/>
<path d="M32.7032 14.6948H30.4411C28.6116 14.6948 27.123 16.1824 27.123 18.0109C27.123 19.8393 28.6116 21.3269 30.4411 21.3269H32.7032C37.0984 21.1604 37.0984 14.8611 32.7032 14.6948ZM32.7032 19.2162H30.4411C29.7761 19.2162 29.235 18.6755 29.235 18.0109C29.235 17.3462 29.7761 16.8055 30.4411 16.8055H32.7032C34.3006 16.8658 34.3013 19.1557 32.7032 19.2162Z" fill="#35C75C"/>
<path d="M8.87647 18.0109C8.87647 16.1824 7.38793 14.6948 5.55838 14.6948H3.29639C-1.09884 14.8613 -1.09877 21.1606 3.29646 21.327C3.29639 21.327 5.55845 21.327 5.55845 21.327C7.388 21.3269 8.87647 19.8393 8.87647 18.0109ZM2.09021 18.0109C2.09021 17.3462 2.63135 16.8055 3.29639 16.8055H5.55845C7.15576 16.8658 7.15653 19.1557 5.55845 19.2163H3.29639C2.63135 19.2162 2.09021 18.6755 2.09021 18.0109Z" fill="#35C75C"/>
<path d="M29.1423 11.5635L30.7418 9.96499C32.0355 8.67208 32.0356 6.56826 30.7418 5.27535C29.4481 3.98244 27.343 3.98244 26.0494 5.27535L24.4499 6.87388C21.4598 10.0976 25.9168 14.5519 29.1423 11.5635ZM25.9432 8.36639L27.5427 6.76785C28.0129 6.29788 28.7782 6.29781 29.2485 6.76785C29.7187 7.23782 29.7187 8.00258 29.2485 8.47255L27.649 10.0711C26.4768 11.1572 24.8561 9.5385 25.9432 8.36639Z" fill="#35C75C"/>
<path d="M6.85493 24.4581L5.25545 26.0567C3.96176 27.3496 3.96169 29.4534 5.25545 30.7463C6.54913 32.0392 8.65421 32.0392 9.94789 30.7463L11.5474 29.1478C14.5375 25.9241 10.0805 21.4697 6.85493 24.4581ZM10.0541 27.6553L8.45456 29.2538C7.98431 29.7238 7.2191 29.7239 6.74878 29.2538C6.27852 28.7838 6.27852 28.0191 6.74878 27.5491L8.34826 25.9506C9.52051 24.8644 11.1412 26.4832 10.0541 27.6553Z" fill="#35C75C"/>
<path d="M29.1423 24.4581C25.9167 21.4697 21.4597 25.9241 24.45 29.1477L26.0494 30.7462C27.3431 32.0392 29.4482 32.0392 30.7419 30.7462C32.0356 29.4533 32.0356 27.3495 30.7419 26.0566C30.7418 26.0566 29.1423 24.4581 29.1423 24.4581ZM29.2485 29.2538C28.7782 29.7238 28.013 29.7238 27.5427 29.2538L25.9432 27.6552C24.8564 26.4837 26.4761 24.864 27.6489 25.9505L29.2484 27.549C29.7187 28.0191 29.7187 28.7838 29.2485 29.2538Z" fill="#35C75C"/>
<path d="M9.94905 5.27545C6.72332 2.28713 2.26635 6.74151 5.2566 9.9651L6.85609 11.5636C8.14977 12.8565 10.2549 12.8566 11.5485 11.5636C12.8422 10.2707 12.8422 8.1669 11.5485 6.87399L9.94905 5.27545ZM10.0552 10.0712C9.58495 10.5412 8.81974 10.5412 8.34942 10.0712L6.74993 8.47259C5.66314 7.30111 7.28276 5.6814 8.45565 6.76789L10.0551 8.36642C10.5255 8.83646 10.5255 9.60122 10.0552 10.0712Z" fill="#35C75C"/>
</svg>
