<svg width="19" height="19" viewBox="0 0 19 19" fill="none" xmlns="http://www.w3.org/2000/svg">
<g clip-path="url(#clip0_3447:1146)">
<path d="M15.1243 3.25366C13.9712 1.2637 11.923 0.0479639 9.64542 0.00150293C9.5482 -0.000500977 9.45034 -0.000500977 9.35308 0.00150293C7.07553 0.0479639 5.02738 1.2637 3.87425 3.25366C2.69558 5.2877 2.66333 7.73098 3.78797 9.78947L8.49949 18.4132C8.5016 18.417 8.50372 18.4209 8.50591 18.4246C8.7132 18.7849 9.08455 19 9.49932 19C9.91406 19 10.2854 18.7849 10.4927 18.4246C10.4949 18.4209 10.497 18.417 10.4991 18.4132L15.2106 9.78947C16.3352 7.73098 16.3029 5.2877 15.1243 3.25366ZM9.49925 8.6094C8.02597 8.6094 6.82737 7.4108 6.82737 5.93752C6.82737 4.46424 8.02597 3.26564 9.49925 3.26564C10.9725 3.26564 12.1711 4.46424 12.1711 5.93752C12.1711 7.4108 10.9726 8.6094 9.49925 8.6094Z" fill="#223B55"/>
</g>
<defs>
<clipPath id="clip0_3447:1146">
<rect width="19" height="19" fill="white"/>
</clipPath>
</defs>
</svg>
