<svg width="18" height="18" viewBox="0 0 18 18" fill="none" xmlns="http://www.w3.org/2000/svg">
<g clip-path="url(#clip0)">
<path d="M2.59375 2L1 5H18L16.4062 2H2.59375Z" fill="#223B55"/>
<path d="M1 5H18V16.5C18 16.7761 17.7761 17 17.5 17H1.5C1.22386 17 1 16.7761 1 16.5V5Z" fill="#223B55"/>
<path d="M1 5H18" stroke="white" stroke-width="0.1"/>
<path d="M9.79444 13.1742L9.79444 12.0395L7.38591 12.0395C7.13538 12.0395 6.93226 11.8362 6.93226 11.5854L6.93226 10.2232C6.93226 9.97237 7.13538 9.76905 7.38591 9.76905L9.79444 9.76905L9.79444 8.63444C9.79444 8.28491 10.1725 8.06643 10.4749 8.24119L14.4021 10.5109C14.7045 10.6856 14.7045 11.1225 14.4021 11.2973L10.4749 13.5674C10.1725 13.7422 9.79444 13.5237 9.79444 13.1742Z" fill="white"/>
</g>
<defs>
<clipPath id="clip0">
<rect width="18" height="18" fill="white"/>
</clipPath>
</defs>
</svg>
