<svg width="36" height="36" viewBox="0 0 36 36" fill="none" xmlns="http://www.w3.org/2000/svg">
<path d="M4.13334 6H2V29.1112H4.13334V6Z" fill="#EE0033"/>
<path d="M6.62144 6H5.19922V23.0668H6.62144V6Z" fill="#EE0033"/>
<path d="M10.5336 6H9.11133V23.0668H10.5336V6Z" fill="#EE0033"/>
<path d="M13.7349 6H11.6016V23.0668H13.7349V6Z" fill="#EE0033"/>
<path d="M8.40066 6H7.33398V23.0668H8.40066V6Z" fill="#EE0033"/>
<path d="M15.512 6H14.4453V23.0668H15.512V6Z" fill="#EE0033"/>
<path d="M21.6756 6H19.4238V23.0668H21.6756H22.3277H23.6905V6H22.3277H21.6756Z" fill="#EE0033"/>
<path d="M18.0004 6H16.2227V23.0668H18.0004V6Z" fill="#EE0033"/>
<path d="M31.5123 6H29.3789V23.0668H31.5123V6Z" fill="#EE0033"/>
<path d="M27.0075 6H25.1113V23.0668H27.0075H27.3631H28.3113V6H27.3631H27.0075Z" fill="#EE0033"/>
<path d="M34.0004 6H32.2227V29.1112H34.0004V6Z" fill="#EE0033"/>
<path d="M7.864 27.2029C7.864 28.4199 7.41245 29.0916 6.61955 29.0916C5.92015 29.0916 5.44658 28.4363 5.43555 27.2523C5.43555 26.052 5.95325 25.3914 6.68 25.3914C7.43451 25.3909 7.864 26.0629 7.864 27.2029ZM5.9202 27.2576C5.9202 28.1884 6.20643 28.7168 6.64695 28.7168C7.14259 28.7168 7.3794 28.1387 7.3794 27.2245C7.3794 26.3435 7.15362 25.7653 6.65265 25.7653C6.22881 25.7653 5.9202 26.283 5.9202 27.2576Z" fill="#EE0033"/>
<path d="M9.41852 25.9026H9.40749L8.78526 26.2382L8.69141 25.8695L9.47326 25.4507H9.88644V29.0301H9.41852V25.9026Z" fill="#EE0033"/>
<path d="M11.248 29.0302V28.733L11.6278 28.3639C12.5419 27.4939 12.9547 27.0313 12.9604 26.4916C12.9604 26.1282 12.784 25.7922 12.25 25.7922C11.925 25.7922 11.6552 25.9571 11.4898 26.0951L11.3355 25.7538C11.5834 25.5444 11.9361 25.3904 12.3492 25.3904C13.1201 25.3904 13.4451 25.9187 13.4451 26.4311C13.4451 27.0917 12.9658 27.6262 12.2113 28.3529L11.9247 28.6174V28.6281H13.5326V29.0302H11.248Z" fill="#EE0033"/>
<path d="M14.2455 28.4741C14.3831 28.5623 14.7024 28.6999 15.0384 28.6999C15.661 28.6999 15.8537 28.3038 15.848 28.0062C15.8423 27.5053 15.3908 27.2901 14.9225 27.2901H14.6527V26.9271H14.9225C15.2749 26.9271 15.7211 26.745 15.7211 26.3213C15.7211 26.035 15.5394 25.7819 15.0932 25.7819C14.8066 25.7819 14.5314 25.9084 14.3771 26.0187L14.2509 25.6663C14.4379 25.5284 14.8016 25.3911 15.1871 25.3911C15.8918 25.3911 16.2114 25.8096 16.2114 26.2444C16.2114 26.6135 15.991 26.9275 15.5505 27.0871V27.0978C15.991 27.1859 16.349 27.5166 16.349 28.0176C16.349 28.5901 15.9028 29.0914 15.0438 29.0914C14.642 29.0914 14.2896 28.9652 14.1133 28.8493L14.2455 28.4741Z" fill="#EE0033"/>
<path d="M18.5087 29.0302V28.0556H16.8457V27.736L18.4425 25.4504H18.9659V27.6755H19.4669V28.0552H18.9659V29.0298H18.5087V29.0302ZM18.5087 27.6758V26.4808C18.5087 26.2937 18.5144 26.1064 18.5254 25.919H18.5087C18.3984 26.1284 18.3103 26.2824 18.2114 26.4477L17.3357 27.6648V27.6758H18.5087Z" fill="#EE0033"/>
<path d="M22.0286 25.8588H20.6629L20.5249 26.7786C20.6074 26.7676 20.6846 26.7563 20.8169 26.7563C21.0921 26.7563 21.3676 26.8171 21.5877 26.949C21.8686 27.1086 22.0997 27.4169 22.0997 27.8688C22.0997 28.5682 21.5436 29.0912 20.7671 29.0912C20.376 29.0912 20.046 28.981 19.875 28.8711L19.9963 28.5021C20.1449 28.5903 20.4368 28.7005 20.7614 28.7005C21.2187 28.7005 21.6098 28.4032 21.6098 27.924C21.6041 27.4614 21.2959 27.1314 20.5801 27.1314C20.3764 27.1314 20.2167 27.1535 20.0845 27.1698L20.3156 25.4514H22.028V25.8589H22.0286V25.8588Z" fill="#EE0033"/>
<path d="M24.8167 25.7924C24.7179 25.7867 24.5909 25.7924 24.4533 25.8145C23.6931 25.9411 23.291 26.4975 23.2088 27.0867H23.2252C23.3959 26.8605 23.6931 26.6735 24.0899 26.6735C24.7232 26.6735 25.1694 27.1307 25.1694 27.8301C25.1694 28.4854 24.7232 29.0909 23.9797 29.0909C23.2142 29.0909 22.7129 28.4964 22.7129 27.5656C22.7129 26.8608 22.9664 26.3047 23.3188 25.9524C23.616 25.6605 24.0125 25.4788 24.4644 25.4236C24.6073 25.4016 24.7285 25.3962 24.8164 25.3962V25.7923H24.8167V25.7924ZM24.6791 27.8575C24.6791 27.3455 24.3871 27.0369 23.9413 27.0369C23.6494 27.0369 23.3795 27.2186 23.2476 27.4774C23.2142 27.5322 23.1925 27.6036 23.1925 27.6922C23.2035 28.2813 23.4734 28.7165 23.98 28.7165C24.3982 28.7165 24.6791 28.3695 24.6791 27.8575Z" fill="#EE0033"/>
<path d="M27.9784 25.4507V25.77L26.4201 29.0301H25.9191L27.4718 25.8639V25.8528H25.7207V25.4507L27.9784 25.4507Z" fill="#EE0033"/>
<path d="M28.4922 28.1218C28.4922 27.6706 28.762 27.351 29.2026 27.1639L29.1969 27.1472C28.8004 26.9602 28.6294 26.6516 28.6294 26.3433C28.6294 25.7758 29.1087 25.3904 29.7362 25.3904C30.4299 25.3904 30.777 25.8256 30.777 26.2714C30.777 26.5744 30.6284 26.8994 30.1878 27.1084V27.1251C30.634 27.3011 30.9092 27.6151 30.9092 28.0503C30.9092 28.6725 30.3751 29.0911 29.6922 29.0911C28.9434 29.0907 28.4922 28.6448 28.4922 28.1218ZM30.4197 28.0997C30.4197 27.6645 30.1164 27.4551 29.6321 27.3179C29.2133 27.4391 28.9875 27.7143 28.9875 28.0556C28.9711 28.419 29.2467 28.7383 29.7036 28.7383C30.1388 28.7383 30.4197 28.4685 30.4197 28.0997ZM29.0871 26.3099C29.0871 26.6679 29.3569 26.8606 29.7697 26.9708C30.078 26.8659 30.3148 26.6459 30.3148 26.3209C30.3148 26.0347 30.1445 25.737 29.7093 25.737C29.3072 25.7374 29.0871 26.0016 29.0871 26.3099Z" fill="#EE0033"/>
</svg>
