<svg width="36" height="36" viewBox="0 0 36 36" fill="none" xmlns="http://www.w3.org/2000/svg">
<g clip-path="url(#clip0)">
<path d="M34.1016 12.5154V6.60527C34.1016 6.13122 34.0088 5.67123 33.8252 5.2386C33.648 4.82074 33.3941 4.44499 33.0714 4.12267C32.7487 3.80022 32.3732 3.56397 31.9541 3.38699C31.521 3.20439 31.0605 3.12824 30.5859 3.12824H20.1895C19.8021 3.12824 19.4864 3.4436 19.4864 3.83052C19.4864 4.21816 19.8021 4.53281 20.1895 4.53281H20.191H30.5859C31.7468 4.53281 32.6932 5.44581 32.6953 6.60534V12.5392H24.75C23.5869 12.5392 22.6406 13.4501 22.6406 14.6119V20.686H1.40625V6.60527C1.40836 5.44574 2.35477 4.53274 3.51562 4.53274H13.8614C14.2495 4.53274 14.5645 4.21738 14.5645 3.83045C14.5645 3.44353 14.2495 3.12817 13.8614 3.12817H3.51562C3.04102 3.12817 2.58047 3.20439 2.14734 3.38692C1.72828 3.56397 1.35281 3.8088 1.03008 4.13125C0.706641 4.45363 0.453516 4.82502 0.276328 5.24289C0.0928125 5.67552 0 6.13122 0 6.60527V22.7586C0 24.6948 1.57711 26.3044 3.51562 26.3044H13.5V28.6923H12.4102C10.4716 28.6923 8.89453 30.2676 8.89453 32.2039C8.89453 32.5917 9.20932 32.9061 9.59766 32.9061H33.8906C35.0537 32.9061 36 31.9267 36 30.7649V14.6118C36 13.5211 35.166 12.6215 34.1016 12.5154ZM3.51562 24.8999C2.35252 24.8999 1.40625 23.9204 1.40625 22.7586V22.0906H22.6406V24.8999H3.51562ZM22.6406 26.3045V28.8054C22.3386 28.7293 22.0203 28.6924 21.6914 28.6924H20.5312V26.3045H22.6406ZM19.125 26.3045V28.6924H14.9062V26.3045H19.125ZM10.4212 31.5016C10.7114 30.6588 11.4934 30.0969 12.4102 30.0969H21.6914C22.0329 30.0969 22.3552 30.1722 22.6406 30.3091V30.765C22.6406 31.024 22.6879 31.2721 22.7739 31.5016H10.4212ZM31.5752 13.9438L31.2322 15.3484H27.4083L27.0653 13.9438H31.5752ZM34.5938 30.7993C34.5938 31.1872 34.279 31.5016 33.8906 31.5016H24.75C24.3617 31.5016 24.0469 31.1871 24.0469 30.7993V14.6461C24.0469 14.2581 24.3617 13.9438 24.75 13.9438H25.6158L26.1772 16.2039C26.2554 16.5165 26.5366 16.753 26.8593 16.753H31.7812C32.1038 16.753 32.3851 16.5165 32.4633 16.2039L33.0247 13.9438H33.8906C34.279 13.9438 34.5938 14.2582 34.5938 14.6461V30.7993Z" fill="#EE0033"/>
<path d="M17.0254 4.5C17.4137 4.5 17.7285 4.1852 17.7285 3.79688C17.7285 3.40855 17.4137 3.09375 17.0254 3.09375C16.6371 3.09375 16.3223 3.40855 16.3223 3.79688C16.3223 4.1852 16.6371 4.5 17.0254 4.5Z" fill="#EE0033"/>
<path d="M29.8491 19.072C29.7155 18.9196 29.5228 18.8325 29.3197 18.8325C29.1494 18.8325 28.9849 18.8944 28.857 19.0068C28.7156 19.1304 28.6313 19.301 28.6186 19.4885C28.6066 19.6761 28.6678 19.8565 28.7916 19.9977L30.0178 21.3967L29.186 23.4292L26.768 23.8373C26.4796 23.8857 26.249 24.1112 26.1949 24.3984L25.6767 27.122C25.6416 27.3067 25.6802 27.4935 25.7857 27.6487C25.8912 27.8039 26.0515 27.9086 26.2357 27.9437C26.2793 27.9514 26.3236 27.9556 26.3679 27.9556C26.7047 27.9556 26.9951 27.7154 27.0577 27.3846L27.4852 25.1407L29.3364 24.8281L29.9609 25.8515C30.0895 26.0622 30.3145 26.1879 30.5621 26.1879C30.6908 26.1879 30.8173 26.1528 30.9277 26.0854C31.088 25.9878 31.2005 25.8333 31.2448 25.6514C31.2891 25.4687 31.2596 25.2805 31.1618 25.1204L30.4736 23.9936L31.4846 21.526C31.5858 21.2781 31.5394 20.9993 31.3623 20.7977L29.8491 19.072Z" fill="#EE0033"/>
<path d="M16.3903 18.2227C16.4036 18.2235 16.4169 18.2239 16.43 18.2239C16.8004 18.2239 17.1106 17.9347 17.1315 17.5607L17.3531 13.5918L19.5063 12.8918C19.7289 12.8195 19.9008 12.6585 19.9649 12.4335L20.9211 9.09792H23.6248C24.013 9.09792 24.3279 8.78348 24.3279 8.39564C24.3279 8.0078 24.013 7.69336 23.6248 7.69336H20.3904C20.0762 7.69336 19.8002 7.8844 19.7142 8.18611L18.7152 11.6805L13.6817 13.3125L12.7606 10.3008C12.6471 9.93 12.254 9.7204 11.8826 9.83346C11.5113 9.94688 11.3023 10.3389 11.4158 10.71L12.1585 13.1363L8.64039 12.0529C8.35253 11.9644 8.04027 12.0686 7.86372 12.3123L6.58087 14.0826C6.35319 14.3967 6.42358 14.8358 6.73815 15.0632C6.86275 15.1534 7.00696 15.1967 7.14983 15.1967C7.36766 15.1967 7.58254 15.0959 7.72 14.9061L8.70754 13.5433L13.0114 14.8685C13.15 14.9111 13.2983 14.91 13.4362 14.8651L15.9187 14.058L15.7275 17.4824C15.7058 17.8697 16.0026 18.2011 16.3903 18.2227Z" fill="#EE0033"/>
</g>
<defs>
<clipPath id="clip0">
<rect width="36" height="36" fill="white"/>
</clipPath>
</defs>
</svg>
