<svg width="33" height="44" viewBox="0 0 33 44" fill="none" xmlns="http://www.w3.org/2000/svg">
<g clip-path="url(#clip0_2401:71052)">
<path d="M16.2676 0.429688C7.59846 0.429688 0.541016 7.46866 0.541016 16.1151C0.541016 26.8512 14.6135 42.6127 15.2157 43.2726C15.7756 43.8987 16.7596 43.8987 17.3194 43.2726C17.9217 42.6043 31.9941 26.8512 31.9941 16.1151C31.9941 7.46866 24.9367 0.429688 16.2676 0.429688Z" fill="#FF0000" stroke="#990000" stroke-width="1" stroke-miterlimit="10"/>
<path d="M16.0332 23.25C21.3489 23.25 25.6582 18.9407 25.6582 13.625C25.6582 8.30926 21.3489 4 16.0332 4C10.7175 4 6.4082 8.30926 6.4082 13.625C6.4082 18.9407 10.7175 23.25 16.0332 23.25Z" fill="white"/>
<path fill-rule="evenodd" clip-rule="evenodd" d="M5.69331 28.5312C5.60869 28.5312 4.92251 28.5662 4.83789 28.5742C4.91235 28.7125 4.99733 28.8587 5.08047 29.0017C5.25254 29.2976 5.41668 29.5799 5.46308 29.7503L5.55912 29.9184C5.61419 29.9245 5.66786 29.93 5.72152 29.93C6.7939 29.93 7.86549 29.9309 8.93657 29.9318C11.0771 29.9335 13.2156 29.9353 15.3541 29.93C15.9535 29.93 16.4542 30.1538 16.8843 30.6573C17.4955 31.3767 18.1129 32.089 18.7304 32.8012C19.0391 33.1573 19.3477 33.5134 19.6557 33.8704C19.6957 33.9158 19.7219 33.9929 19.7341 34.0288C19.7369 34.0371 19.7389 34.0432 19.7403 34.0463C20.3901 33.2951 21.0298 32.5572 21.662 31.828C22.4223 30.9509 23.1718 30.0864 23.9149 29.2266C23.8269 29.2266 23.7352 29.2254 23.6407 29.2241C23.3943 29.2208 23.1292 29.2173 22.8642 29.2346C22.434 29.2666 22.0673 29.4904 21.7571 29.8501C21.5554 30.0892 21.3506 30.3249 21.1469 30.5594C21.0443 30.6775 20.9419 30.7953 20.8403 30.9131L19.839 32.072C19.7685 32.0001 19.7121 31.9362 19.6557 31.8722C18.8941 31.001 18.1395 30.1298 17.385 29.2506C16.969 28.763 16.4824 28.5312 15.8901 28.5312H5.69331Z" fill="white"/>
<path d="M27.6976 28.5742C26.1744 28.5742 24.6065 28.5885 23.0833 28.5805C22.498 28.5805 22.0185 28.8043 21.6095 29.2838C21.0877 29.9073 20.5447 30.5147 20.0158 31.1302C19.9594 31.1941 19.9312 31.282 19.903 31.33C18.676 29.9073 17.4913 28.5485 16.3066 27.1817C17.1387 27.1258 17.9708 27.0858 18.6125 27.9331C18.9863 28.4206 19.4023 28.8602 19.8607 29.3877C19.9383 29.2678 20.0017 29.14 20.0863 29.0441C20.4319 28.6284 20.7915 28.2288 21.1441 27.8212C21.5108 27.4055 21.955 27.1737 22.4628 27.1658C24.1904 27.1578 28.3851 27.2422 28.3851 27.2422C28.3851 27.2422 28.3481 27.3563 28.2562 27.543C28.1076 27.845 27.8569 28.3087 27.6976 28.5742Z" fill="white"/>
<path d="M13.4124 7C12.8336 7 12.3592 7.47444 12.3592 8.05325V9.10649H10.6702C10.3191 9.10649 10.0345 9.39115 10.0345 9.74223V11.2225H21.4209V9.74223C21.4209 9.39115 21.1362 9.10649 20.7852 9.10649H19.0962V8.05325C19.0962 7.47444 18.6217 7 18.0429 7H13.4124ZM13.9058 7.84449H17.559L15.7372 9.2678L13.9058 7.84449ZM17.8437 8.15762V10.5867C17.8437 10.7006 17.7488 10.7955 17.6349 10.7955H13.8394C13.7256 10.7955 13.6307 10.7006 13.6307 10.5867V8.15762L15.6043 9.69479C15.6802 9.75172 15.7846 9.75172 15.8605 9.69479L17.8437 8.15762ZM9.61695 11.64C9.50309 11.64 9.4082 11.7349 9.4082 11.8487V12.2662C9.4082 12.3801 9.50309 12.475 9.61695 12.475H21.8479C21.9618 12.475 22.0566 12.3801 22.0566 12.2662V11.8487C22.0566 11.7349 21.9618 11.64 21.8479 11.64H9.61695ZM10.0439 12.9115V17.9689H10.8884V13.5377C10.8884 13.4333 10.9738 13.3385 11.0877 13.329H14.4752C14.589 13.329 14.6839 13.4238 14.6839 13.5377V17.9689H21.4304V12.9115H10.0439ZM15.2912 13.329C15.3007 13.329 15.3007 13.329 15.3102 13.329H20.3771C20.491 13.329 20.5859 13.4238 20.5859 13.5377V17.3332C20.5859 17.4471 20.491 17.5419 20.3771 17.5419H15.3102C15.1963 17.5419 15.1014 17.4471 15.1014 17.3332V13.5377C15.1014 13.4333 15.1868 13.3385 15.2912 13.329ZM11.3059 13.756V17.9689H14.2569V13.756H11.3059ZM15.5189 13.756V17.1339H17.6254V13.756H15.5189ZM18.0524 13.756V17.1339H20.1589V13.756H18.0524ZM11.9132 14.1735C11.9227 14.1735 11.9322 14.1735 11.9322 14.1735H13.6212C13.7351 14.1735 13.8299 14.2683 13.8299 14.3822V16.9157C13.8299 17.0296 13.7351 17.1244 13.6212 17.1244H11.9322C11.8183 17.1244 11.7234 17.0296 11.7234 16.9157V14.3822C11.7234 14.2778 11.8088 14.1829 11.9132 14.1735ZM12.1504 14.591V16.6975H13.4124V14.591H12.1504ZM9.61695 18.3864C9.50309 18.3864 9.4082 18.4813 9.4082 18.5952V19.4397C9.4082 19.5535 9.50309 19.6484 9.61695 19.6484H21.8479C21.9618 19.6484 22.0566 19.5535 22.0566 19.4397V18.5952C22.0566 18.4813 21.9618 18.3864 21.8479 18.3864C17.6349 18.3864 13.6212 18.3864 9.61695 18.3864Z" fill="#D26602"/>
</g>
<defs>
<clipPath id="clip0_2401:71052">
<rect width="31.9688" height="44" fill="white" transform="translate(0.283203)"/>
</clipPath>
</defs>
</svg>
