<svg width="36" height="36" viewBox="0 0 36 36" fill="none" xmlns="http://www.w3.org/2000/svg">
<path d="M28.5413 4.71666H25.2844V3.25966C25.2844 2.78826 24.7702 2.57401 24.2988 2.57401H21.7704C21.1705 0.859853 19.6706 0.00277472 17.9564 0.00277472C16.2611 -0.0609587 14.7192 0.978543 14.1424 2.57401H11.6569C11.1855 2.57401 10.7141 2.78826 10.7141 3.25966V4.71666H7.45717C5.52712 4.73725 3.94814 6.2598 3.85742 8.1878V32.743C3.85742 34.6286 5.57158 35.9999 7.45717 35.9999H28.5413C30.4269 35.9999 32.141 34.6286 32.141 32.743V8.18788C32.0503 6.2598 30.4713 4.73725 28.5413 4.71666ZM12.4282 4.28817H14.7852C15.1966 4.23797 15.5271 3.92496 15.5995 3.5168C15.8532 2.4116 16.8229 1.61826 17.9564 1.5884C19.0795 1.62244 20.0345 2.41824 20.2705 3.5168C20.3474 3.93907 20.6997 4.25609 21.1276 4.28817H23.5703V7.71648H12.4282V4.28817ZM30.4269 32.7431C30.4269 33.6859 29.4841 34.2858 28.5413 34.2858H7.45717C6.51437 34.2858 5.57158 33.6859 5.57158 32.7431V8.18788C5.65902 7.20653 6.47205 6.44887 7.45717 6.4309H10.714V8.61646C10.7593 9.09663 11.1752 9.45582 11.6568 9.43072H24.2987C24.7892 9.45754 25.2181 9.10328 25.2843 8.61646V6.43082H28.5412C29.5262 6.44887 30.3393 7.20645 30.4268 8.1878V32.7431H30.4269Z" fill="#EE0033"/>
<path d="M14.699 19.1586C14.3775 18.8197 13.8438 18.8006 13.499 19.1157L10.7563 21.7298L9.5993 20.5299C9.27784 20.191 8.74419 20.172 8.39936 20.487C8.0674 20.8348 8.0674 21.382 8.39936 21.7298L10.1563 23.5297C10.3084 23.6999 10.5281 23.7941 10.7563 23.7868C10.9823 23.7836 11.198 23.6912 11.3562 23.5297L14.6988 20.3585C15.0302 20.0545 15.0523 19.5394 14.7483 19.2081C14.7327 19.1908 14.7162 19.1743 14.699 19.1586Z" fill="#EE0033"/>
<path d="M26.9986 21.0012H17.1422C16.6689 21.0012 16.2852 21.3849 16.2852 21.8583C16.2852 22.3317 16.6689 22.7154 17.1422 22.7154H26.9986C27.472 22.7154 27.8557 22.3317 27.8557 21.8583C27.8557 21.3849 27.472 21.0012 26.9986 21.0012Z" fill="#EE0033"/>
<path d="M14.699 12.3019C14.3775 11.963 13.8438 11.9439 13.499 12.2591L10.7563 14.8731L9.5993 13.6732C9.27784 13.3343 8.74419 13.3152 8.39936 13.6303C8.0674 13.9781 8.0674 14.5253 8.39936 14.8731L10.1563 16.673C10.3084 16.8433 10.5281 16.9374 10.7563 16.9301C10.9823 16.9269 11.198 16.8345 11.3562 16.673L14.6988 13.5018C15.0302 13.1978 15.0523 12.6827 14.7483 12.3514C14.7327 12.3341 14.7162 12.3176 14.699 12.3019Z" fill="#EE0033"/>
<path d="M26.9986 14.1445H17.1422C16.6689 14.1445 16.2852 14.5282 16.2852 15.0016C16.2852 15.475 16.6689 15.8587 17.1422 15.8587H26.9986C27.472 15.8587 27.8557 15.475 27.8557 15.0016C27.8557 14.5282 27.472 14.1445 26.9986 14.1445Z" fill="#EE0033"/>
<path d="M14.699 26.015C14.3775 25.6761 13.8438 25.6571 13.499 25.9722L10.7563 28.5862L9.5993 27.3863C9.27784 27.0474 8.74419 27.0284 8.39936 27.3434C8.0674 27.6912 8.0674 28.2384 8.39936 28.5862L10.1563 30.3861C10.3084 30.5564 10.5281 30.6505 10.7563 30.6432C10.9823 30.64 11.198 30.5476 11.3562 30.3861L14.6988 27.2149C15.0302 26.9109 15.0523 26.3958 14.7483 26.0645C14.7327 26.0473 14.7162 26.0308 14.699 26.015Z" fill="#EE0033"/>
<path d="M26.9986 27.8577H17.1422C16.6689 27.8577 16.2852 28.2414 16.2852 28.7147C16.2852 29.1881 16.6689 29.5718 17.1422 29.5718H26.9986C27.472 29.5718 27.8557 29.1881 27.8557 28.7147C27.8557 28.2414 27.472 27.8577 26.9986 27.8577Z" fill="#EE0033"/>
</svg>
