<svg width="36" height="36" viewBox="0 0 36 36" fill="none" xmlns="http://www.w3.org/2000/svg">
<path d="M18 27.1406C17.6119 27.1406 17.2969 27.4556 17.2969 27.8438C17.2969 28.2319 17.6119 28.5469 18 28.5469C18.3881 28.5469 18.7031 28.2319 18.7031 27.8438C18.7031 27.4556 18.3881 27.1406 18 27.1406Z" fill="#EE1A30"/>
<path d="M32.9827 4.31508C31.2524 3.61821 29.0029 3.23438 26.6484 3.23438C24.294 3.23438 22.0444 3.61821 20.3142 4.31508C19.2917 4.7269 18.511 5.2302 18 5.79495C17.489 5.2302 16.7083 4.72697 15.6858 4.31515C13.9556 3.61821 11.706 3.23438 9.35156 3.23438C6.99715 3.23438 4.74757 3.61821 3.01732 4.31508C1.07156 5.09878 0 6.21323 0 7.45312V24.3281C0 25.568 1.07156 26.6825 3.01732 27.4662C4.62656 28.1143 6.68517 28.4912 8.85938 28.5408V28.5469C8.85938 30.952 12.789 32.7656 18 32.7656C23.211 32.7656 27.1406 30.952 27.1406 28.5469V28.5408C29.3148 28.4912 31.3734 28.1143 32.9827 27.4662C34.9284 26.6825 36 25.568 36 24.3281V7.45312C36 6.21323 34.9284 5.09878 32.9827 4.31508ZM34.5938 20.1094C34.5938 20.7096 33.7751 21.4122 32.4573 21.943C31.031 22.5174 29.1161 22.865 27.1406 22.9149V20.1094C27.1406 20.1073 27.1405 20.1053 27.1405 20.1033C29.3148 20.0538 31.3734 19.6769 32.9827 19.0287C33.6144 18.7743 34.1532 18.4849 34.5938 18.1678L34.5938 20.1094ZM17.2969 11.6719C17.2969 12.2721 16.4782 12.9747 15.1604 13.5055C13.6159 14.1276 11.4986 14.4844 9.35156 14.4844C7.2045 14.4844 5.08725 14.1276 3.5427 13.5055C2.2249 12.9747 1.40625 12.2721 1.40625 11.6719V9.73027C1.8469 10.0474 2.3857 10.3368 3.01732 10.5912C4.74757 11.288 6.99715 11.6719 9.35156 11.6719C11.706 11.6719 13.9556 11.288 15.6858 10.5912C16.3174 10.3368 16.8562 10.0474 17.2969 9.73027V11.6719ZM3.01732 14.8099C4.74757 15.5068 6.99715 15.8906 9.35156 15.8906C11.706 15.8906 13.9556 15.5068 15.6858 14.8099C16.3174 14.5555 16.8562 14.2661 17.2969 13.949V15.9031C15.4779 15.9647 13.7334 16.2632 12.3225 16.7601C10.9073 17.2586 9.88896 17.9232 9.33518 18.7029C7.19374 18.7011 5.08331 18.3447 3.5427 17.7242C2.2249 17.1934 1.40625 16.4909 1.40625 15.8906V13.949C1.8469 14.2661 2.3857 14.5555 3.01732 14.8099ZM1.40625 18.1678C1.8469 18.4849 2.3857 18.7743 3.01732 19.0287C4.62663 19.6768 6.68531 20.0537 8.85959 20.1033C8.85959 20.1054 8.85945 20.1074 8.85945 20.1094V22.9149C6.88387 22.865 4.96905 22.5174 3.54277 21.943C2.2249 21.4122 1.40625 20.7096 1.40625 20.1094V18.1678ZM10.34 19.7639C10.8611 18.5513 13.8687 17.2969 18 17.2969C22.1313 17.2969 25.1389 18.5512 25.6594 19.7625C25.7099 19.8807 25.7344 19.9941 25.7344 20.1094C25.7344 20.7276 24.9723 21.4142 23.6957 21.9461C22.1856 22.5754 20.1629 22.9219 18 22.9219C15.8371 22.9219 13.8144 22.5754 12.3043 21.9461C11.0277 21.4142 10.2656 20.7276 10.2656 20.1094C10.2656 19.9941 10.2902 19.8807 10.34 19.7639ZM34.5938 15.8906C34.5938 16.4909 33.7751 17.1934 32.4573 17.7242C30.9168 18.3447 28.8064 18.7011 26.665 18.7029C26.1117 17.9236 25.0932 17.2587 23.6775 16.7601C22.2666 16.2631 20.5221 15.9647 18.7031 15.9031V13.949C19.1438 14.2661 19.6826 14.5555 20.3142 14.8099C22.0444 15.5068 24.294 15.8906 26.6484 15.8906C29.0029 15.8906 31.2524 15.5068 32.9827 14.8099C33.6143 14.5555 34.1531 14.2661 34.5938 13.949V15.8906ZM34.5938 11.6719C34.5938 12.2721 33.7751 12.9747 32.4573 13.5055C30.9128 14.1276 28.7955 14.4844 26.6484 14.4844C24.5014 14.4844 22.3841 14.1276 20.8396 13.5055C19.5218 12.9747 18.7031 12.2721 18.7031 11.6719V9.73027C19.1438 10.0474 19.6826 10.3368 20.3142 10.5912C22.0444 11.288 24.294 11.6719 26.6484 11.6719C29.0029 11.6719 31.2524 11.288 32.9827 10.5912C33.6143 10.3368 34.1531 10.0474 34.5938 9.73027V11.6719ZM20.8396 5.61952C22.3841 4.99739 24.5014 4.64062 26.6484 4.64062C28.7955 4.64062 30.9128 4.99739 32.4573 5.61952C33.7751 6.1503 34.5938 6.85287 34.5938 7.45312C34.5938 8.05338 33.7751 8.75595 32.4573 9.28673C30.9128 9.90886 28.7955 10.2656 26.6484 10.2656C24.5014 10.2656 22.3841 9.90886 20.8396 9.28673C19.5218 8.75595 18.7031 8.05338 18.7031 7.45312C18.7031 6.85287 19.5218 6.1503 20.8396 5.61952ZM3.5427 5.61952C5.08725 4.99739 7.2045 4.64062 9.35156 4.64062C11.4986 4.64062 13.6159 4.99739 15.1604 5.61952C16.4782 6.1503 17.2969 6.85287 17.2969 7.45312C17.2969 8.05338 16.4782 8.75595 15.1604 9.28673C13.6159 9.90886 11.4986 10.2656 9.35156 10.2656C7.2045 10.2656 5.08725 9.90886 3.5427 9.28673C2.2249 8.75595 1.40625 8.05338 1.40625 7.45312C1.40625 6.85287 2.2249 6.1503 3.5427 5.61952ZM3.5427 26.1617C2.2249 25.6309 1.40625 24.9284 1.40625 24.3281V22.3865C1.8469 22.7036 2.3857 22.993 3.01732 23.2474C4.62656 23.8956 6.68517 24.2724 8.85938 24.3221V27.1337C6.8838 27.0837 4.96898 26.7363 3.5427 26.1617ZM23.6957 30.3836C22.1856 31.0129 20.1629 31.3594 18 31.3594C15.8371 31.3594 13.8144 31.0129 12.3043 30.3836C11.0277 29.8517 10.2656 29.1651 10.2656 28.5469V26.6463C10.4249 26.7615 10.6009 26.876 10.7961 26.989C11.8879 27.6208 13.3736 28.0882 15.0924 28.3404C15.1271 28.3455 15.1614 28.348 15.1954 28.348C15.5386 28.348 15.8389 28.0965 15.8902 27.7469C15.9466 27.3627 15.6808 27.0055 15.2967 26.9491C12.0289 26.4694 10.2656 25.2407 10.2656 24.3281V22.4212C11.8571 23.5858 14.6663 24.3281 18 24.3281C21.3337 24.3281 24.1429 23.5858 25.7344 22.4212V24.3281C25.7344 25.2407 23.9711 26.4694 20.7033 26.9491C20.3191 27.0055 20.0533 27.3627 20.1098 27.7469C20.1611 28.0965 20.4614 28.348 20.8046 28.348C20.8385 28.348 20.873 28.3455 20.9076 28.3404C22.6264 28.0882 24.112 27.6209 25.2039 26.989C25.3991 26.876 25.5751 26.7615 25.7344 26.6463V28.5469C25.7344 29.1651 24.9723 29.8517 23.6957 30.3836ZM32.4573 26.1617C31.031 26.7362 29.1161 27.0837 27.1406 27.1337V24.322C29.3148 24.2724 31.3734 23.8955 32.9827 23.2474C33.6143 22.993 34.1531 22.7036 34.5938 22.3864V24.3281C34.5938 24.9284 33.7751 25.6309 32.4573 26.1617Z" fill="#EE1A30"/>
</svg>
