<svg width="32" height="44" viewBox="0 0 32 44" fill="none" xmlns="http://www.w3.org/2000/svg">
<g clip-path="url(#clip0_2401:71051)">
<path d="M15.7266 0.429688C7.05744 0.429688 0 7.46866 0 16.1151C0 26.8512 14.0725 42.6127 14.6747 43.2726C15.2346 43.8987 16.2185 43.8987 16.7784 43.2726C17.3807 42.6043 31.4531 26.8512 31.4531 16.1151C31.4531 7.46866 24.3957 0.429688 15.7266 0.429688Z" fill="#FF0000" stroke="#990000" stroke-width="0.34375" stroke-miterlimit="10"/>
<path fill-rule="evenodd" clip-rule="evenodd" d="M5.41011 28.5312C5.32549 28.5312 4.63931 28.5662 4.55469 28.5742C4.62914 28.7125 4.71413 28.8587 4.79727 29.0017C4.96934 29.2976 5.13347 29.5799 5.17988 29.7503L5.27591 29.9184C5.33099 29.9245 5.38465 29.93 5.43832 29.93C6.5107 29.93 7.58229 29.9309 8.65336 29.9318C10.7939 29.9335 12.9324 29.9353 15.0709 29.93C15.6703 29.93 16.171 30.1538 16.6011 30.6573C17.2123 31.3767 17.8297 32.089 18.4472 32.8012C18.7559 33.1573 19.0645 33.5134 19.3724 33.8704C19.4125 33.9158 19.4387 33.9929 19.4508 34.0288C19.4537 34.0371 19.4557 34.0432 19.4571 34.0463C20.1069 33.2951 20.7466 32.5572 21.3788 31.828C22.1391 30.9509 22.8885 30.0864 23.6317 29.2266C23.5437 29.2266 23.452 29.2254 23.3575 29.2241C23.1111 29.2208 22.846 29.2173 22.581 29.2346C22.1508 29.2666 21.7841 29.4904 21.4739 29.8501C21.2722 30.0892 21.0674 30.3249 20.8637 30.5594C20.7611 30.6775 20.6587 30.7953 20.5571 30.9131L19.5558 32.072C19.4853 32.0001 19.4289 31.9362 19.3724 31.8722C18.6109 31.001 17.8563 30.1298 17.1018 29.2506C16.6858 28.763 16.1992 28.5312 15.6068 28.5312H5.41011Z" fill="white"/>
<path d="M27.4144 28.5742C25.8912 28.5742 24.3233 28.5885 22.8001 28.5805C22.2148 28.5805 21.7353 28.8043 21.3263 29.2838C20.8045 29.9073 20.2615 30.5147 19.7326 31.1302C19.6762 31.1941 19.648 31.282 19.6198 31.33C18.3928 29.9073 17.2081 28.5485 16.0234 27.1817C16.8555 27.1258 17.6876 27.0858 18.3293 27.9331C18.7031 28.4206 19.1191 28.8602 19.5775 29.3877C19.6551 29.2678 19.7185 29.14 19.8031 29.0441C20.1487 28.6284 20.5083 28.2288 20.8609 27.8212C21.2276 27.4055 21.6718 27.1737 22.1796 27.1658C23.9072 27.1578 28.1019 27.2422 28.1019 27.2422C28.1019 27.2422 28.0649 27.3563 27.973 27.543C27.8244 27.845 27.5737 28.3087 27.4144 28.5742Z" fill="white"/>
<path d="M15.625 23.25C20.9407 23.25 25.25 18.9407 25.25 13.625C25.25 8.30926 20.9407 4 15.625 4C10.3093 4 6 8.30926 6 13.625C6 18.9407 10.3093 23.25 15.625 23.25Z" fill="white"/>
<g clip-path="url(#clip1_2401:71051)">
<path d="M18.3683 11.7129C18.5781 11.7129 18.6829 11.5829 18.6829 11.3227C18.6829 11.062 18.5786 10.9316 18.3701 10.9316C18.2654 10.9316 18.1866 10.9645 18.1334 11.0302C18.0803 11.0959 18.0537 11.1934 18.0537 11.3227C18.0537 11.452 18.08 11.5493 18.1326 11.6148C18.1851 11.6802 18.2637 11.7129 18.3683 11.7129Z" fill="#036565"/>
<path d="M19.7478 11.2191C19.7874 11.1933 19.8072 11.1527 19.8072 11.0973C19.8072 11.0424 19.787 11.0034 19.7466 10.9801C19.7062 10.9569 19.6435 10.9453 19.5588 10.9453H19.479V11.258H19.5639C19.647 11.258 19.7083 11.245 19.7478 11.2191Z" fill="#036565"/>
<path d="M23 10.2829V9.25391H8V10.283H8.36975V17.7178H8V18.7468H23V17.7178H22.6303V10.2829H23ZM20.3623 10.7454H21.0764V10.9465H20.6252V11.2005H21.0449V11.4016H20.6252V11.7H21.0764V11.9026H20.3623V10.7454ZM19.2157 10.7454H19.577C19.7454 10.7454 19.8701 10.7741 19.9509 10.8313C20.0318 10.8886 20.0723 10.9755 20.0723 11.0921C20.0723 11.1602 20.0522 11.2207 20.012 11.2738C19.9719 11.3268 19.9151 11.3684 19.8416 11.3984C20.0282 11.6586 20.1498 11.8266 20.2062 11.9026H19.9146L19.6186 11.4586H19.4786V11.9026H19.2158V10.7454H19.2157ZM17.9314 10.8796C18.0334 10.778 18.1797 10.7272 18.3703 10.7272C18.5607 10.7272 18.7065 10.7784 18.8074 10.8808C18.9083 10.9832 18.9588 11.1304 18.9588 11.3225C18.9588 11.514 18.9079 11.6612 18.8061 11.7642C18.7043 11.867 18.5585 11.9185 18.3685 11.9185C18.1786 11.9185 18.0327 11.867 17.931 11.7642C17.8292 11.6612 17.7782 11.5135 17.7782 11.3208C17.7782 11.1283 17.8293 10.9812 17.9314 10.8796ZM16.7064 10.7454H17.6426V10.9496H17.306V11.9026H17.043V10.9496H16.7064V10.7454ZM12.7134 17.7177H9.87713V12.5761H12.7134V17.7177ZM13.8905 12.6489H15.7082V15.8255H13.8905V12.6489ZM14.4211 17.4846C14.1861 17.4846 13.9957 17.3069 13.9957 17.0876C13.9957 16.8683 14.1861 16.6905 14.4211 16.6905C14.6561 16.6905 14.8465 16.8683 14.8465 17.0876C14.8465 17.3069 14.656 17.4846 14.4211 17.4846ZM15.9337 17.4846C15.6987 17.4846 15.5083 17.3069 15.5083 17.0876C15.5083 16.8683 15.6987 16.6905 15.9337 16.6905C16.1687 16.6905 16.3592 16.8683 16.3592 17.0876C16.3592 17.3069 16.1687 17.4846 15.9337 17.4846ZM16.482 11.8282C16.4015 11.8884 16.2894 11.9185 16.1458 11.9185C16.0135 11.9185 15.8964 11.8952 15.7947 11.8488V11.6208C15.8784 11.6557 15.9491 11.6803 16.0071 11.6945C16.0651 11.7087 16.1181 11.7159 16.1661 11.7159C16.2238 11.7159 16.268 11.7056 16.2989 11.685C16.3297 11.6644 16.3451 11.6338 16.3451 11.5932C16.3451 11.5705 16.3383 11.5503 16.3247 11.5326C16.3112 11.515 16.2913 11.4979 16.265 11.4816C16.2387 11.4652 16.1851 11.4391 16.1043 11.4032C16.0285 11.3699 15.9717 11.3381 15.9338 11.3074C15.8959 11.2768 15.8657 11.2412 15.8431 11.2006C15.8205 11.16 15.8092 11.1125 15.8092 11.0581C15.8092 10.9558 15.8464 10.8753 15.9207 10.8167C15.9951 10.7582 16.0978 10.7289 16.229 10.7289C16.2935 10.7289 16.3549 10.736 16.4134 10.7503C16.472 10.7645 16.5332 10.7846 16.5971 10.8104L16.5122 11.0011C16.4461 10.9758 16.3914 10.9581 16.3482 10.9481C16.3049 10.9381 16.2624 10.9331 16.2206 10.9331C16.1708 10.9331 16.1326 10.9439 16.106 10.9656C16.0795 10.9872 16.0662 11.0154 16.0662 11.0502C16.0662 11.0719 16.0715 11.0908 16.0823 11.1068C16.093 11.1229 16.1101 11.1385 16.1336 11.1535C16.1571 11.1686 16.2126 11.1956 16.3002 11.2347C16.4161 11.2864 16.4955 11.3383 16.5386 11.3902C16.5815 11.4422 16.603 11.5059 16.603 11.5813C16.6029 11.6857 16.5626 11.7681 16.482 11.8282ZM17.4464 17.4846C17.2114 17.4846 17.0209 17.3069 17.0209 17.0876C17.0209 16.8683 17.2114 16.6905 17.4464 16.6905C17.6813 16.6905 17.8718 16.8683 17.8718 17.0876C17.8718 17.3069 17.6813 17.4846 17.4464 17.4846ZM18.4156 15.8255H16.5977V12.6489H18.4156V15.8255ZM18.959 17.4846C18.7241 17.4846 18.5336 17.3069 18.5336 17.0876C18.5336 16.8683 18.7241 16.6905 18.959 16.6905C19.1941 16.6905 19.3845 16.8683 19.3845 17.0876C19.3845 17.3069 19.194 17.4846 18.959 17.4846ZM20.4717 17.4846C20.2368 17.4846 20.0463 17.3069 20.0463 17.0876C20.0463 16.8683 20.2368 16.6905 20.4717 16.6905C20.7067 16.6905 20.8972 16.8683 20.8972 17.0876C20.8972 17.3069 20.7066 17.4846 20.4717 17.4846ZM21.1229 15.8255H19.3051V12.6489H21.1229V15.8255Z" fill="#036565"/>
</g>
</g>
<defs>
<clipPath id="clip0_2401:71051">
<rect width="31.9688" height="44" fill="white"/>
</clipPath>
<clipPath id="clip1_2401:71051">
<rect width="15" height="14" fill="white" transform="translate(8 7)"/>
</clipPath>
</defs>
</svg>
