<svg width="18" height="18" viewBox="0 0 18 18" fill="none" xmlns="http://www.w3.org/2000/svg">
<g clip-path="url(#clip0)">
<path d="M17.287 7.43323C16.8117 6.32152 16.1721 5.36408 15.3686 4.56035C14.565 3.75676 13.6074 3.1173 12.4957 2.64188C11.3839 2.16647 10.2189 1.92871 9.00002 1.92871C7.78117 1.92871 6.61602 2.16651 5.50445 2.64188C4.39288 3.11747 3.4353 3.75676 2.63174 4.56035C1.82801 5.36408 1.18865 6.32152 0.713137 7.43323C0.237724 8.54494 0 9.70999 0 10.9288C0 12.6831 0.47207 14.3006 1.41628 15.7805C1.54343 15.9747 1.72426 16.0717 1.95868 16.0717H16.0413C16.2756 16.0717 16.4565 15.9747 16.5836 15.7805C17.5279 14.2939 18 12.6766 18 10.9288C18 9.70999 17.7623 8.54494 17.287 7.43323ZM8.09088 3.5912C8.34215 3.34003 8.64507 3.21443 8.99998 3.21443C9.35493 3.21443 9.65785 3.34007 9.90901 3.5912C10.1602 3.84222 10.2858 4.14528 10.2858 4.50019C10.2858 4.8551 10.1602 5.15806 9.90901 5.40918C9.65785 5.66031 9.35493 5.78595 8.99998 5.78595C8.64507 5.78595 8.34201 5.66031 8.09088 5.40918C7.83986 5.15802 7.71419 4.8551 7.71419 4.50019C7.71419 4.14528 7.83972 3.84225 8.09088 3.5912ZM3.48051 11.8378C3.22938 12.0889 2.92632 12.2148 2.57141 12.2148C2.2166 12.2148 1.91354 12.0889 1.66241 11.8378C1.41125 11.5869 1.28579 11.2837 1.28579 10.9288C1.28579 10.5739 1.41125 10.271 1.66241 10.0198C1.91358 9.76864 2.2166 9.64308 2.57141 9.64308C2.92632 9.64308 3.22952 9.76864 3.48051 10.0198C3.73153 10.271 3.8572 10.5739 3.8572 10.9288C3.8572 11.2837 3.73153 11.5867 3.48051 11.8378ZM5.40914 7.33782C5.15787 7.58891 4.85496 7.71458 4.50001 7.71458C4.14506 7.71458 3.84204 7.58877 3.59087 7.33782C3.33985 7.0868 3.21422 6.78374 3.21422 6.42883C3.21422 6.07391 3.33971 5.77096 3.59087 5.51983C3.84214 5.26867 4.14506 5.14307 4.50001 5.14307C4.85492 5.14307 5.15798 5.2687 5.40914 5.51983C5.66017 5.77099 5.7858 6.07391 5.7858 6.42883C5.7858 6.78363 5.66013 7.08666 5.40914 7.33782ZM11.0992 7.42324L10.0846 11.2602C10.4197 11.4878 10.6608 11.7924 10.8081 12.1743C10.9552 12.556 10.9755 12.9477 10.8683 13.3495C10.7344 13.8651 10.4364 14.2569 9.97424 14.5247C9.51212 14.7925 9.02341 14.8596 8.50765 14.7256C7.99213 14.5917 7.60027 14.2938 7.3325 13.8317C7.06473 13.3694 6.99778 12.8808 7.13168 12.365C7.23878 11.9634 7.44973 11.6336 7.7645 11.3759C8.07917 11.1179 8.43739 10.9725 8.83916 10.9389L9.8537 7.10182C9.90053 6.92774 10.001 6.79535 10.1549 6.70493C10.3091 6.61469 10.4696 6.59291 10.6371 6.63974C10.8047 6.68667 10.9335 6.78536 11.0238 6.93597C11.1144 7.0868 11.1395 7.24916 11.0992 7.42324ZM12.591 7.33782C12.3398 7.0868 12.2141 6.78374 12.2141 6.42883C12.2141 6.07391 12.3398 5.77096 12.591 5.51983C12.8421 5.2687 13.145 5.14307 13.5 5.14307C13.8549 5.14307 14.1578 5.2687 14.409 5.51983C14.6601 5.77096 14.7859 6.07391 14.7859 6.42883C14.7859 6.78363 14.6601 7.08669 14.409 7.33782C14.1578 7.58891 13.8549 7.71458 13.5 7.71458C13.145 7.71458 12.8421 7.58891 12.591 7.33782ZM16.3375 11.8378C16.0864 12.0889 15.7835 12.2148 15.4286 12.2148C15.0736 12.2148 14.7707 12.0889 14.5195 11.8378C14.2684 11.5869 14.1428 11.2837 14.1428 10.9288C14.1428 10.5739 14.2684 10.271 14.5195 10.0198C14.7707 9.76864 15.0736 9.64308 15.4286 9.64308C15.7835 9.64308 16.0864 9.76864 16.3375 10.0198C16.5887 10.271 16.7141 10.5739 16.7141 10.9288C16.7141 11.2837 16.5887 11.5867 16.3375 11.8378Z" fill="#223B55"/>
</g>
<defs>
<clipPath id="clip0">
<rect width="18" height="18" fill="white"/>
</clipPath>
</defs>
</svg>
