<svg width="18" height="18" viewBox="0 0 18 18" fill="none" xmlns="http://www.w3.org/2000/svg">
<g clip-path="url(#clip0_4411_6336)">
<path d="M14.0806 15.8524H3.91936C3.59869 15.8524 3.33871 15.5924 3.33871 15.2718V13.5527C3.33871 12.7338 3.82188 11.9889 4.56968 11.655C6.74456 10.6839 6.62534 10.7167 6.79482 10.7167H7.48495C7.75219 10.7167 7.98492 10.8991 8.0488 11.1586C8.2922 12.1477 9.70774 12.1482 9.95124 11.1586C10.0151 10.8991 10.2478 10.7167 10.5151 10.7167C11.2578 10.7167 11.2959 10.702 11.4419 10.7671L13.4304 11.655C14.1781 11.9889 14.6613 12.7338 14.6613 13.5527V15.2718C14.6613 15.5924 14.4013 15.8524 14.0806 15.8524ZM9.01419 2.14746C7.05851 2.14746 5.46746 3.7385 5.46746 5.69419C5.46746 7.64987 7.05851 9.24091 9.01419 9.24091C10.9699 9.24091 12.5609 7.64987 12.5609 5.69419C12.5609 3.7385 10.9699 2.14746 9.01419 2.14746ZM3.4192 5.94111C2.18784 5.94111 1.18604 6.9429 1.18604 8.1743C1.18604 9.40567 2.18784 10.4075 3.4192 10.4075C4.65061 10.4075 5.6524 9.40567 5.6524 8.1743C5.65236 6.9429 4.65057 5.94111 3.4192 5.94111ZM14.5808 5.94111C13.3494 5.94111 12.3476 6.9429 12.3476 8.1743C12.3476 9.40567 13.3494 10.4075 14.5808 10.4075C15.8122 10.4075 16.814 9.40567 16.814 8.1743C16.814 6.9429 15.8122 5.94111 14.5808 5.94111ZM17.1617 11.2605C15.9535 10.7209 15.9824 10.7154 15.8171 10.7154C14.9522 10.7154 14.3864 10.7093 14.0037 10.7074C13.6233 10.7056 13.4973 11.2158 13.8344 11.3921C14.1104 11.5364 14.2779 11.6596 14.4769 11.8767C15.0577 12.5075 15.1118 13.175 15.1117 13.7285C15.1117 13.9289 15.2741 14.0911 15.4745 14.0911H17.4194C17.7402 14.0911 18 13.8309 18 13.5105V12.5528C18 11.995 17.6708 11.488 17.1617 11.2605ZM2.18286 10.7154C2.01832 10.7154 2.05069 10.719 0.838307 11.2605C0.329153 11.488 0 11.995 0 12.5528V13.5105C0 13.8309 0.259839 14.0911 0.580645 14.0911H2.52537C2.72591 14.0911 2.88842 13.9287 2.88817 13.7282C2.88751 13.1728 2.94002 12.5099 3.52307 11.8767C3.7211 11.6606 3.89007 11.5363 4.15996 11.3946C4.49634 11.2179 4.37204 10.7091 3.99208 10.7098C3.60708 10.7105 3.04135 10.7154 2.18286 10.7154Z" fill="#223B55"/>
</g>
<defs>
<clipPath id="clip0_4411_6336">
<rect width="18" height="18" fill="white"/>
</clipPath>
</defs>
</svg>
