<svg width="40" height="40" viewBox="0 0 40 40" fill="none" xmlns="http://www.w3.org/2000/svg">
<g clip-path="url(#clip0_2215:2081)">
<path d="M33.2915 24.2905C33.321 23.802 33.3259 23.2938 33.3048 22.7653C33.1914 19.9433 32.0214 17.2639 30.7827 14.4271C30.5698 13.9393 30.3527 13.4407 30.1374 12.9346H30.2809C31.1671 12.9346 31.8881 12.2136 31.8881 11.3274V7.65119C31.8881 6.76494 31.1671 6.04393 30.2809 6.04393H24.7602C23.1291 6.04393 21.7602 7.18354 21.4052 8.70807H18.7277C18.2963 8.70807 17.9465 9.05783 17.9465 9.48932C17.9465 9.9208 18.2963 10.2706 18.7277 10.2706H21.4052C21.6923 11.5034 22.6423 12.4839 23.8582 12.8141L25.5414 20.3194C26.0734 22.6872 25.1485 24.0866 24.2789 24.8436C22.9305 26.0172 20.8005 26.3906 19.0987 25.7514C17.6226 25.1971 16.6844 23.9756 16.4569 22.3122L16.3922 21.8396H17.0536C17.485 21.8396 17.8348 21.4899 17.8348 21.0584V18.8992C17.8348 17.696 17.0363 16.6762 15.9414 16.3411V3.57861C15.9414 3.14713 15.5916 2.79736 15.1602 2.79736H1.73344C1.30203 2.79736 0.952187 3.14713 0.952187 3.57861V6.78314C0.952187 7.21463 1.30203 7.56439 1.73344 7.56439C2.16484 7.56439 2.51469 7.21463 2.51469 6.78314V4.35986H5.26828V9.0619C5.26828 9.34502 5.42148 9.60604 5.66867 9.744C5.91594 9.88205 6.21844 9.87549 6.45953 9.72689L8.4457 8.50252L10.4318 9.72689C10.5573 9.80432 10.6995 9.84315 10.8418 9.84315C10.9729 9.84315 11.1041 9.81018 11.2227 9.744C11.4698 9.60596 11.623 9.34502 11.623 9.0619V4.35986H14.3788V16.2244H2.51469V13.7989C2.51469 13.3674 2.16484 13.0177 1.73344 13.0177C1.30203 13.0177 0.952187 13.3674 0.952187 13.7989V17.0056V20.8064C0.32875 21.7107 0 22.7605 0 23.8597V30.0118C0 31.2778 1.02898 32.3078 2.29375 32.3078H4.16305C4.545 35.0688 6.91906 37.2021 9.78336 37.2021C12.6487 37.2021 15.0237 35.0688 15.4059 32.3078H27.1233C27.5052 35.0688 29.8793 37.2021 32.7435 37.2021C35.6089 37.2021 37.9838 35.0688 38.366 32.3078H39.2188C39.6502 32.3078 40 31.9581 40 31.5266C40 27.7096 37.0377 24.5716 33.2915 24.2905ZM10.0605 7.66244L8.8557 6.91971C8.60422 6.76471 8.28719 6.76479 8.0357 6.91971L6.83078 7.66252V4.35986H10.0605V7.66244ZM28.5217 7.60643H30.2809C30.3035 7.60643 30.3257 7.62861 30.3257 7.65119V11.3274C30.3257 11.35 30.3035 11.3722 30.2809 11.3722H28.522C28.0238 10.1316 28.0237 8.84557 28.5217 7.60643ZM24.5963 11.3646C24.5826 11.3631 24.5688 11.3617 24.555 11.3608C23.632 11.2603 22.9077 10.4901 22.8787 9.5476C22.8802 9.5283 22.8817 9.509 22.8817 9.48932C22.8817 9.46963 22.8802 9.45033 22.8787 9.43104C22.9097 8.41971 23.7415 7.60643 24.7602 7.60643H26.8647C26.4841 8.85229 26.4842 10.1255 26.865 11.3722H24.7602C24.7048 11.3722 24.6503 11.3693 24.5963 11.3646ZM2.51469 17.7868H15.1602C15.7734 17.7868 16.2723 18.2857 16.2723 18.899V20.277H2.51469V17.7868ZM9.78336 35.6396C7.78266 35.6396 6.11195 34.2033 5.74586 32.3078H13.823C13.4567 34.2033 11.7851 35.6396 9.78336 35.6396ZM4.14641 30.7453C4.52836 27.9741 6.90984 25.8324 9.78336 25.8324C12.6579 25.8324 15.0403 27.974 15.4224 30.7453H4.14641ZM24.769 30.7453H16.9977C16.6067 27.11 13.5206 24.2699 9.78336 24.2699C6.04711 24.2699 2.96195 27.11 2.57117 30.7453H2.29383C1.89062 30.7453 1.56258 30.4163 1.56258 30.0118V23.8597C1.56258 23.1392 1.7625 22.448 2.14266 21.8396H14.8152L14.9088 22.5239C15.2133 24.75 16.5402 26.4595 18.5494 27.2141C19.2902 27.4924 20.0811 27.6271 20.8731 27.6271C22.4868 27.6271 24.104 27.0674 25.3048 26.0221C26.9873 24.5575 27.6128 22.4106 27.0661 19.9771L25.4866 12.9347H28.4426C28.7441 13.6606 29.0515 14.3667 29.3509 15.0524C30.5803 17.8679 31.642 20.2995 31.7437 22.8278C31.8498 25.49 31.245 27.5254 29.9457 28.8775C28.7548 30.1169 27.013 30.7453 24.769 30.7453ZM32.7434 35.6396C30.7427 35.6396 29.072 34.2033 28.7059 32.3078H36.7831C36.4169 34.2033 34.7452 35.6396 32.7434 35.6396ZM30.1718 30.7453C30.4955 30.5093 30.7963 30.2474 31.0723 29.9601C32.1003 28.8903 32.7774 27.5122 33.0994 25.8447C35.8127 26.0131 38.018 28.0892 38.3841 30.7453H30.1718V30.7453Z" fill="#FD961E"/>
<path d="M1.73438 11.0745C2.16578 11.0745 2.51563 10.7225 2.51563 10.291C2.51563 9.85953 2.16578 9.50977 1.73438 9.50977C1.30297 9.50977 0.953125 9.85953 0.953125 10.291V10.2955C0.953125 10.727 1.30297 11.0745 1.73438 11.0745Z" fill="#FD961E"/>
</g>
<defs>
<clipPath id="clip0_2215:2081">
<rect width="40" height="40" fill="white"/>
</clipPath>
</defs>
</svg>
