<svg width="18" height="18" viewBox="0 0 18 18" fill="none" xmlns="http://www.w3.org/2000/svg">
<g clip-path="url(#clip0)">
<path d="M8.47266 0.871582V3.72679H11.3279L8.47266 0.871582Z" fill="#223B55"/>
<path d="M0.492188 17.4735H11.1099C11.4013 17.4735 11.6373 17.2376 11.6373 16.9461V14.1588C11.3843 14.225 10.8401 14.3093 10.8143 14.3093H2.6017C2.31015 14.3093 2.07436 14.0734 2.07436 13.7818C2.07436 13.4904 2.31015 13.2545 2.6017 13.2545H7.82172C7.19207 12.7046 6.72995 11.978 6.51339 11.1451H2.6017C2.31015 11.1451 2.07436 10.9092 2.07436 10.6176C2.07436 10.3262 2.31015 10.0903 2.6017 10.0903H6.36356C6.36356 9.31847 6.58713 8.60395 6.9505 7.98088H2.6017C2.31015 7.98088 2.07436 7.74495 2.07436 7.4534C2.07436 7.16199 2.31015 6.92606 2.6017 6.92606H7.82172C8.56371 6.27786 9.52227 5.87137 10.5826 5.87137C10.9488 5.87137 11.2981 5.93303 11.6373 6.0212V4.78139H7.94573C7.65418 4.78139 7.41838 4.54559 7.41838 4.25405V0.5625H0.492188C0.200775 0.5625 -0.0351562 0.798432 -0.0351562 1.08984V16.9461C-0.0351562 17.2376 0.200775 17.4735 0.492188 17.4735ZM2.6017 3.7267H5.83622C6.12777 3.7267 6.36356 3.96263 6.36356 4.25405C6.36356 4.54559 6.12777 4.78139 5.83622 4.78139H2.6017C2.31015 4.78139 2.07436 4.54559 2.07436 4.25405C2.07436 3.96263 2.31015 3.7267 2.6017 3.7267Z" fill="#223B55"/>
<path d="M14.654 12.6712C14.4481 12.4654 14.1146 12.4654 13.9087 12.6708L13.1567 11.9188C13.5249 11.4018 13.7464 10.7732 13.7464 10.09C13.7464 8.34247 12.3297 6.92578 10.5822 6.92578C8.83452 6.92578 7.41797 8.34247 7.41797 10.09C7.41797 11.8376 8.83452 13.2542 10.5822 13.2542C11.2652 13.2542 11.8938 13.0328 12.411 12.6646L13.1629 13.4165L13.1624 13.4168C12.9565 13.6228 12.9565 13.9566 13.1624 14.1628L16.1647 17.1649C16.576 17.5763 17.2455 17.5755 17.6563 17.1649C18.0672 16.754 18.0672 16.0845 17.6563 15.6735L14.654 12.6712Z" fill="#223B55"/>
</g>
<defs>
<clipPath id="clip0">
<rect width="18" height="18" fill="white"/>
</clipPath>
</defs>
</svg>
