<svg width="18" height="18" viewBox="0 0 18 18" fill="none" xmlns="http://www.w3.org/2000/svg">
<g clip-path="url(#clip0)">
<path d="M2.97561 5.30435H15.0221C16.4869 5.30435 17.6742 4.11701 17.6742 2.65217C17.6742 1.18733 16.4873 0 15.0224 0H2.97561C1.51116 0 0.324219 1.18733 0.324219 2.65217C0.324219 4.11662 1.51155 5.30435 2.97561 5.30435ZM2.97561 1.61046C3.54945 1.61046 4.01457 2.07597 4.01457 2.64982C4.01457 3.22366 3.54906 3.68878 2.97561 3.68878C2.40176 3.68878 1.93625 3.22327 1.93625 2.64982C1.93703 2.07597 2.40215 1.61046 2.97561 1.61046Z" fill="#223B55"/>
<path d="M15.0228 12.6963H2.976C1.51116 12.6963 0.324219 13.8836 0.324219 15.3489C0.324219 16.8133 1.51155 18.0006 2.976 18.0006H15.0224C16.4873 18.0006 17.6746 16.8137 17.6746 15.3489C17.6754 13.884 16.4877 12.6963 15.0228 12.6963ZM2.976 16.3811C2.40215 16.3811 1.93664 15.9152 1.93664 15.3422C1.93664 14.7683 2.40215 14.3032 2.976 14.3032C3.54985 14.3032 4.01497 14.7687 4.01497 15.3422C4.01536 15.9156 3.54985 16.3811 2.976 16.3811Z" fill="#223B55"/>
<path d="M15.0228 6.36475H2.976C1.51116 6.36475 0.324219 7.55208 0.324219 9.01692C0.324219 10.4818 1.51116 11.6695 2.976 11.6695H15.0224C16.4873 11.6695 17.6746 10.4821 17.6746 9.01692C17.6754 7.55247 16.4877 6.36475 15.0228 6.36475ZM2.976 10.017C2.40215 10.017 1.93664 9.55151 1.93664 8.97806C1.93664 8.40421 2.40215 7.93909 2.976 7.93909C3.54985 7.93909 4.01497 8.40461 4.01497 8.97806C4.01497 9.55151 3.54985 10.017 2.976 10.017Z" fill="#223B55"/>
</g>
<defs>
<clipPath id="clip0">
<rect width="18" height="18" fill="white"/>
</clipPath>
</defs>
</svg>
