<svg width="16" height="16" viewBox="0 0 16 16" fill="none" xmlns="http://www.w3.org/2000/svg">
<path d="M15.5 13.5002H8.5C8.224 13.5002 8 13.2762 8 13.0002C8 12.7242 8 3.27624 8 3.00024C8 2.72424 8.224 2.50024 8.5 2.50024H15.5C15.776 2.50024 16 2.72424 16 3.00024V13.0002C16 13.2762 15.776 13.5002 15.5 13.5002Z" fill="#ECEFF1"/>
<path d="M10.5 5.50024H8.5C8.224 5.50024 8 5.27624 8 5.00024C8 4.72424 8.224 4.50024 8.5 4.50024H10.5C10.776 4.50024 11 4.72424 11 5.00024C11 5.27624 10.776 5.50024 10.5 5.50024Z" fill="#388E3C"/>
<path d="M10.5 7.50024H8.5C8.224 7.50024 8 7.27624 8 7.00024C8 6.72424 8.224 6.50024 8.5 6.50024H10.5C10.776 6.50024 11 6.72424 11 7.00024C11 7.27624 10.776 7.50024 10.5 7.50024Z" fill="#388E3C"/>
<path d="M10.5 9.50024H8.5C8.224 9.50024 8 9.27624 8 9.00024C8 8.72424 8.224 8.50024 8.5 8.50024H10.5C10.776 8.50024 11 8.72424 11 9.00024C11 9.27624 10.776 9.50024 10.5 9.50024Z" fill="#388E3C"/>
<path d="M10.5 11.5002H8.5C8.224 11.5002 8 11.2762 8 11.0002C8 10.7242 8.224 10.5002 8.5 10.5002H10.5C10.776 10.5002 11 10.7242 11 11.0002C11 11.2762 10.776 11.5002 10.5 11.5002Z" fill="#388E3C"/>
<path d="M13.5 5.50024H12.5C12.224 5.50024 12 5.27624 12 5.00024C12 4.72424 12.224 4.50024 12.5 4.50024H13.5C13.776 4.50024 14 4.72424 14 5.00024C14 5.27624 13.776 5.50024 13.5 5.50024Z" fill="#388E3C"/>
<path d="M13.5 7.50024H12.5C12.224 7.50024 12 7.27624 12 7.00024C12 6.72424 12.224 6.50024 12.5 6.50024H13.5C13.776 6.50024 14 6.72424 14 7.00024C14 7.27624 13.776 7.50024 13.5 7.50024Z" fill="#388E3C"/>
<path d="M13.5 9.50024H12.5C12.224 9.50024 12 9.27624 12 9.00024C12 8.72424 12.224 8.50024 12.5 8.50024H13.5C13.776 8.50024 14 8.72424 14 9.00024C14 9.27624 13.776 9.50024 13.5 9.50024Z" fill="#388E3C"/>
<path d="M13.5 11.5002H12.5C12.224 11.5002 12 11.2762 12 11.0002C12 10.7242 12.224 10.5002 12.5 10.5002H13.5C13.776 10.5002 14 10.7242 14 11.0002C14 11.2762 13.776 11.5002 13.5 11.5002Z" fill="#388E3C"/>
<path d="M8.819 0.61543C8.705 0.52043 8.552 0.47943 8.408 0.50943L0.408 2.00943C0.171 2.05343 0 2.25943 0 2.50043V13.5004C0 13.7404 0.171 13.9474 0.408 13.9914L8.408 15.4914C8.438 15.4974 8.469 15.5004 8.5 15.5004C8.616 15.5004 8.729 15.4604 8.819 15.3854C8.934 15.2904 9 15.1484 9 15.0004V1.00043C9 0.85143 8.934 0.71043 8.819 0.61543Z" fill="#2E7D32"/>
<path d="M6.87651 9.67149L5.29551 7.86449L6.89451 5.80849C7.06451 5.59049 7.02451 5.27649 6.80751 5.10649C6.59051 4.93649 6.27651 4.97649 6.10551 5.19349L4.62451 7.09749L3.37651 5.67149C3.19351 5.46149 2.87751 5.44249 2.67151 5.62449C2.46351 5.80649 2.44251 6.12249 2.62451 6.32949L3.99951 7.90149L2.60551 9.69349C2.43551 9.91149 2.47551 10.2255 2.69251 10.3955C2.78451 10.4665 2.89351 10.5005 3.00051 10.5005C3.14951 10.5005 3.29651 10.4345 3.39551 10.3075L4.67051 8.66749L6.12451 10.3285C6.22351 10.4425 6.36151 10.5005 6.50051 10.5005C6.61751 10.5005 6.73451 10.4595 6.82951 10.3765C7.03751 10.1945 7.05851 9.87849 6.87651 9.67149Z" fill="#FAFAFA"/>
</svg>
