<svg width="18" height="18" viewBox="0 0 18 18" fill="none" xmlns="http://www.w3.org/2000/svg">
<g clip-path="url(#clip0)">
<path d="M2.59375 2L1 5H18L16.4062 2H2.59375Z" fill="#223B55"/>
<path d="M1 5H18V16.5C18 16.7761 17.7761 17 17.5 17H1.5C1.22386 17 1 16.7761 1 16.5V5Z" fill="#223B55"/>
<path d="M1 5H18" stroke="white" stroke-width="0.1"/>
<path d="M11.9945 11.4243H10.8598V13.8328C10.8598 14.0834 10.6565 14.2865 10.4057 14.2865H9.04347C8.79269 14.2865 8.58937 14.0834 8.58937 13.8328V11.4243H7.45475C7.10522 11.4243 6.88674 11.0463 7.06151 10.7439L9.33117 6.81668C9.50594 6.51424 9.94281 6.51424 10.1176 6.81663L12.3877 10.7438C12.5625 11.0462 12.3441 11.4243 11.9945 11.4243Z" fill="white"/>
</g>
<defs>
<clipPath id="clip0">
<rect width="18" height="18" fill="white"/>
</clipPath>
</defs>
</svg>
