<svg width="44" height="34" viewBox="0 0 44 34" fill="none" xmlns="http://www.w3.org/2000/svg">
<path d="M43.276 15.3764C42.614 14.3088 41.444 13.6707 40.1464 13.6707H11.2542C9.82201 13.6707 8.51946 14.478 7.93482 15.728L0.292969 31.7506C0.581466 32.9238 1.67729 33.8003 2.98251 33.8003H33.7217C35.0359 33.8003 36.2371 33.0571 36.8241 31.8812L43.4293 18.6422C43.9508 17.5946 43.8929 16.3738 43.276 15.3764Z" fill="#4888F4"/>
<path d="M6.37923 13.2638C6.9632 12.0141 8.26609 11.2064 9.6986 11.2064H36.9054V7.72652C36.9054 6.29202 35.6952 5.12473 34.2079 5.12473H18.3439C18.3206 5.12473 18.3047 5.11875 18.2987 5.11443L15.4592 1.14427C14.9564 0.439979 14.1258 0.0195312 13.2383 0.0195312H2.91693C1.42891 0.0195312 0.21875 1.18681 0.21875 2.62132V26.1797L6.37923 13.2638Z" fill="#1241CD"/>
</svg>
