<svg width="36" height="36" viewBox="0 0 36 36" fill="none" xmlns="http://www.w3.org/2000/svg">
<path d="M1.68758 1.19173C1.66438 0.92032 1.84086 0.637664 2.11508 0.582117C2.36891 0.543445 2.62625 0.567352 2.88149 0.56243C13.0304 0.561727 23.1786 0.563836 33.3275 0.561024C33.5884 0.57368 33.8949 0.508289 34.1108 0.69532C34.2599 0.812742 34.3175 1.0068 34.3119 1.19032C34.3133 11.4813 34.3119 21.7722 34.3126 32.0631C34.6318 32.0835 35.0206 31.9759 35.2738 32.2291C35.4418 32.3838 35.4418 32.6263 35.4397 32.8373C35.4313 33.5179 35.4453 34.1992 35.4334 34.8806C35.4432 35.2068 35.1303 35.4691 34.8118 35.4367C23.604 35.4374 12.3962 35.4374 1.18836 35.4367C0.869848 35.4684 0.555551 35.2075 0.566098 34.8799C0.556957 34.15 0.564692 33.4202 0.562582 32.6903C0.539379 32.4189 0.716567 32.1363 0.991489 32.0821C1.22141 32.0456 1.45555 32.0645 1.68758 32.0631C1.68758 21.7722 1.68758 11.482 1.68758 1.19173ZM2.81258 1.68743C2.81258 2.6247 2.81258 3.56266 2.81258 4.49993C3.3793 4.50415 3.94602 4.4922 4.51204 4.50415C4.80454 4.49923 5.06258 4.75938 5.05836 5.05118C5.07032 6.10868 5.05696 7.16688 5.06469 8.22509C5.06047 8.40368 5.07454 8.60196 4.96274 8.75454C4.85024 8.92892 4.6386 9.00837 4.4368 8.99923C3.89539 9.00274 3.35399 8.99782 2.81258 8.99993C2.81258 9.9372 2.81258 10.8752 2.81258 11.8124C7.68735 11.8124 12.5628 11.8124 17.4376 11.8124C17.4376 8.43743 17.4376 5.06243 17.4376 1.68743C12.5628 1.68743 7.68735 1.68743 2.81258 1.68743ZM18.5626 1.68743C18.5626 2.6247 18.5626 3.56266 18.5626 4.49993C19.1279 4.50415 19.6932 4.4922 20.2578 4.50345C20.5538 4.49712 20.8154 4.76149 20.8084 5.05681C20.8196 6.1129 20.807 7.1697 20.8147 8.22579C20.8098 8.40509 20.8245 8.60548 20.7106 8.75735C20.5974 8.93102 20.3858 9.00766 20.1847 8.99993C19.644 9.00274 19.1033 8.99782 18.5626 8.99993C18.5626 9.9372 18.5626 10.8752 18.5626 11.8124C23.4374 11.8124 28.3128 11.8124 33.1876 11.8124C33.1876 8.43743 33.1876 5.06243 33.1876 1.68743C28.3128 1.68743 23.4374 1.68743 18.5626 1.68743ZM2.81258 5.62493C2.81258 6.37516 2.81258 7.1247 2.81258 7.87493C3.18735 7.87493 3.56282 7.87493 3.93758 7.87493C3.93758 7.1247 3.93758 6.37516 3.93758 5.62493C3.56282 5.62493 3.18735 5.62493 2.81258 5.62493ZM18.5626 5.62493C18.5626 6.37516 18.5626 7.1247 18.5626 7.87493C18.9374 7.87493 19.3128 7.87493 19.6876 7.87493C19.6876 7.1247 19.6876 6.37516 19.6876 5.62493C19.3121 5.62493 18.9374 5.62493 18.5626 5.62493ZM2.81258 12.9374C2.81258 13.8747 2.81258 14.8127 2.81258 15.7499C3.37789 15.7541 3.94391 15.7422 4.50852 15.7541C4.83477 15.745 5.09422 16.0593 5.06188 16.3764C5.06047 17.4831 5.06821 18.5906 5.05836 19.6973C5.06329 19.9912 4.80243 20.2513 4.50852 20.2457C3.94321 20.2577 3.37789 20.2457 2.81258 20.2499C2.81258 21.0002 2.81258 21.7497 2.81258 22.4999C7.68735 22.4999 12.5628 22.4999 17.4376 22.4999C17.4376 19.3127 17.4376 16.1247 17.4376 12.9374C12.5628 12.9374 7.68735 12.9374 2.81258 12.9374ZM18.5626 12.9374C18.5626 13.8747 18.5626 14.8127 18.5626 15.7499C19.1286 15.7541 19.6946 15.7422 20.2606 15.7541C20.5552 15.7485 20.8147 16.0115 20.8084 16.3054C20.8196 17.3622 20.807 18.419 20.8147 19.4758C20.8098 19.6544 20.8245 19.8534 20.7113 20.0059C20.5988 20.1803 20.3872 20.2584 20.1861 20.2492C19.6447 20.2527 19.104 20.2478 18.5626 20.2499C18.5626 21.0002 18.5626 21.7497 18.5626 22.4999C23.4374 22.4999 28.3128 22.4999 33.1876 22.4999C33.1876 19.3127 33.1876 16.1247 33.1876 12.9374C28.3128 12.9374 23.4374 12.9374 18.5626 12.9374ZM2.81258 16.8749C2.81258 17.6252 2.81258 18.3747 2.81258 19.1249C3.18735 19.1249 3.56282 19.1249 3.93758 19.1249C3.93758 18.3747 3.93758 17.6252 3.93758 16.8749C3.56282 16.8749 3.18735 16.8749 2.81258 16.8749ZM18.5626 16.8749C18.5626 17.6252 18.5626 18.3747 18.5626 19.1249C18.9374 19.1249 19.3121 19.1249 19.6876 19.1249C19.6876 18.3747 19.6876 17.6252 19.6876 16.8749C19.3128 16.8749 18.9374 16.8749 18.5626 16.8749ZM2.81258 23.6249C2.81258 24.3752 2.81258 25.1247 2.81258 25.8749C3.37719 25.8792 3.9418 25.8672 4.50571 25.8784C4.80243 25.8707 5.0661 26.1351 5.05907 26.4318C5.06961 27.4654 5.05696 28.5004 5.06469 29.534C5.06329 29.6725 5.06821 29.8131 5.04149 29.9502C4.98946 30.1914 4.75532 30.3735 4.50852 30.3707C3.94321 30.3827 3.37789 30.3707 2.81258 30.3749C2.81258 30.9374 2.81258 31.4999 2.81258 32.0624C7.68735 32.0624 12.5628 32.0624 17.4376 32.0624C17.4376 29.2499 17.4376 26.4374 17.4376 23.6249C12.5628 23.6249 7.68735 23.6249 2.81258 23.6249ZM18.5626 23.6249C18.5626 24.3752 18.5626 25.1247 18.5626 25.8749C19.1033 25.877 19.644 25.8721 20.1847 25.8749C20.3858 25.8658 20.5974 25.9424 20.7106 26.1168C20.8252 26.2694 20.8098 26.4698 20.8147 26.6505C20.807 27.708 20.8203 28.7662 20.8084 29.823C20.8126 30.1162 20.5531 30.3756 20.2606 30.3707C19.6946 30.3834 19.1286 30.37 18.5626 30.3749C18.5626 30.9374 18.5626 31.4999 18.5626 32.0624C23.4374 32.0624 28.3128 32.0624 33.1876 32.0624C33.1876 29.2499 33.1876 26.4374 33.1876 23.6249C28.3128 23.6249 23.4374 23.6249 18.5626 23.6249ZM2.81258 26.9999C2.81258 27.7502 2.81258 28.4997 2.81258 29.2499C3.18735 29.2499 3.56282 29.2499 3.93758 29.2499C3.93758 28.4997 3.93758 27.7502 3.93758 26.9999C3.56282 26.9999 3.18735 26.9999 2.81258 26.9999ZM18.5626 26.9999C18.5626 27.7502 18.5626 28.4997 18.5626 29.2499C18.9374 29.2499 19.3128 29.2499 19.6876 29.2499C19.6876 28.4997 19.6876 27.7502 19.6876 26.9999C19.3128 26.9999 18.9374 26.9999 18.5626 26.9999ZM1.68758 33.1874C1.68758 33.5622 1.68758 33.937 1.68758 34.3124C12.5628 34.3124 23.4374 34.3124 34.3126 34.3124C34.3126 33.937 34.3126 33.5622 34.3126 33.1874C23.4374 33.1874 12.5628 33.1874 1.68758 33.1874Z" fill="#828282"/>
<path d="M7.68742 2.84592C7.8168 2.80654 7.9532 2.81287 8.0868 2.81006C9.51836 2.81779 10.9499 2.80514 12.3815 2.81568C12.6761 2.80865 12.9391 3.07021 12.9334 3.36482C12.9412 4.12139 12.9412 4.87865 12.9334 5.63451C12.9384 5.92771 12.6775 6.18857 12.3843 6.18295C10.9281 6.19349 9.47125 6.18224 8.01508 6.18857C7.80977 6.19701 7.57984 6.15904 7.44625 5.98607C7.28664 5.81099 7.31547 5.55998 7.31055 5.34201C7.31898 4.68389 7.30492 4.02576 7.31617 3.36834C7.31336 3.13771 7.46875 2.91834 7.68742 2.84592ZM8.43766 3.93717C8.43766 4.31193 8.43766 4.6874 8.43766 5.06217C9.56266 5.06217 10.6877 5.06217 11.8127 5.06217C11.8127 4.6874 11.8127 4.31193 11.8127 3.93717C10.6877 3.93717 9.56266 3.93717 8.43766 3.93717Z" fill="#828282"/>
<path d="M23.4353 2.84689C23.5415 2.81244 23.654 2.81455 23.7651 2.81104C25.1966 2.81455 26.6289 2.81104 28.0612 2.81244C28.2433 2.80682 28.4366 2.86447 28.5534 3.01283C28.713 3.18791 28.6848 3.43893 28.6898 3.6576C28.6813 4.31572 28.6961 4.97455 28.6834 5.63268C28.6898 5.92799 28.4268 6.18955 28.1322 6.18322C26.6767 6.19377 25.2205 6.18252 23.7651 6.18885C23.5584 6.19728 23.3284 6.15932 23.1948 5.98494C23.0373 5.81127 23.0648 5.56236 23.0605 5.3465C23.069 4.68627 23.0542 4.02603 23.0669 3.3658C23.0641 3.13658 23.2195 2.92002 23.4353 2.84689ZM24.1877 3.93744C24.1877 4.31221 24.1877 4.68768 24.1877 5.06244C25.3127 5.06244 26.4377 5.06244 27.5627 5.06244C27.5627 4.68768 27.5627 4.31221 27.5627 3.93744C26.4377 3.93744 25.3127 3.93744 24.1877 3.93744Z" fill="#828282"/>
<path d="M7.68835 14.0955C7.79312 14.0624 7.90351 14.0638 8.01249 14.061C9.44406 14.0646 10.8756 14.061 12.3065 14.0624C12.4921 14.0561 12.6869 14.1138 12.805 14.2649C12.9618 14.4393 12.9344 14.6896 12.9393 14.9069C12.9309 15.5664 12.9463 16.2267 12.933 16.8862C12.9344 17.1337 12.7501 17.3671 12.5076 17.4178C12.3712 17.4431 12.2312 17.4381 12.0934 17.4396C10.6851 17.4318 9.27601 17.4445 7.86765 17.4332C7.57445 17.4396 7.31148 17.1815 7.3164 16.8876C7.30585 16.1549 7.31429 15.4223 7.31218 14.6896C7.2932 14.4365 7.44085 14.1749 7.68835 14.0955ZM8.43718 15.1874C8.43718 15.5622 8.43718 15.9377 8.43718 16.3124C9.56218 16.3124 10.6872 16.3124 11.8122 16.3124C11.8122 15.9377 11.8122 15.5622 11.8122 15.1874C10.6872 15.1874 9.56218 15.1874 8.43718 15.1874Z" fill="#828282"/>
<path d="M23.4335 14.0973C23.5635 14.0558 23.7021 14.0636 23.8378 14.0601C25.2686 14.0678 26.7002 14.0551 28.131 14.0657C28.4263 14.0587 28.6893 14.3209 28.683 14.6162C28.6907 15.3707 28.69 16.1258 28.683 16.8803C28.6921 17.2065 28.3806 17.4681 28.0621 17.4365C26.6038 17.4379 25.1449 17.4379 23.6866 17.4365C23.3695 17.4681 23.0573 17.2079 23.0664 16.8824C23.0566 16.1519 23.0643 15.4206 23.0622 14.6901C23.0432 14.4383 23.1881 14.1782 23.4335 14.0973ZM24.1872 15.1872C24.1872 15.5619 24.1872 15.9374 24.1872 16.3122C25.3122 16.3122 26.4372 16.3122 27.5622 16.3122C27.5622 15.9374 27.5622 15.5619 27.5622 15.1872C26.4372 15.1872 25.3122 15.1872 24.1872 15.1872Z" fill="#828282"/>
<path d="M7.68812 24.7837C7.79359 24.7499 7.90469 24.7513 8.01367 24.7485C9.44523 24.7521 10.8775 24.7485 12.3091 24.7499C12.4919 24.7443 12.6852 24.8006 12.8027 24.9489C12.9623 25.1233 12.9355 25.3743 12.9398 25.593C12.9313 26.2525 12.9461 26.9128 12.9334 27.5716C12.9412 27.8978 12.6269 28.1573 12.3098 28.1242C10.8536 28.1256 9.39812 28.1249 7.94195 28.1249C7.75773 28.1299 7.56297 28.0729 7.44555 27.9231C7.28664 27.7481 7.31477 27.4963 7.31055 27.2791C7.31898 26.6203 7.30422 25.9614 7.31687 25.3033C7.31406 25.0734 7.47016 24.8547 7.68812 24.7837ZM8.43766 25.8749C8.43766 26.2497 8.43766 26.6245 8.43766 26.9999C9.56266 26.9999 10.6877 26.9999 11.8127 26.9999C11.8127 26.6245 11.8127 26.2497 11.8127 25.8749C10.6877 25.8749 9.56266 25.8749 8.43766 25.8749Z" fill="#828282"/>
<path d="M23.4349 24.7844C23.5424 24.7499 23.657 24.7513 23.7688 24.7485C25.1983 24.7521 26.6277 24.7485 28.0579 24.7499C28.2414 24.7436 28.4362 24.8006 28.5536 24.9503C28.7111 25.124 28.6851 25.3722 28.6893 25.5888C28.6809 26.2504 28.6963 26.9128 28.683 27.5737C28.6872 27.8676 28.4256 28.1271 28.1324 28.1207C26.651 28.1299 25.1695 28.1228 23.688 28.1242C23.3723 28.1559 23.0594 27.8992 23.0664 27.5758C23.0559 26.8424 23.0643 26.1098 23.0622 25.3771C23.0432 25.1247 23.1888 24.8638 23.4349 24.7844ZM24.1872 25.8749C24.1872 26.2497 24.1872 26.6245 24.1872 26.9999C25.3122 26.9999 26.4372 26.9999 27.5622 26.9999C27.5622 26.6252 27.5622 26.2497 27.5622 25.8749C26.4372 25.8749 25.3122 25.8749 24.1872 25.8749Z" fill="#828282"/>
</svg>
