<svg width="40" height="40" viewBox="0 0 40 40" fill="none" xmlns="http://www.w3.org/2000/svg">
<g clip-path="url(#clip0_2215:2076)">
<path d="M34.5944 18.4766C35.7657 17.6535 36.5414 16.2843 36.5414 14.7409C36.5414 12.2162 34.4994 10.1742 31.9747 10.1742C29.4499 10.1742 27.408 12.2162 27.408 14.7409C27.408 16.2843 28.1757 17.6535 29.355 18.4766C28.3498 18.8248 27.4317 19.363 26.6561 20.0595C25.5877 19.1493 24.3292 18.4528 22.9521 18.0413C24.6221 17.0282 25.7459 15.1841 25.7459 13.0868C25.7459 9.88932 23.1579 7.30127 19.9604 7.30127C16.763 7.30127 14.1749 9.89723 14.1749 13.0868C14.1749 15.1841 15.2909 17.0282 16.9687 18.0413C15.6074 18.4528 14.3649 19.1414 13.3043 20.0357C12.5287 19.3551 11.6264 18.8248 10.6371 18.4845C11.8085 17.6614 12.5841 16.2922 12.5841 14.7488C12.5841 12.2241 10.5421 10.1822 8.01741 10.1822C5.49268 10.1822 3.45073 12.2241 3.45073 14.7488C3.45073 16.2922 4.21844 17.6614 5.3977 18.4845C2.25564 19.5688 0 22.5526 0 26.0587V26.581C0 26.5969 0.015829 26.6127 0.0316581 26.6127H9.71112C9.65572 27.048 9.62406 27.4991 9.62406 27.9503V28.4884C9.62406 30.8153 11.5077 32.699 13.8346 32.699H26.1021C28.429 32.699 30.3126 30.8153 30.3126 28.4884V27.9503C30.3126 27.4991 30.281 27.048 30.2256 26.6127H39.9683C39.9842 26.6127 40 26.5969 40 26.581V26.0587C39.9842 22.5446 37.7364 19.5609 34.5944 18.4766ZM28.6743 14.733C28.6743 12.9127 30.1543 11.4327 31.9747 11.4327C33.795 11.4327 35.275 12.9127 35.275 14.733C35.275 16.5296 33.8267 17.9938 32.038 18.0334C32.0142 18.0334 31.9984 18.0334 31.9747 18.0334C31.9509 18.0334 31.9351 18.0334 31.9114 18.0334C30.1148 18.0017 28.6743 16.5375 28.6743 14.733ZM15.4254 13.0868C15.4254 10.5937 17.4515 8.56759 19.9446 8.56759C22.4377 8.56759 24.4638 10.5937 24.4638 13.0868C24.4638 15.4928 22.5722 17.4635 20.2058 17.5981C20.1187 17.5981 20.0317 17.5981 19.9446 17.5981C19.8575 17.5981 19.7705 17.5981 19.6834 17.5981C17.317 17.4635 15.4254 15.4928 15.4254 13.0868ZM4.69331 14.733C4.69331 12.9127 6.17333 11.4327 7.99367 11.4327C9.81401 11.4327 11.294 12.9127 11.294 14.733C11.294 16.5296 9.84567 17.9938 8.05698 18.0334C8.03324 18.0334 8.01741 18.0334 7.99367 18.0334C7.96992 18.0334 7.9541 18.0334 7.93035 18.0334C6.14167 18.0017 4.69331 16.5375 4.69331 14.733ZM9.93273 25.3385H1.28215C1.63831 21.9669 4.48753 19.3234 7.94618 19.2997C7.96201 19.2997 7.97784 19.2997 7.99367 19.2997C8.0095 19.2997 8.02533 19.2997 8.04115 19.2997C9.68738 19.3076 11.1911 19.917 12.3546 20.9063C11.2149 22.141 10.368 23.6606 9.93273 25.3385ZM29.0305 28.4884C29.0305 30.1109 27.7087 31.4326 26.0863 31.4326H13.8188C12.1963 31.4326 10.8746 30.1109 10.8746 28.4884V27.9503C10.8746 23.0353 14.8002 19.0148 19.6834 18.8723C19.7705 18.8802 19.8655 18.8802 19.9525 18.8802C20.0396 18.8802 20.1345 18.8802 20.2216 18.8723C25.1049 19.0148 29.0305 23.0353 29.0305 27.9503V28.4884ZM29.9723 25.3385C29.537 23.6685 28.706 22.1727 27.5742 20.938C28.7455 19.9249 30.2651 19.3155 31.9272 19.2997C31.943 19.2997 31.9588 19.2997 31.9747 19.2997C31.9905 19.2997 32.0063 19.2997 32.0222 19.2997C35.4808 19.3234 38.33 21.9669 38.6862 25.3385H29.9723Z" fill="#007BFF"/>
</g>
<defs>
<clipPath id="clip0_2215:2076">
<rect width="40" height="40" fill="white"/>
</clipPath>
</defs>
</svg>
