<svg width="36" height="36" viewBox="0 0 36 36" fill="none" xmlns="http://www.w3.org/2000/svg">
<path d="M35.9798 7.776C35.973 7.6995 35.9572 7.6275 35.9347 7.55325C35.9123 7.479 35.8853 7.4115 35.8493 7.344C35.8335 7.31475 35.8312 7.27875 35.811 7.2495L31.311 0.4995C31.1018 0.189 30.7507 0 30.375 0H5.625C5.24925 0 4.89825 0.189 4.689 0.50175L0.189 7.25175C0.16875 7.281 0.1665 7.31475 0.15075 7.34625C0.11475 7.41375 0.08775 7.48125 0.06525 7.5555C0.04275 7.62975 0.027 7.70175 0.02025 7.77825C0.01575 7.80975 0 7.839 0 7.875V33.75C0 34.992 1.01025 36 2.25 36H33.75C34.9897 36 36 34.992 36 33.75V7.875C36 7.839 35.9842 7.80975 35.9798 7.776ZM29.772 2.25L32.7735 6.75H22.329L21.5775 2.25H29.772ZM16.7017 2.25H19.296L20.0475 6.75H15.9525L16.7017 2.25ZM15.75 9H20.25V13.0658L18.3555 12.4313C18.1238 12.357 17.874 12.357 17.6445 12.4313L15.75 13.0658V9ZM6.228 2.25H14.4225L13.671 6.75H3.2265L6.228 2.25ZM33.75 34.875V33.75H2.25V9H13.5V14.625C13.5 14.9873 13.6733 15.327 13.968 15.5363C14.2605 15.75 14.6362 15.7995 14.9805 15.6937L18 14.6858L21.0195 15.6915C21.1365 15.7297 21.2558 15.75 21.375 15.75C21.609 15.75 21.8385 15.678 22.032 15.5363C22.3267 15.327 22.5 14.9873 22.5 14.625V9H33.75V33.75C33.75 33.75 33.75 33.75 33.7523 33.75L33.75 34.875Z" fill="#EE0033"/>
<path d="M12.375 24.75H5.625C5.004 24.75 4.5 25.254 4.5 25.875C4.5 26.496 5.004 27 5.625 27H12.375C12.996 27 13.5 26.496 13.5 25.875C13.5 25.254 12.996 24.75 12.375 24.75Z" fill="#EE0033"/>
<path d="M9 29.25H5.625C5.004 29.25 4.5 29.754 4.5 30.375C4.5 30.996 5.004 31.5 5.625 31.5H9C9.621 31.5 10.125 30.996 10.125 30.375C10.125 29.754 9.621 29.25 9 29.25Z" fill="#EE0033"/>
</svg>
