<svg width="19" height="19" viewBox="0 0 19 19" fill="none" xmlns="http://www.w3.org/2000/svg">
<path d="M10.3158 1.49842C10.0953 1.28997 9.80342 1.17383 9.5 1.17383C9.19658 1.17383 8.90467 1.28997 8.68419 1.49842L2.93194 6.9348C2.75581 7.10147 2.61557 7.30234 2.5198 7.52512C2.42403 7.74789 2.37476 7.98787 2.375 8.23036V14.8447C2.37532 15.3169 2.56312 15.7697 2.89714 16.1035C3.23115 16.4373 3.68404 16.6248 4.15625 16.6248H5.9375C6.40992 16.6248 6.86299 16.4371 7.19704 16.1031C7.53109 15.769 7.71875 15.316 7.71875 14.8435V11.8748C7.71875 11.7173 7.78131 11.5663 7.89266 11.455C8.00401 11.3436 8.15503 11.281 8.3125 11.281H10.6875C10.845 11.281 10.996 11.3436 11.1073 11.455C11.2187 11.5663 11.2813 11.7173 11.2813 11.8748V14.8435C11.2813 15.316 11.4689 15.769 11.803 16.1031C12.137 16.4371 12.5901 16.6248 13.0625 16.6248H14.8438C15.3162 16.6248 15.7692 16.4371 16.1033 16.1031C16.4373 15.769 16.625 15.316 16.625 14.8435V8.22917C16.6249 7.9868 16.5754 7.74699 16.4794 7.52443C16.3835 7.30186 16.2431 7.10123 16.0669 6.9348L10.3158 1.49605V1.49842Z" fill="#223B55"/>
</svg>
