<svg width="33" height="44" viewBox="0 0 33 44" fill="none" xmlns="http://www.w3.org/2000/svg">
<g clip-path="url(#clip0_2401:71049)">
<path d="M16 1C7.73139 1 1 7.98818 1 16.5722C1 27.2309 14.4223 42.8787 14.9968 43.5338C15.5307 44.1554 16.4693 44.1554 17.0032 43.5338C17.5777 42.8703 31 27.2309 31 16.5722C31 7.98818 24.2686 1 16 1Z" fill="#FF0000" stroke="#990000" stroke-width="0.34375" stroke-miterlimit="10"/>
<path fill-rule="evenodd" clip-rule="evenodd" d="M5.82354 28.5312C5.73884 28.5312 5.05199 28.5662 4.96729 28.5742C5.04181 28.7125 5.12688 28.8587 5.2101 29.0017C5.38234 29.2976 5.54664 29.5799 5.59309 29.7503L5.68921 29.9184C5.74435 29.9245 5.79806 29.93 5.85178 29.93C6.92521 29.93 7.99785 29.9309 9.06997 29.9318C11.2126 29.9335 13.3532 29.9353 15.4938 29.93C16.0938 29.93 16.5949 30.1538 17.0255 30.6573C17.6373 31.3767 18.2553 32.089 18.8734 32.8013C19.1824 33.1573 19.4913 33.5134 19.7995 33.8704C19.8397 33.9158 19.8658 33.9929 19.878 34.0288C19.8808 34.0371 19.8829 34.0432 19.8842 34.0462C20.5348 33.2951 21.1752 32.5571 21.808 31.8278C22.569 30.9508 23.3191 30.0863 24.0629 29.2266C23.9749 29.2266 23.883 29.2254 23.7885 29.2241C23.5418 29.2208 23.2765 29.2173 23.0112 29.2346C22.5806 29.2666 22.2136 29.4904 21.903 29.8501C21.7012 30.0892 21.4962 30.3249 21.2923 30.5593C21.1895 30.6774 21.0871 30.7953 20.9854 30.9131L19.9831 32.072C19.9125 32.0001 19.856 31.9362 19.7995 31.8722C19.0372 31.001 18.2819 30.1298 17.5267 29.2506C17.1102 28.763 16.6232 28.5312 16.0303 28.5312H5.82354Z" fill="white"/>
<path d="M27.8494 28.5742C26.3247 28.5742 24.7552 28.5885 23.2306 28.5805C22.6447 28.5805 22.1647 28.8043 21.7553 29.2838C21.233 29.9073 20.6895 30.5147 20.1601 31.1302C20.1036 31.1941 20.0754 31.282 20.0471 31.33C18.8189 29.9073 17.6331 28.5485 16.4473 27.1817C17.2802 27.1258 18.1131 27.0858 18.7554 27.9331C19.1295 28.4206 19.546 28.8602 20.0048 29.3877C20.0824 29.2678 20.146 29.14 20.2307 29.0441C20.5765 28.6284 20.9365 28.2288 21.2895 27.8212C21.6565 27.4055 22.1012 27.1737 22.6094 27.1658C24.3388 27.1578 28.5375 27.2422 28.5375 27.2422C28.5375 27.2422 28.5005 27.3563 28.4085 27.543C28.2597 27.845 28.0088 28.3087 27.8494 28.5742Z" fill="white"/>
<path d="M15.6344 23.25C20.9553 23.25 25.2688 18.9407 25.2688 13.625C25.2688 8.30926 20.9553 4 15.6344 4C10.3135 4 6 8.30926 6 13.625C6 18.9407 10.3135 23.25 15.6344 23.25Z" fill="white"/>
<path d="M21.9513 18.9883H21.5295V13.0353H21.784C22.0428 13.0353 22.2527 12.8088 22.2527 12.5294C22.2527 12.2501 22.0428 12.0236 21.784 12.0236H21.0648C21.0634 12.0236 21.0623 12.0227 21.0609 12.0227H16.0087V10.7733C16.0087 10.6468 15.9618 10.5204 15.8775 10.4243L13.8669 8.14796C13.6888 7.95068 13.3655 7.95068 13.1874 8.14796L11.1721 10.4243C11.0877 10.5204 11.0456 10.6468 11.0456 10.7733V18.9883H10.8769C10.618 18.9883 10.4082 19.2148 10.4082 19.4942C10.4082 19.7735 10.618 20 10.8769 20H21.9513C22.2101 20 22.4199 19.7735 22.4199 19.4942C22.4199 19.2148 22.2101 18.9883 21.9513 18.9883ZM19.847 15.4473H20.4985C20.5781 15.4473 20.6437 15.513 20.6437 15.599V16.3325C20.6437 16.4185 20.5781 16.4843 20.4985 16.4843H19.847C19.7674 16.4843 19.7064 16.4185 19.7064 16.3325V15.599C19.7064 15.513 19.7674 15.4473 19.847 15.4473ZM19.7064 14.2484V13.52C19.7064 13.434 19.7674 13.3632 19.847 13.3632H20.4985C20.5781 13.3632 20.6437 13.434 20.6437 13.52V14.2484C20.6437 14.3344 20.5781 14.4052 20.4985 14.4052H19.847C19.7674 14.4052 19.7064 14.3344 19.7064 14.2484ZM19.847 17.5263H20.4985C20.5781 17.5263 20.6437 17.5971 20.6437 17.6831V18.4166C20.6437 18.4975 20.5781 18.5683 20.4985 18.5683H19.847C19.7674 18.5683 19.7064 18.4975 19.7064 18.4166V17.6831C19.7064 17.5971 19.7674 17.5263 19.847 17.5263ZM18.0661 13.52C18.0661 13.434 18.127 13.3632 18.2067 13.3632H18.8581C18.9378 13.3632 19.0034 13.434 19.0034 13.52V14.2484C19.0034 14.3344 18.9378 14.4052 18.8581 14.4052H18.2067C18.127 14.4052 18.0661 14.3344 18.0661 14.2484V13.52ZM18.0661 15.599C18.0661 15.513 18.127 15.4473 18.2067 15.4473H18.8581C18.9378 15.4473 19.0034 15.513 19.0034 15.599V16.3325C19.0034 16.4185 18.9378 16.4843 18.8581 16.4843H18.2067C18.127 16.4843 18.0661 16.4185 18.0661 16.3325V15.599ZM18.0661 17.6831C18.0661 17.5971 18.127 17.5263 18.2067 17.5263H18.8581C18.9378 17.5263 19.0034 17.5971 19.0034 17.6831V18.4166C19.0034 18.4975 18.9378 18.5683 18.8581 18.5683H18.2067C18.127 18.5683 18.0661 18.4975 18.0661 18.4166V17.6831ZM16.4258 13.52C16.4258 13.434 16.4867 13.3632 16.5664 13.3632H17.2178C17.2975 13.3632 17.3631 13.434 17.3631 13.52V14.2484C17.3631 14.3344 17.2975 14.4052 17.2178 14.4052H16.5664C16.4867 14.4052 16.4258 14.3344 16.4258 14.2484V13.52ZM16.4258 15.599C16.4258 15.513 16.4867 15.4473 16.5664 15.4473H17.2178C17.2975 15.4473 17.3631 15.513 17.3631 15.599V16.3325C17.3631 16.4185 17.2975 16.4843 17.2178 16.4843H16.5664C16.4867 16.4843 16.4258 16.4185 16.4258 16.3325V15.599ZM16.4258 17.6831C16.4258 17.5971 16.4867 17.5263 16.5664 17.5263H17.2178C17.2975 17.5263 17.3631 17.5971 17.3631 17.6831V18.4166C17.3631 18.4975 17.2975 18.5683 17.2178 18.5683H16.5664C16.4867 18.5683 16.4258 18.4975 16.4258 18.4166V17.6831ZM13.5248 10.0095C13.8482 10.0095 14.1106 10.2877 14.1106 10.6418C14.1106 10.9908 13.8482 11.269 13.5248 11.269C13.2014 11.269 12.939 10.9908 12.939 10.6418C12.939 10.2877 13.2014 10.0095 13.5248 10.0095ZM13.5248 12.5336C13.8482 12.5336 14.1106 12.8169 14.1106 13.1659C14.1106 13.515 13.8482 13.7932 13.5248 13.7932C13.2014 13.7932 12.939 13.515 12.939 13.1659C12.939 12.8169 13.2014 12.5336 13.5248 12.5336ZM12.5922 16.7675C12.5922 16.2111 13.0093 15.7609 13.5248 15.7609C14.0403 15.7609 14.4574 16.2111 14.4574 16.7675V18.9883H12.5922V16.7675Z" fill="#5C2E32"/>
</g>
<defs>
<clipPath id="clip0_2401:71049">
<rect width="32" height="44" fill="white" transform="translate(0.408203)"/>
</clipPath>
</defs>
</svg>
