<svg width="18" height="16" viewBox="0 0 18 16" fill="none" xmlns="http://www.w3.org/2000/svg">
<path d="M1.07681 0H6.92095C7.5045 0.0171875 8.00971 0.511563 7.99909 1.06219C8.00075 5.67719 7.99942 10.2922 7.99975 14.9072C8.00706 15.2319 7.85105 15.5569 7.58085 15.76C7.39596 15.9047 7.16061 15.9841 6.92228 16H1.08013C0.7545 15.9828 0.439157 15.8322 0.240325 15.5881C0.103565 15.4284 0.0302065 15.23 0 15.0291V0.979375C0.0285468 0.760312 0.114187 0.545 0.269867 0.3775C0.468699 0.153437 0.768441 0.0175 1.07681 0ZM2.30499 1.8925C2.04674 1.93656 1.85787 2.19437 1.91363 2.43719C1.95413 2.66062 2.18417 2.83 2.42349 2.82063C3.57333 2.82031 4.72351 2.82219 5.87368 2.81969C6.14023 2.82125 6.37325 2.5925 6.36296 2.3425C6.36263 2.10125 6.13724 1.885 5.88032 1.88406C4.77197 1.88219 3.66362 1.88437 2.55494 1.88312C2.47163 1.88375 2.38731 1.87875 2.30499 1.8925ZM2.23329 3.79469C1.99031 3.87219 1.8426 4.14469 1.92857 4.37437C1.99064 4.57219 2.20375 4.70969 2.42084 4.70375C3.57201 4.70375 4.72284 4.70563 5.87368 4.70281C6.1296 4.70219 6.35731 4.49312 6.36263 4.25187C6.37856 3.99875 6.14255 3.76219 5.87169 3.76688C4.76666 3.76625 3.6613 3.76719 2.55594 3.76656C2.44806 3.7675 2.33619 3.75688 2.23329 3.79469ZM2.23628 5.67688C2.01853 5.74625 1.87314 5.96937 1.90965 6.18344C1.94052 6.40187 2.15197 6.58219 2.38665 6.58437C3.53914 6.58687 4.69164 6.58438 5.84414 6.58563C6.00645 6.59063 6.17043 6.51906 6.26537 6.39406C6.38088 6.25031 6.39516 6.04344 6.29823 5.88781C6.2096 5.73406 6.02504 5.64156 5.84082 5.64781C4.74608 5.64781 3.65134 5.64844 2.5566 5.6475C2.44972 5.64844 2.33852 5.64 2.23628 5.67688ZM2.00757 8.48875C1.79712 8.53875 1.6368 8.73031 1.6368 8.93531C1.63547 9.56094 1.6368 10.1866 1.63613 10.8122C1.63049 11.0031 1.76028 11.1894 1.94982 11.2581C2.26416 11.3931 2.6512 11.1331 2.63195 10.8122C2.63195 10.1878 2.63295 9.56313 2.63129 8.93875C2.63925 8.645 2.30765 8.40281 2.00757 8.48875ZM2.96854 13.2078C2.72689 13.2831 2.57718 13.5506 2.65751 13.78C2.7166 13.98 2.92937 14.125 3.14978 14.1169C3.81532 14.1162 4.48086 14.1175 5.1464 14.1159C5.41792 14.1166 5.65161 13.8763 5.6307 13.6222C5.62041 13.3856 5.39701 13.1806 5.14474 13.1803C4.50277 13.1772 3.86046 13.1809 3.21816 13.1784C3.13418 13.1784 3.04787 13.1791 2.96854 13.2078Z" fill="#4D4D4D" stroke="black" stroke-width="0.4"/>
<path d="M10.5764 0H16.4215C16.7143 0.0165625 17.0001 0.138125 17.1983 0.343125C17.3788 0.524375 17.4821 0.766563 17.5 1.01344V15.0194C17.4675 15.2887 17.338 15.5509 17.1183 15.7303C16.9281 15.8922 16.6775 15.9834 16.4225 16H10.5791C10.2933 15.9831 10.0141 15.8678 9.81692 15.6709C9.6078 15.4694 9.49394 15.1869 9.50025 14.9056C9.50025 10.3022 9.50025 5.69844 9.50025 1.095C9.49394 0.812813 9.6078 0.529375 9.81858 0.327188C10.0148 0.131875 10.2926 0.016875 10.5764 0ZM11.8066 1.89219C11.4959 1.94094 11.3037 2.29937 11.4587 2.56094C11.5427 2.7225 11.7315 2.82531 11.9218 2.82063C13.0723 2.82031 14.2224 2.82219 15.3726 2.81969C15.6391 2.82188 15.8725 2.59344 15.8632 2.34375C15.8635 2.10094 15.6358 1.88313 15.3769 1.88406C14.2706 1.88219 13.1642 1.88406 12.0578 1.88312C11.9739 1.88375 11.8892 1.87875 11.8066 1.89219ZM11.7339 3.79437C11.4892 3.8725 11.3412 4.14813 11.4301 4.37844C11.4939 4.57406 11.7053 4.70969 11.9208 4.70375C13.0709 4.70375 14.2214 4.70531 15.3716 4.70312C15.6285 4.70344 15.8579 4.49375 15.8629 4.25156C15.8785 4 15.6455 3.765 15.3766 3.76688C14.2702 3.76594 13.1632 3.76719 12.0568 3.76656C11.9486 3.7675 11.8368 3.75687 11.7339 3.79437ZM11.7362 5.67688C11.4594 5.76125 11.317 6.09563 11.463 6.33469C11.549 6.4925 11.7355 6.5925 11.9234 6.58563C13.0742 6.58469 14.2251 6.58625 15.3759 6.58469C15.6342 6.58563 15.8622 6.36937 15.8632 6.12687C15.8738 5.87656 15.6408 5.64688 15.3739 5.64906C14.2563 5.64625 13.1386 5.64938 12.0213 5.6475C11.9257 5.64781 11.8268 5.64375 11.7362 5.67688ZM11.5068 8.48906C11.2831 8.54187 11.1224 8.75344 11.1364 8.96937C11.137 9.58375 11.1364 10.1981 11.1364 10.8128C11.1151 11.1472 11.5354 11.4072 11.8507 11.245C12.0243 11.1684 12.1362 10.9909 12.1322 10.8116C12.1329 10.1969 12.1319 9.5825 12.1325 8.96781C12.1332 8.87813 12.1139 8.78688 12.0651 8.70906C11.9596 8.52875 11.7173 8.43156 11.5068 8.48906ZM12.4671 13.2081C12.3403 13.2509 12.2331 13.3438 12.1793 13.4603C12.0914 13.6372 12.1441 13.8606 12.2965 13.9909C12.3997 14.0837 12.5451 14.1241 12.6859 14.1172C13.2724 14.1159 13.859 14.1169 14.4455 14.1169C14.5816 14.1156 14.7266 14.1309 14.8521 14.0684C15.0695 13.9734 15.1877 13.7162 15.106 13.5028C15.0446 13.3175 14.8505 13.1822 14.644 13.1803C14.0027 13.1772 13.3614 13.1806 12.7201 13.1788C12.6351 13.1784 12.5475 13.1791 12.4671 13.2081Z" fill="#4D4D4D" stroke="black" stroke-width="0.4"/>
</svg>
