<svg width="36" height="36" viewBox="0 0 36 36" fill="none" xmlns="http://www.w3.org/2000/svg">
<path d="M3.54797 0H15.5595C16.4742 0.0590625 17.3566 0.456328 18.0007 1.10883C18.6567 0.446484 19.5588 0.0414844 20.4912 0H32.4485C33.3007 0.0414844 34.1395 0.369141 34.7716 0.946406C35.5099 1.60242 35.9543 2.56219 36 3.54727V32.4492C35.9536 33.5004 35.4473 34.5227 34.6226 35.1787C34.0116 35.6787 33.2374 35.9585 32.4513 36H20.4989C19.5638 35.9606 18.6595 35.5542 18.0007 34.8912C17.3426 35.5549 16.4391 35.9592 15.5046 36H3.54938C2.66484 35.9578 1.7993 35.5985 1.15805 34.9861C0.458437 34.3357 0.0442969 33.4034 0 32.4513V3.55008C0.0428906 2.63109 0.4275 1.72969 1.08492 1.08352C1.73109 0.428203 2.63109 0.0435937 3.54797 0ZM3.3307 2.15086C2.62125 2.30695 2.08195 2.99813 2.10938 3.72586C2.10938 13.242 2.10867 22.758 2.11008 32.2748C2.07211 33.1172 2.81039 33.8906 3.65414 33.8878C7.57055 33.892 11.487 33.8927 15.4027 33.8878C16.2457 33.8899 16.9805 33.1165 16.9446 32.2755C16.946 22.9001 16.9446 13.5246 16.9453 4.14844C16.9439 3.91148 16.9566 3.67242 16.9228 3.43617C16.837 2.87297 16.4187 2.37867 15.8794 2.19727C15.5672 2.08195 15.229 2.11289 14.9034 2.10938C11.3182 2.10938 7.73297 2.10938 4.14773 2.10938C3.87492 2.11219 3.59859 2.0918 3.3307 2.15086ZM20.2788 2.15016C19.5694 2.30555 19.028 2.99602 19.0547 3.72375C19.0547 13.0999 19.0547 22.4768 19.0547 31.853C19.0568 32.1954 19.0266 32.5512 19.1609 32.876C19.388 33.4849 20.018 33.9096 20.6684 33.8906C24.537 33.8906 28.4055 33.8906 32.2741 33.8906C33.1165 33.9265 33.8906 33.191 33.8878 32.3459C33.8941 22.8059 33.8892 13.2652 33.8906 3.72516C33.9089 3.09305 33.5109 2.47641 32.9259 2.23594C32.5666 2.07211 32.1645 2.11359 31.7812 2.10938C28.0772 2.10938 24.3731 2.10938 20.6691 2.10938C20.5383 2.11289 20.4068 2.12133 20.2788 2.15016Z" fill="#EE0033"/>
<path d="M5.09772 6.37387C5.31851 6.34152 5.5421 6.3591 5.76429 6.35629C8.41366 6.35559 11.0623 6.3577 13.7117 6.35559C14.0717 6.34012 14.4338 6.5166 14.6342 6.81824C14.8592 7.14098 14.8782 7.59027 14.6778 7.92918C14.4887 8.27441 14.0956 8.47902 13.7054 8.46566C10.9646 8.46707 8.22452 8.46355 5.48374 8.46707C5.23483 8.47269 4.97397 8.44949 4.75741 8.31449C4.32569 8.07191 4.11757 7.49957 4.30601 7.03902C4.43046 6.70012 4.74194 6.43926 5.09772 6.37387Z" fill="#EE0033"/>
<path d="M22.0392 6.37452C22.2389 6.34288 22.4414 6.35765 22.6432 6.35624C25.3144 6.35624 27.9856 6.35694 30.6574 6.35554C31.0006 6.34148 31.3479 6.49968 31.5518 6.77812C31.8014 7.10155 31.8338 7.57194 31.6263 7.92491C31.4386 8.27085 31.047 8.47757 30.6574 8.46562C27.8688 8.46562 25.081 8.46562 22.2924 8.46562C21.9879 8.47194 21.6799 8.35382 21.4718 8.12952C21.199 7.84476 21.1048 7.40108 21.2546 7.03405C21.3797 6.69866 21.6877 6.44132 22.0392 6.37452Z" fill="#EE0033"/>
<path d="M4.94345 10.6528C5.09462 10.5951 5.25774 10.5888 5.41735 10.5874C8.20384 10.5916 10.991 10.5846 13.7775 10.5916C14.3196 10.5874 14.8027 11.0578 14.8174 11.5985C14.8547 12.168 14.359 12.7003 13.7874 12.6968C10.9488 12.6996 8.11032 12.6989 5.27251 12.6968C4.80985 12.6968 4.38024 12.3508 4.27126 11.9029C4.12712 11.3932 4.44423 10.8173 4.94345 10.6528Z" fill="#EE0033"/>
<path d="M21.8888 10.6531C22.0399 10.5954 22.2031 10.5891 22.3634 10.5884C25.1492 10.5919 27.9356 10.5849 30.7214 10.5919C31.2635 10.587 31.7473 11.0567 31.7628 11.5974C31.8014 12.1676 31.3036 12.7013 30.7313 12.6971C27.8935 12.6992 25.0556 12.6992 22.2178 12.6971C21.7538 12.6971 21.3228 12.349 21.2152 11.8983C21.0745 11.3899 21.391 10.8176 21.8888 10.6531Z" fill="#EE0033"/>
<path d="M5.07489 14.8505C5.1881 14.828 5.30341 14.8266 5.41872 14.8252C8.20521 14.8294 10.9924 14.8224 13.7789 14.8287C14.3125 14.8259 14.7907 15.2843 14.8146 15.8173C14.8631 16.3925 14.3618 16.9367 13.7838 16.9339C10.9446 16.9367 8.10606 16.9374 5.26685 16.9339C4.74302 16.9339 4.27403 16.4874 4.23888 15.9664C4.18825 15.4538 4.57075 14.9489 5.07489 14.8505Z" fill="#EE0033"/>
<path d="M22.017 14.8515C22.1063 14.8353 22.197 14.8269 22.2884 14.8262C25.077 14.8269 27.8663 14.8269 30.6549 14.8262C31.1126 14.8058 31.5647 15.1046 31.7046 15.5441C31.8832 16.025 31.635 16.6072 31.1745 16.8245C30.9052 16.9686 30.593 16.9334 30.2998 16.9363C27.6293 16.9356 24.9589 16.9356 22.2891 16.9363C21.9424 16.9489 21.593 16.7886 21.3891 16.5059C21.1746 16.2198 21.1184 15.8218 21.2583 15.4913C21.3856 15.17 21.6795 14.9232 22.017 14.8515Z" fill="#EE0033"/>
<path d="M13.5315 21.2088C14.1538 21.045 14.8245 21.5737 14.8168 22.215C14.8203 23.6465 14.8203 25.0781 14.8161 26.5097C14.807 27.0293 14.3647 27.4912 13.8458 27.5229C13.2706 27.5805 12.7187 27.0883 12.7123 26.5104C12.7067 25.0809 12.7095 23.6522 12.7109 22.2227C12.7102 21.7481 13.0688 21.308 13.5315 21.2088Z" fill="#EE0033"/>
<path d="M30.4771 21.2084C31.098 21.046 31.7667 21.574 31.7596 22.2139C31.766 23.6236 31.761 25.0334 31.7624 26.4424C31.7695 26.7989 31.5888 27.1519 31.2906 27.3495C30.9124 27.6089 30.3709 27.5759 30.0264 27.2735C29.7831 27.0703 29.6467 26.7532 29.6531 26.4382C29.6538 25.0327 29.6502 23.6278 29.6545 22.2223C29.6538 21.747 30.0138 21.3075 30.4771 21.2084Z" fill="#EE0033"/>
</svg>
