<svg width="18" height="18" viewBox="0 0 18 18" fill="none" xmlns="http://www.w3.org/2000/svg">
<path d="M17.4727 18H0.527344C0.236109 18 0 17.7639 0 17.4727V15.8906H18V17.4727C18 17.7639 17.7639 18 17.4727 18Z" fill="#223B55"/>
<path d="M0 0.527344V14.8359H8.47266V0H0.527344C0.236109 0 0 0.236109 0 0.527344ZM6.3457 10.5469C6.3457 10.8381 6.10959 11.0742 5.81836 11.0742C5.52712 11.0742 5.29102 10.8381 5.29102 10.5469V8.78906C5.29102 8.49783 5.52712 8.26172 5.81836 8.26172C6.10959 8.26172 6.3457 8.49783 6.3457 8.78906V10.5469ZM2.6543 1.58203H5.81836C6.10959 1.58203 6.3457 1.81814 6.3457 2.10938C6.3457 2.40061 6.10959 2.63672 5.81836 2.63672H2.6543C2.36306 2.63672 2.12695 2.40061 2.12695 2.10938C2.12695 1.81814 2.36306 1.58203 2.6543 1.58203ZM2.6543 3.69141H5.81836C6.10959 3.69141 6.3457 3.92752 6.3457 4.21875C6.3457 4.50998 6.10959 4.74609 5.81836 4.74609H2.6543C2.36306 4.74609 2.12695 4.50998 2.12695 4.21875C2.12695 3.92752 2.36306 3.69141 2.6543 3.69141ZM2.6543 5.80078H5.81836C6.10959 5.80078 6.3457 6.03689 6.3457 6.32812C6.3457 6.61936 6.10959 6.85547 5.81836 6.85547H2.6543C2.36306 6.85547 2.12695 6.61936 2.12695 6.32812C2.12695 6.03689 2.36306 5.80078 2.6543 5.80078Z" fill="#223B55"/>
<path d="M17.4727 0H9.52734V14.8359H18V0.527344C18 0.236109 17.7639 0 17.4727 0ZM15.873 10.5469C15.873 10.8381 15.6369 11.0742 15.3457 11.0742C15.0545 11.0742 14.8184 10.8381 14.8184 10.5469V8.78906C14.8184 8.49783 15.0545 8.26172 15.3457 8.26172C15.6369 8.26172 15.873 8.49783 15.873 8.78906V10.5469ZM15.3457 6.85547H12.1816C11.8904 6.85547 11.6543 6.61936 11.6543 6.32812C11.6543 6.03689 11.8904 5.80078 12.1816 5.80078H15.3457C15.6369 5.80078 15.873 6.03689 15.873 6.32812C15.873 6.61936 15.6369 6.85547 15.3457 6.85547ZM15.3457 4.74609H12.1816C11.8904 4.74609 11.6543 4.50998 11.6543 4.21875C11.6543 3.92752 11.8904 3.69141 12.1816 3.69141H15.3457C15.6369 3.69141 15.873 3.92752 15.873 4.21875C15.873 4.50998 15.6369 4.74609 15.3457 4.74609ZM15.3457 2.63672H12.1816C11.8904 2.63672 11.6543 2.40061 11.6543 2.10938C11.6543 1.81814 11.8904 1.58203 12.1816 1.58203H15.3457C15.6369 1.58203 15.873 1.81814 15.873 2.10938C15.873 2.40061 15.6369 2.63672 15.3457 2.63672Z" fill="#223B55"/>
</svg>
