<svg width="165" height="24" viewBox="0 0 165 24" fill="none" xmlns="http://www.w3.org/2000/svg">
<path d="M24.8062 4.39337H23.0197C22.3084 4.39337 21.7324 4.96549 21.7324 5.67204V18.8143C21.7324 19.5208 22.3091 20.0929 23.0197 20.0929H24.8062C25.5168 20.0929 26.0935 19.5208 26.0935 18.8143V5.67129C26.0935 4.96549 25.5175 4.39337 24.8062 4.39337Z" fill="#EE0033"/>
<path d="M18.3819 4.39337C17.2555 4.39337 16.3104 5.06408 15.8525 6.02383L11.1079 16.0343C10.9959 16.2711 10.7726 16.6565 10.5861 16.6565C10.3996 16.6565 10.1763 16.2719 10.0643 16.0343L5.28817 6.02383C4.83026 5.06333 3.88511 4.39337 2.75875 4.39337H0L7.52961 18.8785C8.2755 20.3006 9.80338 20.2707 10.5861 20.2707C11.6674 20.2707 12.9343 20.2117 13.6058 18.8785L21.1361 4.39337H18.3819Z" fill="#EE0033"/>
<path d="M101.584 1.98698C101.584 1.28043 101.008 0.708313 100.296 0.708313H98.5099C97.7994 0.708313 97.2227 1.28043 97.2227 1.98698V14.9686C97.2227 16.9531 97.931 18.1085 99.1979 18.9376C100.428 19.7375 101.845 20.093 104.491 20.093H105.925C106.637 20.093 107.213 19.5201 107.213 18.8143V17.4274H106.131C105.349 17.4274 103.709 17.3975 102.739 16.7462C101.471 15.9164 101.583 14.4353 101.583 13.3688V1.98698H101.584Z" fill="#EE0033"/>
<path d="M73.6589 17.4266C72.8762 17.4266 71.2355 17.3967 70.2671 16.7455C68.9994 15.9157 69.1114 14.4346 69.1114 13.368V7.05909H73.3409C74.0514 7.05909 74.6282 6.48623 74.6282 5.78042V4.3927H69.1114V1.98698C69.1114 1.28043 68.5347 0.708313 67.8241 0.708313H66.0376C65.3263 0.708313 64.7503 1.28043 64.7503 1.98698V4.39345H55.6545V1.98698C55.6545 1.28043 55.0778 0.708313 54.3672 0.708313H52.5807C51.8694 0.708313 51.2934 1.28043 51.2934 1.98698V4.39345H48.5723V5.78042C48.5723 6.48623 49.1482 7.05909 49.8595 7.05909H51.2942V14.9679C51.2942 16.9523 52.0025 18.1078 53.2694 18.9368C54.4996 19.7367 55.9162 20.0923 58.5629 20.0923H59.9968C60.7081 20.0923 61.284 19.5194 61.284 18.8136V17.4266H60.2028C59.4201 17.4266 57.7794 17.3967 56.8102 16.7455C55.5425 15.9157 55.6545 14.4346 55.6545 13.368V7.05909H64.7496V14.9679C64.7496 16.9523 65.4579 18.1078 66.7256 18.9368C67.9557 19.7367 69.3723 20.0923 72.019 20.0923H73.4529C74.1635 20.0923 74.7402 19.5194 74.7402 18.8136V17.4266H73.6589Z" fill="#EE0033"/>
<path d="M46.9709 18.8153V17.4283H37.3164C35.7133 17.4283 33.8869 17.2506 33.3275 15.5618C33.1779 15.0876 33.0666 14.0808 33.0666 13.3996H44.5482C45.331 13.3996 46.0769 13.2809 46.6731 12.8073C47.4927 12.156 47.6047 11.2374 47.6047 10.4375C47.6047 8.45298 47.1198 6.49763 44.8091 5.34294C42.9828 4.42427 40.597 4.33539 38.2856 4.33539C36.4216 4.33539 33.0666 4.33539 30.9049 5.81646C28.7431 7.29754 28.5566 9.45978 28.5566 12.3928C28.5566 14.4662 28.6687 16.6284 29.9732 18.1095C31.6131 19.9461 33.999 20.094 36.0118 20.094H45.6836C46.3949 20.094 46.9709 19.5211 46.9709 18.8153ZM43.094 9.81455C43.094 10.2291 42.982 10.7332 42.1248 10.7332H35.9216C34.3448 10.7332 33.0658 11.4495 33.0658 12.3331V10.7332C33.1034 9.69654 33.0658 8.83762 33.9606 8.03771C35.1531 6.97115 36.9427 7.00103 38.0984 7.00103C39.3285 7.00103 40.7451 7.06003 41.8263 7.71206C42.4602 8.09671 43.094 8.83762 43.094 9.81455Z" fill="#EE0033"/>
<path d="M94.1259 18.8153V17.4283H84.4714C82.8684 17.4283 81.042 17.2506 80.4825 15.5618C80.3329 15.0876 80.2209 14.0808 80.2209 13.3996H91.7025C92.4853 13.3996 93.2304 13.2809 93.8274 12.8073C94.647 12.156 94.7598 11.2374 94.7598 10.4375C94.7598 8.45298 94.2748 6.49763 91.9634 5.34294C90.1371 4.42427 87.7513 4.33539 85.4399 4.33539C83.5759 4.33539 80.2209 4.33539 78.0592 5.81646C75.8974 7.29754 75.7109 9.45978 75.7109 12.3928C75.7109 14.4662 75.823 16.6284 77.1275 18.1095C78.7674 19.9461 81.1533 20.094 83.1661 20.094H92.8379C93.5492 20.094 94.1259 19.5211 94.1259 18.8153ZM90.2491 9.81455C90.2491 10.2291 90.1371 10.7332 89.2799 10.7332H83.0766C81.4999 10.7332 80.2209 11.4495 80.2209 12.3331V10.7332C80.2585 9.69654 80.2209 8.83762 81.1157 8.03771C82.3082 6.97115 84.0977 7.00103 85.2534 7.00103C86.4835 7.00103 87.9001 7.06003 88.9814 7.71206C89.6152 8.09671 90.2491 8.83762 90.2491 9.81455Z" fill="#EE0033"/>
<path d="M24.8062 0H23.0197C22.3084 0 21.7324 0.572116 21.7324 1.27867V1.6327V4.39319H21.7505C21.8738 3.66796 22.7039 2.91137 23.9137 2.91137H24.807C25.5175 2.91137 26.0942 2.3385 26.0942 1.6327V1.27867C26.0935 0.572116 25.5175 0 24.8062 0Z" fill="#EE0033"/>
<path d="M115.139 23.7463H112.895V9.50543C112.895 8.81306 113.108 8.32086 113.536 8.02808C113.964 7.73605 114.525 7.58966 115.219 7.58966H119.468C120.608 7.58966 121.547 7.72858 122.287 8.00493C123.026 8.28203 123.618 8.67862 124.064 9.19397C124.509 9.70933 124.821 10.3442 124.999 11.0978C125.177 11.8521 125.266 12.7058 125.266 13.6596C125.266 14.6134 125.176 15.4716 124.999 16.2326C124.821 16.9945 124.509 17.6405 124.064 18.1708C123.618 18.7018 123.026 19.1096 122.287 19.3942C121.547 19.6788 120.608 19.8214 119.468 19.8214H115.139V23.7463ZM115.139 18.253H119.067C119.922 18.253 120.603 18.1379 121.111 17.9064C121.618 17.6756 122.005 17.3567 122.273 16.9489C122.541 16.5418 122.714 16.0571 122.794 15.4947C122.874 14.9331 122.914 14.3214 122.914 13.6596C122.914 12.9979 122.875 12.3899 122.794 11.8365C122.714 11.2823 122.54 10.8095 122.273 10.4166C122.006 10.0245 121.618 9.71679 121.111 9.49347C120.603 9.2709 119.921 9.15887 119.067 9.15887H115.968C115.701 9.15887 115.495 9.20891 115.353 9.30899C115.21 9.40908 115.14 9.59729 115.14 9.87439V18.253H115.139Z" fill="#EE0033"/>
<path d="M134.295 7.44965C135.56 7.44965 136.651 7.5572 137.568 7.77305C138.486 7.9889 139.238 8.33844 139.826 8.82317C140.414 9.3079 140.85 9.94649 141.135 10.7389C141.42 11.5321 141.562 12.5046 141.562 13.6585C141.562 14.8125 141.42 15.7931 141.135 16.6012C140.85 17.4086 140.414 18.0592 139.826 18.5514C139.238 19.0436 138.486 19.4021 137.568 19.6246C136.65 19.8472 135.56 19.9592 134.295 19.9592C133.031 19.9592 131.94 19.8472 131.022 19.6246C130.105 19.4013 129.352 19.0436 128.764 18.5514C128.176 18.0592 127.74 17.4086 127.455 16.6012C127.17 15.7931 127.027 14.8125 127.027 13.6585C127.027 12.5046 127.169 11.5314 127.455 10.7389C127.74 9.94649 128.176 9.3079 128.764 8.82317C129.352 8.33844 130.104 7.9889 131.022 7.77305C131.94 7.55794 133.03 7.44965 134.295 7.44965ZM129.379 13.6585C129.379 14.5204 129.467 15.2509 129.645 15.8506C129.824 16.4504 130.104 16.9396 130.487 17.316C130.87 17.6932 131.373 17.9666 131.997 18.1354C132.62 18.3049 133.386 18.3893 134.295 18.3893C135.203 18.3893 135.969 18.3049 136.592 18.1354C137.216 17.9666 137.719 17.6932 138.102 17.316C138.486 16.9396 138.765 16.4504 138.944 15.8506C139.122 15.2509 139.211 14.5197 139.211 13.6585C139.211 12.7966 139.121 12.0699 138.944 11.4776C138.765 10.8853 138.485 10.4081 138.102 10.0466C137.719 9.68508 137.216 9.42367 136.592 9.26234C135.969 9.10026 135.203 9.0196 134.295 9.0196C133.386 9.0196 132.62 9.10026 131.997 9.26234C131.373 9.42367 130.87 9.68582 130.487 10.0466C130.103 10.4081 129.823 10.8853 129.645 11.4776C129.467 12.0699 129.379 12.7966 129.379 13.6585Z" fill="#EE0033"/>
<path d="M143.462 18.2522H151.504C152.644 18.2522 153.214 17.7369 153.214 16.7054C153.214 16.3828 153.134 16.1213 152.973 15.9212C152.813 15.721 152.586 15.5522 152.292 15.4133C151.998 15.2751 151.637 15.1556 151.21 15.0555C150.782 14.9555 150.293 14.8442 149.741 14.7209L147.149 14.1667C145.795 13.8747 144.807 13.4706 144.183 12.9553C143.56 12.4399 143.248 11.6669 143.248 10.6362C143.248 9.60551 143.573 8.83995 144.223 8.33954C144.874 7.83987 145.822 7.58966 147.069 7.58966H154.738V9.15887H147.31C146.65 9.15887 146.183 9.2709 145.907 9.49348C145.63 9.71679 145.492 10.0977 145.492 10.6362C145.492 10.9746 145.559 11.2561 145.693 11.4787C145.826 11.702 146.009 11.8865 146.241 12.0329C146.472 12.1793 146.748 12.2988 147.069 12.3906C147.39 12.4825 147.746 12.5751 148.138 12.6677L150.943 13.2906C151.655 13.4445 152.297 13.5984 152.866 13.7522C153.436 13.9061 153.922 14.1062 154.323 14.3527C154.724 14.5992 155.031 14.9069 155.245 15.2759C155.459 15.6456 155.566 16.1296 155.566 16.7301C155.566 17.2073 155.508 17.6338 155.392 18.011C155.276 18.3882 155.085 18.7116 154.818 18.9804C154.55 19.2501 154.194 19.4577 153.748 19.6033C153.303 19.7497 152.742 19.8229 152.065 19.8229H143.461V18.2522H143.462Z" fill="#EE0033"/>
<path d="M162.807 19.8212C161.916 19.8212 161.182 19.733 160.603 19.556C160.024 19.379 159.565 19.1213 159.227 18.783C158.888 18.4447 158.648 18.0331 158.506 17.5484C158.363 17.0637 158.291 16.514 158.291 15.8978V9.15862H156.207V7.58941H158.291V3.66602H160.536V7.58941H164.49V9.15862H160.536V15.7828C160.536 16.26 160.594 16.6566 160.709 16.9711C160.825 17.2862 161.003 17.5402 161.244 17.7329C161.485 17.9256 161.796 18.06 162.179 18.1369C162.562 18.2139 163.02 18.2527 163.555 18.2527H164.49V19.8219H162.807V19.8212Z" fill="#EE0033"/>
</svg>
