<svg width="18" height="18" viewBox="0 0 18 18" fill="none" xmlns="http://www.w3.org/2000/svg">
<path d="M5.61132 6.17579C7.31397 6.17579 8.6992 4.79057 8.6992 3.08791C8.6992 1.38523 7.31397 0 5.61132 0C3.90866 0 2.52344 1.38523 2.52344 3.08788C2.52344 4.79057 3.90866 6.17579 5.61132 6.17579Z" fill="#223B55"/>
<path d="M11.8237 9.52745H13.5558V10.7323H8.43457C8.14348 10.7323 7.90723 10.9682 7.90723 11.2596V13.5564H16.87V11.2596C16.87 10.9682 16.6337 10.7323 16.3426 10.7323H14.6105V9.52745H16.3425C16.6337 9.52745 16.8699 9.29134 16.8699 9.00011V6.74072C16.8699 6.44949 16.6337 6.21338 16.3425 6.21338H11.8237C11.5325 6.21338 11.2964 6.44949 11.2964 6.74072V9.00011C11.2964 9.29134 11.5325 9.52745 11.8237 9.52745Z" fill="#223B55"/>
<path d="M6.85332 11.2594C6.85332 10.3869 7.56312 9.67741 8.43535 9.67741H9.76777C9.42535 7.68405 7.67984 6.16425 5.58734 6.17585C3.26 6.1885 1.39355 8.11155 1.39355 10.4392V13.5562H6.85332V11.2594Z" fill="#223B55"/>
<path d="M17.4727 14.6108H0.527344C0.236109 14.6108 0 14.8469 0 15.1382V17.4726C0 17.7638 0.236109 17.9999 0.527344 17.9999H17.4727C17.7639 17.9999 18 17.7638 18 17.4726V15.1382C18 14.8469 17.7639 14.6108 17.4727 14.6108Z" fill="#223B55"/>
</svg>
