<svg width="18" height="18" viewBox="0 0 18 18" fill="none" xmlns="http://www.w3.org/2000/svg">
<g clip-path="url(#clip0)">
<path d="M6.75 7.5C8.82107 7.5 10.5 5.82107 10.5 3.75C10.5 1.67893 8.82107 0 6.75 0C4.67893 0 3 1.67893 3 3.75C3 5.82107 4.67893 7.5 6.75 7.5Z" fill="#223B55"/>
<path d="M8.6505 15.6C8.25975 14.9235 8.33775 14.0903 8.80275 13.5C8.33775 12.9097 8.25975 12.0772 8.6505 11.4L9.25725 10.35C9.591 9.77175 10.2135 9.4125 10.8818 9.4125C10.9733 9.4125 11.0633 9.41925 11.1525 9.432C11.1773 9.3705 11.2088 9.31275 11.2395 9.25425C10.8345 9.0945 10.3973 9 9.9375 9H3.5625C1.59825 9 0 10.5983 0 12.5625V15.1875C0 15.498 0.252 15.75 0.5625 15.75H8.73675L8.6505 15.6Z" fill="#223B55"/>
<path d="M16.2784 13.8518C16.2934 13.7355 16.3137 13.62 16.3137 13.5C16.3137 13.3793 16.2927 13.2645 16.2784 13.1483L16.9542 12.6368C17.1049 12.5228 17.1469 12.3143 17.0524 12.15L16.4457 11.1C16.3512 10.9365 16.1494 10.8683 15.9754 10.9418L15.1977 11.2695C15.0079 11.1248 14.8062 10.9973 14.5834 10.9043L14.4799 10.0785C14.4559 9.891 14.2969 9.75 14.1079 9.75H12.8952C12.7062 9.75 12.5464 9.891 12.5232 10.0785L12.4197 10.9043C12.1969 10.9973 11.9944 11.1255 11.8054 11.2695L11.0277 10.9418C10.8537 10.8683 10.6519 10.9358 10.5574 11.1L9.95067 12.15C9.85617 12.3135 9.89817 12.522 10.0489 12.6368L10.7247 13.1483C10.7097 13.2645 10.6894 13.38 10.6894 13.5C10.6894 13.6208 10.7104 13.7355 10.7247 13.8518L10.0489 14.3633C9.89817 14.4773 9.85617 14.6858 9.95067 14.85L10.5574 15.9008C10.6519 16.0643 10.8537 16.1325 11.0277 16.059L11.8054 15.7305C11.9952 15.8753 12.1969 16.0028 12.4197 16.0958L12.5232 16.9215C12.5464 17.109 12.7054 17.25 12.8944 17.25H14.1072C14.2962 17.25 14.4559 17.109 14.4792 16.9215L14.5827 16.0958C14.8054 16.0028 15.0079 15.8745 15.1969 15.7305L15.9747 16.0583C16.1487 16.1318 16.3504 16.0643 16.4449 15.9L17.0517 14.8493C17.1462 14.6858 17.1042 14.4773 16.9534 14.3625L16.2784 13.8518ZM13.5012 15C12.6724 15 12.0012 14.3288 12.0012 13.5C12.0012 12.6713 12.6724 12 13.5012 12C14.3299 12 15.0012 12.6713 15.0012 13.5C15.0012 14.3288 14.3299 15 13.5012 15Z" fill="#223B55"/>
</g>
<defs>
<clipPath id="clip0">
<rect width="18" height="18" fill="white"/>
</clipPath>
</defs>
</svg>
