<svg id="Capa_1" data-name="Capa 1" xmlns="http://www.w3.org/2000/svg" viewBox="0 0 23.42 18"><defs><style>.cls-1{fill:#223b55;}</style></defs><path class="cls-1" d="M202.9,236.35v14.31h8.47V235.83h-7.94A.52.52,0,0,0,202.9,236.35Zm6.35,10a.53.53,0,0,1-1.06,0v-1.75a.53.53,0,0,1,1.06,0Zm-3.69-9h3.16a.53.53,0,1,1,0,1.05h-3.16a.53.53,0,1,1,0-1.05Zm0,2.11h3.16a.53.53,0,1,1,0,1h-3.16a.53.53,0,1,1,0-1Zm0,2.11h3.16a.53.53,0,1,1,0,1.05h-3.16a.53.53,0,1,1,0-1.05Z" transform="translate(-202.9 -235.83)"/><path class="cls-1" d="M220,248.07a.6.6,0,0,0,.6.59.65.65,0,0,0,.29-.07v-1a.55.55,0,0,0-.29-.08A.6.6,0,0,0,220,248.07Z" transform="translate(-202.9 -235.83)"/><path class="cls-1" d="M216.11,250.13a3.49,3.49,0,0,1-.15-.34l-1.73-.51v-2.43l1.73-.51c0-.11.09-.23.15-.34l-.87-1.59,1.72-1.72,1.59.87.33-.14.51-1.74h1.51v-5.33a.52.52,0,0,0-.53-.52h-7.94v14.83h3.38Zm-1-12.72h3.17a.53.53,0,0,1,0,1.05h-3.17a.53.53,0,0,1,0-1.05Zm0,2.11h3.17a.53.53,0,0,1,0,1h-3.17a.53.53,0,0,1,0-1Zm0,2.11h3.17a.53.53,0,0,1,0,1.05h-3.17a.53.53,0,0,1,0-1.05Z" transform="translate(-202.9 -235.83)"/><path class="cls-1" d="M218.88,252.71l-.33-.14-1.59.87-1.72-1.72H202.9v1.58a.53.53,0,0,0,.53.53h15.78Z" transform="translate(-202.9 -235.83)"/><path class="cls-1" d="M226.32,248.78v-1.43l-1.59-.46a4,4,0,0,0-.38-.9l.8-1.46-1-1-1.45.8a4.16,4.16,0,0,0-.9-.37l-.47-1.59H219.9l-.47,1.59a4,4,0,0,0-.9.37l-1.45-.8-1,1,.79,1.46a4.48,4.48,0,0,0-.37.9l-1.59.46v1.43l1.59.46a4.48,4.48,0,0,0,.37.9l-.79,1.46,1,1,1.45-.8a4,4,0,0,0,.9.37l.47,1.59h1.42l.47-1.59a4.16,4.16,0,0,0,.9-.37l1.45.8,1-1-.8-1.46a4,4,0,0,0,.38-.9Zm-5.71.55a1.27,1.27,0,1,1,1.27-1.26A1.26,1.26,0,0,1,220.61,249.33Z" transform="translate(-202.9 -235.83)"/></svg>