<svg width="18" height="18" viewBox="0 0 18 18" fill="none" xmlns="http://www.w3.org/2000/svg">
<path d="M0.00980072 11.6328C0.00980072 15.1413 2.86417 17.9957 6.37263 17.9957C7.71219 17.9957 9.03638 17.5602 10.1322 16.7645V11.0439C10.1322 10.7148 10.3991 10.4479 10.7283 10.4479H12.7354V6.68506C12.7038 6.7152 12.6713 6.74534 12.638 6.77545C11.2718 8.01143 9.16383 8.63811 6.37259 8.63811C3.58136 8.63811 1.47341 8.01146 0.107178 6.77549C0.0738768 6.74534 0.0414176 6.7152 0.00976562 6.68509V11.6328H0.00980072Z" fill="#223B55"/>
<path d="M12.7354 3.13927C12.7354 1.40823 11.3271 0 9.59612 0H3.14904C1.41803 0 0.00976562 1.40823 0.00976562 3.13927V4.02872H12.7354V3.13927Z" fill="#223B55"/>
<path d="M0.978021 5.95323C2.40731 7.18695 4.7011 7.44592 6.37367 7.44592C8.0832 7.44592 10.4191 7.17622 11.8394 5.89133C12.0972 5.65804 12.2844 5.42581 12.4191 5.2207H0.326172C0.472431 5.44272 0.681433 5.6972 0.978021 5.95323Z" fill="#223B55"/>
<path d="M17.6907 11.6396H16.578V13.4345C16.578 13.7636 16.3111 14.0305 15.9819 14.0305H13.3314C13.0022 14.0305 12.7354 13.7636 12.7354 13.4345V11.6396H11.6236C11.4583 11.6396 11.3242 11.7737 11.3242 11.939V17.9999H17.9891V11.9381C17.9891 11.7733 17.8555 11.6396 17.6907 11.6396Z" fill="#223B55"/>
<path d="M13.9277 11.6396H15.3862V12.8384H13.9277V11.6396Z" fill="#223B55"/>
</svg>
