<svg width="36" height="36" viewBox="0 0 36 36" fill="none" xmlns="http://www.w3.org/2000/svg">
<path d="M17.8889 0H18.0991C18.2102 0.0386719 18.3185 0.0864844 18.4191 0.148359C23.8331 3.7575 29.2479 7.36734 34.662 10.9772C34.9931 11.2022 35.3559 11.4026 35.5999 11.7295C35.8432 12.041 35.9726 12.4291 36 12.8208V34.2478C35.9367 34.721 35.7258 35.1816 35.3644 35.5008C35.0599 35.782 34.662 35.9395 34.2563 36H1.7543C0.852891 35.917 0.0914062 35.1591 0 34.2591V12.7266C0.0703125 12.15 0.3825 11.6051 0.874687 11.2887C6.31828 7.65984 11.7619 4.03102 17.2062 0.401484C17.4255 0.255938 17.6372 0.0892969 17.8889 0ZM1.89352 12.1521C1.67625 12.3047 1.39711 12.4327 1.31766 12.7104C1.26422 12.9227 1.29094 13.1442 1.28531 13.3608C1.28672 20.2521 1.28461 27.1441 1.28672 34.0355C1.26422 34.3758 1.54617 34.7013 1.8907 34.7098C2.54602 34.7245 3.20133 34.7112 3.85664 34.7154C3.85734 28.4407 3.85734 22.1667 3.85664 15.892C3.85453 15.4934 3.83555 15.0771 3.99938 14.703C4.27711 13.995 5.00695 13.4972 5.76844 13.5014C13.9008 13.4979 22.0331 13.5014 30.1648 13.5C30.7498 13.4859 31.3355 13.7475 31.7032 14.2045C31.9957 14.5568 32.149 15.0145 32.1427 15.4709C32.1434 21.8862 32.1427 28.3008 32.1434 34.7154C32.7755 34.7133 33.4076 34.7196 34.0397 34.714C34.2682 34.7203 34.4974 34.6057 34.617 34.4081C34.7421 34.2134 34.7105 33.9736 34.7154 33.7549C34.7112 26.8137 34.7175 19.8731 34.7126 12.9326C34.7245 12.6802 34.5762 12.4502 34.3645 12.3237C28.9097 8.68781 23.4584 5.04703 18 1.41609C12.6309 4.99359 7.26328 8.57461 1.89352 12.1521ZM5.65383 14.8015C5.34727 14.857 5.12508 15.1594 5.14406 15.4666C5.14195 21.8834 5.14336 28.2994 5.14336 34.7154C5.82047 34.7161 6.49758 34.7147 7.17539 34.7161C7.03125 34.2675 7.07766 33.7936 7.07133 33.3309C7.07203 31.4318 7.06992 29.5327 7.07273 27.6342C7.06781 27.1652 7.25766 26.7138 7.55438 26.3566C7.26328 26.0051 7.07273 25.5635 7.07273 25.1023C7.06852 22.9697 7.07273 20.8371 7.07133 18.7038C7.06922 18.3959 7.12477 18.0844 7.26258 17.8066C7.57055 17.1499 8.27578 16.7063 9.00141 16.7161C11.1333 16.7147 13.2652 16.7161 15.397 16.7154C15.9356 16.707 16.477 16.9284 16.8398 17.3299C17.1844 17.6955 17.3686 18.199 17.3566 18.7003C17.3566 20.8104 17.3573 22.9205 17.3566 25.0305C17.3693 25.5157 17.1823 25.9882 16.8729 26.3573C17.2463 26.7834 17.3981 27.3572 17.358 27.9162C17.3559 29.9545 17.358 31.9936 17.3566 34.032C17.3623 34.2647 17.3116 34.4925 17.2533 34.7161C17.7511 34.7154 18.2489 34.7147 18.746 34.7161C18.6061 34.2879 18.6476 33.8358 18.6434 33.3935C18.6441 31.4719 18.6413 29.5502 18.6441 27.6293C18.642 27.1631 18.8283 26.711 19.1278 26.358C18.8184 25.9903 18.6307 25.5185 18.6434 25.0348C18.6434 22.9001 18.6413 20.7647 18.6448 18.63C18.637 17.8467 19.1637 17.0993 19.8998 16.8363C20.2795 16.6823 20.6958 16.7182 21.0959 16.7154C23.0161 16.7147 24.937 16.7175 26.8573 16.7147C27.1512 16.7091 27.4493 16.7407 27.7228 16.8546C28.4358 17.133 28.9343 17.8706 28.9273 18.6363C28.9308 20.7682 28.928 22.8994 28.9287 25.0312C28.9399 25.515 28.755 25.9868 28.4456 26.3552C28.7409 26.7145 28.9315 27.1652 28.9273 27.6356C28.9308 29.5334 28.928 31.4318 28.9287 33.3295C28.923 33.7929 28.9673 34.2668 28.8246 34.7161C29.5017 34.7147 30.1795 34.7161 30.8566 34.7154C30.858 28.4175 30.8559 22.1196 30.858 15.8217C30.8496 15.5616 30.9009 15.2677 30.7287 15.0462C30.5866 14.8423 30.3293 14.7684 30.0916 14.7839C22.1695 14.7853 14.2474 14.7839 6.32531 14.7839C6.10172 14.7874 5.87602 14.7698 5.65383 14.8015ZM8.81086 18.0295C8.52187 18.1111 8.33414 18.4099 8.35734 18.7052C8.35734 20.8139 8.35594 22.9219 8.35805 25.0305C8.31867 25.4897 8.79258 25.7934 9.21305 25.7168C11.276 25.7119 13.339 25.7196 15.402 25.7133C15.7676 25.7344 16.0938 25.4046 16.0699 25.0397C16.0741 22.9753 16.0685 20.9102 16.0727 18.8459C16.148 18.4331 15.8491 17.9684 15.3991 18.0014C13.3826 17.9972 11.366 18.0028 9.34945 17.9993C9.17016 18.0014 8.98664 17.9859 8.81086 18.0295ZM20.4075 18.0232C20.1101 18.0928 19.9083 18.3952 19.9287 18.6961C19.9287 20.8069 19.928 22.9177 19.9294 25.0291C19.9005 25.3969 20.2275 25.7337 20.5966 25.7133C22.7088 25.7182 24.8224 25.7147 26.9346 25.7154C27.3495 25.7555 27.7024 25.3659 27.6441 24.9574C27.6413 22.8713 27.6441 20.7858 27.6427 18.6996C27.675 18.341 27.3727 17.9958 27.0091 18.0035C24.9195 17.9944 22.8298 18.0042 20.7401 17.9986C20.6283 18 20.5165 17.9993 20.4075 18.0232ZM8.87414 27.0155C8.55492 27.0675 8.33062 27.3874 8.35734 27.7045C8.35734 29.8125 8.35594 31.9205 8.35805 34.0291C8.32922 34.387 8.63859 34.7196 8.99789 34.7119C11.134 34.7189 13.2701 34.7168 15.4062 34.7133C15.7711 34.7323 16.0945 34.4011 16.0699 34.0376C16.0727 31.9233 16.0713 29.809 16.0706 27.6954C16.0805 27.4697 15.9813 27.2384 15.7901 27.1125C15.5953 26.9719 15.3436 27.0035 15.1179 26.9986C13.0366 27.012 10.954 26.9789 8.87414 27.0155ZM20.4082 27.0225C20.108 27.0928 19.9062 27.3987 19.9287 27.701C19.9294 29.8132 19.9273 31.9261 19.9301 34.0383C19.9048 34.4032 20.2317 34.7337 20.5973 34.7133C22.732 34.7161 24.8674 34.7189 27.0021 34.7126C27.3593 34.7189 27.6673 34.3891 27.642 34.0327C27.6448 31.924 27.6427 29.8139 27.6427 27.7052C27.6771 27.3431 27.3734 26.9937 27.0063 27.0028C25.6437 26.9958 24.2817 27.0021 22.9191 27C22.0823 27.0148 21.2421 26.9698 20.4082 27.0225Z" fill="#223B55"/>
<path d="M17.8721 4.51261C18.0669 4.46831 18.2631 4.53721 18.4213 4.64901C19.6721 5.48503 20.9265 6.31682 22.1767 7.15425C22.3728 7.27659 22.5057 7.49526 22.498 7.73011C22.5029 8.57597 22.5022 9.42253 22.4987 10.2684C22.5163 10.6136 22.2132 10.9321 21.8659 10.9244C19.2903 10.9279 16.7141 10.9279 14.1385 10.9244C13.7912 10.9342 13.486 10.6164 13.5029 10.2712C13.4994 9.42604 13.4987 8.58089 13.5029 7.73573C13.4938 7.50018 13.6253 7.27659 13.8249 7.15636C15.0083 6.36675 16.1924 5.57925 17.3743 4.78893C17.5339 4.68768 17.6844 4.5569 17.8721 4.51261ZM14.7889 8.05425C14.7833 8.583 14.7882 9.11175 14.7861 9.6405C16.9292 9.64331 19.0724 9.6419 21.2148 9.6412C21.2127 9.11104 21.2211 8.58018 21.2099 8.04933C20.1362 7.34409 19.0752 6.62057 18.0001 5.91604C16.9292 6.62761 15.8612 7.34479 14.7889 8.05425Z" fill="#223B55"/>
<path d="M13.2423 21.2697C13.5728 21.1643 13.9279 21.236 14.2689 21.2156C14.6064 21.2275 15.0254 21.1375 15.2694 21.4364C15.595 21.7753 15.3819 22.4095 14.9179 22.4826C14.4693 22.5213 14.0165 22.4918 13.5665 22.5002C13.2613 22.5248 12.9498 22.3216 12.8795 22.0186C12.7951 21.7232 12.9604 21.3879 13.2423 21.2697Z" fill="#223B55"/>
<path d="M24.8405 21.2584C25.1787 21.1719 25.5338 21.2338 25.8797 21.2155C26.1835 21.2282 26.5442 21.1501 26.7882 21.3821C27.0715 21.624 27.0638 22.1134 26.7713 22.3454C26.4823 22.5887 26.0773 22.4741 25.7328 22.5001C25.3573 22.4713 24.8925 22.6077 24.6028 22.2948C24.2906 21.9875 24.4263 21.399 24.8405 21.2584Z" fill="#223B55"/>
<path d="M13.3184 23.1708C13.7979 23.1096 14.2866 23.1539 14.7696 23.1441C15.0853 23.1321 15.3849 23.381 15.4207 23.6974C15.4791 24.049 15.1908 24.4118 14.8329 24.4217C14.3885 24.4329 13.9442 24.4266 13.5005 24.4245C13.1756 24.4357 12.8796 24.1615 12.8606 23.8388C12.829 23.5442 13.0336 23.2481 13.3184 23.1708Z" fill="#223B55"/>
<path d="M24.9766 23.1531C25.3682 23.1257 25.7627 23.1503 26.155 23.1405C26.3828 23.1334 26.6395 23.1496 26.8061 23.3275C27.0803 23.5799 27.0543 24.0693 26.7527 24.2894C26.4637 24.5115 26.0749 24.4005 25.7395 24.4265C25.3429 24.399 24.8275 24.546 24.5547 24.1656C24.2629 23.8049 24.5139 23.1974 24.9766 23.1531Z" fill="#223B55"/>
<path d="M13.2422 30.2697C13.5734 30.1643 13.9306 30.236 14.273 30.2156C14.6084 30.2275 15.0254 30.1382 15.2686 30.4357C15.5949 30.7739 15.3818 31.4095 14.9185 31.4826C14.4692 31.5213 14.0171 31.4918 13.5664 31.5002C13.2619 31.5241 12.9511 31.323 12.8801 31.02C12.7943 30.7247 12.9596 30.3879 13.2422 30.2697Z" fill="#223B55"/>
<path d="M24.8383 30.2586C25.1751 30.17 25.5302 30.2333 25.8754 30.215C26.1792 30.2276 26.5413 30.1482 26.7853 30.3802C27.0708 30.62 27.0644 31.1087 26.774 31.3428C26.4851 31.5889 26.0779 31.4736 25.7327 31.4996C25.3565 31.4708 24.8904 31.6072 24.6014 31.2922C24.2913 30.9856 24.427 30.3999 24.8383 30.2586Z" fill="#223B55"/>
<path d="M13.3161 32.1714C13.655 32.1095 14.0031 32.1559 14.3462 32.1418C14.6654 32.1425 15.0606 32.0884 15.2807 32.3788C15.5739 32.7064 15.396 33.2886 14.9713 33.399C14.6267 33.4588 14.2738 33.4117 13.9257 33.4271C13.6093 33.4264 13.2212 33.4785 13.0039 33.193C12.7107 32.8632 12.8879 32.2789 13.3161 32.1714Z" fill="#223B55"/>
<path d="M24.9736 32.1541C25.4383 32.1302 25.9066 32.1422 26.3721 32.1464C26.6744 32.145 26.9508 32.3883 26.9908 32.6864C27.0619 33.0562 26.7433 33.4345 26.3665 33.424C25.9228 33.4282 25.4784 33.4317 25.034 33.4226C24.7204 33.4169 24.4476 33.1413 24.4322 32.8305C24.4019 32.5092 24.6522 32.1928 24.9736 32.1541Z" fill="#223B55"/>
</svg>
