<svg width="24" height="24" viewBox="0 0 24 24" fill="none" xmlns="http://www.w3.org/2000/svg">
<g clip-path="url(#clip0_3012:2646)">
<path d="M12.7996 3.99961C13.0369 3.99961 13.269 3.92923 13.4663 3.79737C13.6636 3.66552 13.8174 3.4781 13.9083 3.25883C13.9991 3.03956 14.0229 2.79828 13.9766 2.5655C13.9302 2.33272 13.816 2.1189 13.6481 1.95108C13.4803 1.78326 13.2665 1.66897 13.0337 1.62267C12.8009 1.57637 12.5597 1.60013 12.3404 1.69095C12.1211 1.78178 11.9337 1.93559 11.8018 2.13293C11.67 2.33026 11.5996 2.56227 11.5996 2.79961C11.5996 3.11787 11.726 3.42309 11.9511 3.64814C12.1761 3.87318 12.4813 3.99961 12.7996 3.99961ZM12.7996 2.39961C12.8787 2.39961 12.9561 2.42307 13.0218 2.46702C13.0876 2.51097 13.1389 2.57345 13.1692 2.64654C13.1994 2.71963 13.2074 2.80005 13.1919 2.87765C13.1765 2.95524 13.1384 3.02651 13.0825 3.08245C13.0265 3.13839 12.9552 3.17649 12.8776 3.19192C12.8001 3.20736 12.7196 3.19944 12.6465 3.16916C12.5734 3.13889 12.511 3.08762 12.467 3.02184C12.4231 2.95606 12.3996 2.87872 12.3996 2.79961C12.3996 2.69352 12.4418 2.59178 12.5168 2.51677C12.5918 2.44175 12.6935 2.39961 12.7996 2.39961Z" fill="#EE0033"/>
<path d="M9.88 16H9.6C8.67762 15.998 7.78307 16.3158 7.06869 16.8993C6.3543 17.4827 5.86425 18.2958 5.682 19.2H5.2C4.88174 19.2 4.57652 19.3264 4.35147 19.5515C4.12643 19.7765 4 20.0817 4 20.4V22.8C4 23.1183 4.12643 23.4235 4.35147 23.6485C4.57652 23.8736 4.88174 24 5.2 24H18.4C18.8243 24 19.2313 23.8314 19.5314 23.5314C19.8314 23.2313 20 22.8243 20 22.4V20C19.9988 18.9395 19.577 17.9228 18.8271 17.1729C18.0772 16.423 17.0605 16.0012 16 16H15.72L14.8 15.386V14.4C15.6252 14.0538 16.3473 13.5008 16.8968 12.7945C17.4463 12.0882 17.8046 11.2522 17.9372 10.3672C18.3977 10.2901 18.8166 10.054 19.1211 9.70006C19.4256 9.34609 19.5965 8.89661 19.6039 8.42975C19.6114 7.96289 19.455 7.50818 19.162 7.14466C18.869 6.78114 18.4578 6.5318 18 6.44V5.4264L19.1344 4.7464C19.4083 4.58202 19.633 4.34707 19.785 4.06611C19.937 3.78515 20.0108 3.4685 19.9985 3.14929C19.9862 2.83008 19.8884 2.52003 19.7153 2.25156C19.5422 1.9831 19.3001 1.76608 19.0144 1.6232C17.0911 0.62246 14.9671 0.0676706 12.8 0C10.633 0.0674228 8.50901 0.621938 6.5856 1.6224C6.29989 1.76528 6.05781 1.9823 5.88469 2.25076C5.71156 2.51923 5.61376 2.82928 5.60149 3.14849C5.58923 3.4677 5.66296 3.78435 5.81497 4.06531C5.96698 4.34627 6.19169 4.58122 6.4656 4.7456L7.6 5.4264V6.44C7.14314 6.53266 6.73309 6.78225 6.44094 7.14551C6.14878 7.50876 5.99292 7.96279 6.00038 8.42889C6.00783 8.895 6.17813 9.34381 6.48176 9.69753C6.78539 10.0513 7.20321 10.2876 7.6628 10.3656C7.79516 11.2509 8.15335 12.0872 8.70284 12.7938C9.25233 13.5005 9.97459 14.0536 10.8 14.4V15.3872L9.88 16ZM11.1872 16.0896L12.1072 16.778L10.9692 17.5252L10.508 16.5424L11.1872 16.0896ZM9.6 16.8H9.7452L10.32 18.03C10.3589 18.1134 10.4153 18.1875 10.4855 18.2472C10.5556 18.3068 10.6378 18.3506 10.7264 18.3756C10.7834 18.3916 10.8424 18.3998 10.9016 18.4C11.0269 18.4 11.1494 18.3633 11.254 18.2944L12.4 17.5412V23.2H10.3264C10.3738 23.0719 10.3987 22.9366 10.4 22.8V20.4C10.4 20.0817 10.2736 19.7765 10.0485 19.5515C9.82348 19.3264 9.51826 19.2 9.2 19.2H6.5052C6.68041 18.5126 7.07993 17.9033 7.64049 17.4686C8.20106 17.0339 8.89063 16.7986 9.6 16.8ZM9.0824 20L7.2752 21.5716C7.25453 21.5909 7.22729 21.6017 7.199 21.6017C7.17071 21.6017 7.14347 21.5909 7.1228 21.5716L5.3176 20H9.0824ZM4.8 22.8V20.6104L6.5956 22.1704C6.76272 22.3164 6.9771 22.3968 7.199 22.3968C7.4209 22.3968 7.63528 22.3164 7.8024 22.1704L9.6 20.6104V22.8C9.6 22.9061 9.55786 23.0078 9.48284 23.0828C9.40783 23.1579 9.30609 23.2 9.2 23.2H5.2C5.09391 23.2 4.99217 23.1579 4.91716 23.0828C4.84214 23.0078 4.8 22.9061 4.8 22.8ZM15.28 18.0296L15.8548 16.8H16C16.8484 16.801 17.6618 17.1384 18.2617 17.7383C18.8616 18.3382 19.199 19.1516 19.2 20V22.4C19.2 22.6122 19.1157 22.8157 18.9657 22.9657C18.8157 23.1157 18.6122 23.2 18.4 23.2H13.2V17.5412L14.3468 18.2944C14.4237 18.3453 14.5106 18.379 14.6017 18.3931C14.6928 18.4073 14.7859 18.4016 14.8746 18.3764C14.9633 18.3513 15.0455 18.3073 15.1156 18.2474C15.1857 18.1876 15.2421 18.1133 15.2808 18.0296H15.28ZM14.6324 17.5252L13.4944 16.778L14.4144 16.0896L15.0944 16.5424L14.6324 17.5252ZM17.2 5.8496C16.624 6.42506 15.9368 6.87707 15.1803 7.17803C14.4238 7.47898 13.6139 7.62256 12.8 7.6C11.9862 7.62236 11.1764 7.47872 10.4199 7.17785C9.66342 6.87698 8.97615 6.42518 8.4 5.85V5.6H17.2V5.8496ZM18.8 8.4C18.799 8.6473 18.7216 8.88825 18.5784 9.08988C18.4352 9.29151 18.2332 9.44397 18 9.5264V7.2736C18.2332 7.35603 18.4352 7.50849 18.5784 7.71012C18.7216 7.91175 18.799 8.1527 18.8 8.4ZM6.4 3.2172C6.40025 3.03422 6.45151 2.85494 6.54804 2.69948C6.64456 2.54403 6.78251 2.41857 6.9464 2.3372C8.75777 1.39267 10.7583 0.867328 12.8 0.8C14.8417 0.86708 16.8422 1.39215 18.6536 2.3364C18.8116 2.41475 18.9457 2.53418 19.0416 2.68217C19.1376 2.83016 19.192 3.00124 19.1991 3.17749C19.2061 3.35373 19.1656 3.52862 19.0819 3.68383C18.9981 3.83904 18.874 3.96883 18.7228 4.0596L17.4892 4.8H8.1108L6.8772 4.0596C6.732 3.97199 6.61182 3.84846 6.52824 3.70092C6.44466 3.55337 6.40049 3.38678 6.4 3.2172ZM6.8 8.4C6.80103 8.1527 6.87843 7.91175 7.02164 7.71012C7.16484 7.50849 7.36684 7.35603 7.6 7.2736V9.5264C7.36684 9.44397 7.16484 9.29151 7.02164 9.08988C6.87843 8.88825 6.80103 8.6473 6.8 8.4ZM8.4 9.6V6.9264C9.65582 7.90477 11.2082 8.42469 12.8 8.4C14.3918 8.42532 15.9444 7.90549 17.2 6.9268V9.6C17.2 10.767 16.7364 11.8861 15.9113 12.7113C15.0861 13.5364 13.967 14 12.8 14C11.633 14 10.5139 13.5364 9.68873 12.7113C8.86357 11.8861 8.4 10.767 8.4 9.6ZM12.8 14.8C13.2043 14.7986 13.607 14.7498 14 14.6548V15.4L12.8 16.2996L11.6 15.4V14.6548C11.993 14.7498 12.3957 14.7986 12.8 14.8Z" fill="#EE0033"/>
<path d="M14.7601 11.7791C14.8067 11.6854 14.8145 11.5771 14.7817 11.4777C14.7489 11.3783 14.6782 11.2959 14.5849 11.2483C14.4911 11.2003 14.3822 11.191 14.2816 11.2224C14.181 11.2538 14.0967 11.3234 14.0469 11.4163C13.9101 11.616 13.7223 11.7755 13.5031 11.8782C13.2839 11.9809 13.0411 12.0231 12.8001 12.0003C12.5596 12.0224 12.3175 11.98 12.0988 11.8775C11.8801 11.775 11.6927 11.6161 11.5557 11.4171C11.5054 11.3271 11.4222 11.2601 11.3236 11.2299C11.225 11.1997 11.1185 11.2088 11.0265 11.2553C10.9344 11.3017 10.8638 11.3819 10.8295 11.4792C10.7951 11.5764 10.7997 11.6831 10.8421 11.7771C11.0434 12.1107 11.3325 12.3825 11.6778 12.563C12.0231 12.7434 12.4113 12.8255 12.8001 12.8003C13.189 12.8261 13.5775 12.7445 13.9232 12.5644C14.2689 12.3843 14.5584 12.1126 14.7601 11.7791Z" fill="#EE0033"/>
<path d="M14.4 19.5996C14.2939 19.5996 14.1922 19.6418 14.1172 19.7168C14.0421 19.7918 14 19.8935 14 19.9996C14 20.1057 14.0421 20.2074 14.1172 20.2824C14.1922 20.3575 14.2939 20.3996 14.4 20.3996H14.8C14.9061 20.3996 15.0078 20.3575 15.0828 20.2824C15.1579 20.2074 15.2 20.1057 15.2 19.9996C15.2 19.8935 15.1579 19.7918 15.0828 19.7168C15.0078 19.6418 14.9061 19.5996 14.8 19.5996H14.4Z" fill="#EE0033"/>
<path d="M14.8 21.2002H14.4C14.2939 21.2002 14.1922 21.2423 14.1172 21.3174C14.0421 21.3924 14 21.4941 14 21.6002C14 21.7063 14.0421 21.808 14.1172 21.883C14.1922 21.9581 14.2939 22.0002 14.4 22.0002H14.8C14.9061 22.0002 15.0078 21.9581 15.0828 21.883C15.1579 21.808 15.2 21.7063 15.2 21.6002C15.2 21.4941 15.1579 21.3924 15.0828 21.3174C15.0078 21.2423 14.9061 21.2002 14.8 21.2002Z" fill="#EE0033"/>
</g>
<defs>
<clipPath id="clip0_3012:2646">
<rect width="24" height="24" fill="white"/>
</clipPath>
</defs>
</svg>
