<svg width="24" height="23" viewBox="0 0 24 23" fill="none" xmlns="http://www.w3.org/2000/svg">
<path d="M11.9259 0H12.0661C12.1402 0.0236708 12.2123 0.0529365 12.2794 0.0908097C15.8888 2.29994 19.4986 4.5095 23.108 6.71906C23.3288 6.85678 23.5706 6.97944 23.7333 7.17956C23.8955 7.37022 23.9817 7.60779 24 7.84751V20.9628C23.9578 21.2525 23.8172 21.5344 23.5763 21.7298C23.3733 21.9019 23.108 21.9983 22.8375 22.0353H1.16953C0.568594 21.9846 0.0609375 21.5206 0 20.9697V7.78984C0.046875 7.43693 0.255 7.10338 0.583125 6.90971C4.21219 4.68854 7.84125 2.46736 11.4708 0.245746C11.617 0.156658 11.7581 0.054658 11.9259 0ZM1.26234 7.43822C1.1175 7.53161 0.931406 7.60994 0.878438 7.77994C0.842812 7.90991 0.860625 8.04548 0.856875 8.17804C0.857813 12.3962 0.856406 16.6147 0.857812 20.8329C0.842812 21.0412 1.03078 21.2404 1.26047 21.2456C1.69734 21.2546 2.13422 21.2465 2.57109 21.249C2.57156 17.4083 2.57156 13.5681 2.57109 9.7274C2.56969 9.48337 2.55703 9.22859 2.66625 8.99963C2.85141 8.56624 3.33797 8.26153 3.84562 8.26411C9.26719 8.26196 14.6888 8.26411 20.1098 8.26325C20.4998 8.25464 20.8903 8.41475 21.1355 8.69449C21.3305 8.91011 21.4327 9.19029 21.4284 9.4696C21.4289 13.3964 21.4284 17.3227 21.4289 21.249C21.8503 21.2477 22.2717 21.2516 22.6931 21.2482C22.8455 21.2521 22.9983 21.1819 23.078 21.061C23.1614 20.9417 23.1403 20.795 23.1436 20.6611C23.1408 16.4125 23.145 12.1642 23.1417 7.91594C23.1497 7.76143 23.0508 7.6207 22.9097 7.54323C19.2731 5.31775 15.6389 3.08925 12 0.866781C8.42062 3.05654 4.84219 5.24846 1.26234 7.43822ZM3.76922 9.05988C3.56484 9.09388 3.41672 9.27894 3.42938 9.46702C3.42797 13.3946 3.42891 17.3218 3.42891 21.249C3.88031 21.2495 4.33172 21.2486 4.78359 21.2495C4.6875 20.9749 4.71844 20.6848 4.71422 20.4016C4.71469 19.2392 4.71328 18.0767 4.71516 16.9147C4.71187 16.6276 4.83844 16.3513 5.03625 16.1327C4.84219 15.9175 4.71516 15.6472 4.71516 15.3649C4.71234 14.0596 4.71516 12.7542 4.71422 11.4485C4.71281 11.26 4.74984 11.0693 4.84172 10.8993C5.04703 10.4973 5.51719 10.2258 6.00094 10.2318C7.42219 10.2309 8.84344 10.2318 10.2647 10.2314C10.6237 10.2262 10.9847 10.3618 11.2266 10.6075C11.4563 10.8313 11.5791 11.1395 11.5711 11.4463C11.5711 12.7379 11.5716 14.0295 11.5711 15.321C11.5795 15.618 11.4548 15.9072 11.2486 16.1331C11.4975 16.3939 11.5988 16.7451 11.572 17.0873C11.5706 18.335 11.572 19.583 11.5711 20.8307C11.5748 20.9732 11.5411 21.1126 11.5022 21.2495C11.8341 21.249 12.1659 21.2486 12.4973 21.2495C12.4041 20.9874 12.4317 20.7106 12.4289 20.4399C12.4294 19.2637 12.4275 18.0875 12.4294 16.9117C12.428 16.6264 12.5522 16.3496 12.7519 16.1336C12.5456 15.9085 12.4205 15.6197 12.4289 15.3236C12.4289 14.017 12.4275 12.7099 12.4298 11.4033C12.4247 10.9238 12.7758 10.4664 13.2666 10.3054C13.5197 10.2111 13.7972 10.2331 14.0639 10.2314C15.3441 10.2309 16.6247 10.2327 17.9048 10.2309C18.1008 10.2275 18.2995 10.2469 18.4819 10.3166C18.9572 10.487 19.2895 10.9385 19.2848 11.4072C19.2872 12.7121 19.2853 14.0165 19.2858 15.3214C19.2933 15.6175 19.17 15.9063 18.9637 16.1318C19.1606 16.3518 19.2877 16.6276 19.2848 16.9156C19.2872 18.0772 19.2853 19.2392 19.2858 20.4008C19.282 20.6844 19.3116 20.9745 19.2164 21.2495C19.6678 21.2486 20.1197 21.2495 20.5711 21.249C20.572 17.3941 20.5706 13.5393 20.572 9.68436C20.5664 9.52512 20.6006 9.34522 20.4858 9.20965C20.3911 9.08484 20.2195 9.03965 20.0611 9.04912C14.7797 9.04998 9.49828 9.04912 4.21688 9.04912C4.06781 9.05127 3.91734 9.04051 3.76922 9.05988ZM5.87391 11.0357C5.68125 11.0857 5.55609 11.2686 5.57156 11.4493C5.57156 12.74 5.57063 14.0303 5.57203 15.321C5.54578 15.6021 5.86172 15.788 6.14203 15.7411C7.51734 15.7381 8.89266 15.7428 10.268 15.7389C10.5117 15.7518 10.7292 15.55 10.7133 15.3266C10.7161 14.063 10.7123 12.799 10.7152 11.5354C10.7653 11.2828 10.5661 10.9983 10.2661 11.0185C8.92172 11.0159 7.57734 11.0194 6.23297 11.0172C6.11344 11.0185 5.99109 11.0091 5.87391 11.0357ZM13.605 11.0319C13.4067 11.0745 13.2722 11.2595 13.2858 11.4437C13.2858 12.7357 13.2853 14.0277 13.2863 15.3202C13.267 15.5452 13.485 15.7514 13.7311 15.7389C15.1392 15.7419 16.5483 15.7398 17.9564 15.7402C18.233 15.7647 18.4683 15.5263 18.4294 15.2763C18.4275 13.9993 18.4294 12.7228 18.4284 11.4459C18.45 11.2264 18.2484 11.0151 18.0061 11.0198C16.613 11.0142 15.2198 11.0203 13.8267 11.0168C13.7522 11.0177 13.6777 11.0172 13.605 11.0319ZM5.91609 16.536C5.70328 16.5678 5.55375 16.7636 5.57156 16.9577C5.57156 18.248 5.57063 19.5383 5.57203 20.829C5.55281 21.0481 5.75906 21.2516 5.99859 21.2469C7.42266 21.2512 8.84672 21.2499 10.2708 21.2477C10.5141 21.2594 10.7297 21.0567 10.7133 20.8342C10.7152 19.54 10.7142 18.2459 10.7137 16.9521C10.7203 16.814 10.6542 16.6724 10.5267 16.5954C10.3969 16.5093 10.2291 16.5287 10.0786 16.5256C8.69109 16.5338 7.30266 16.5136 5.91609 16.536ZM13.6055 16.5403C13.4053 16.5833 13.2708 16.7705 13.2858 16.9556C13.2863 18.2484 13.2848 19.5417 13.2867 20.8346C13.2698 21.058 13.4878 21.2602 13.7316 21.2477C15.1547 21.2495 16.5783 21.2512 18.0014 21.2473C18.2395 21.2512 18.4448 21.0493 18.428 20.8311C18.4298 19.5404 18.4284 18.2489 18.4284 16.9582C18.4514 16.7365 18.2489 16.5226 18.0042 16.5282C17.0958 16.5239 16.1878 16.5278 15.2794 16.5265C14.7216 16.5355 14.1614 16.508 13.6055 16.5403Z" fill="#EE0033"/>
<path d="M11.9148 2.76222C12.0446 2.73511 12.1754 2.77728 12.2808 2.84571C13.1148 3.35743 13.951 3.86656 14.7844 4.37914C14.9152 4.45402 15.0038 4.58787 14.9987 4.73161C15.0019 5.24935 15.0015 5.76752 14.9991 6.28526C15.0109 6.49658 14.8088 6.69154 14.5773 6.6868C12.8602 6.68895 11.1427 6.68895 9.42569 6.6868C9.19413 6.69283 8.99069 6.4983 9.00194 6.28698C8.99959 5.76967 8.99913 5.25236 9.00194 4.73505C8.99584 4.59088 9.0835 4.45402 9.21663 4.38043C10.0055 3.89712 10.7949 3.4151 11.5829 2.93136C11.6893 2.86938 11.7896 2.78933 11.9148 2.76222ZM9.85928 4.93001C9.85553 5.25366 9.85881 5.5773 9.85741 5.90094C11.2862 5.90266 12.7149 5.9018 14.1432 5.90137C14.1418 5.57687 14.1474 5.25193 14.1399 4.927C13.4241 4.49534 12.7168 4.05248 12.0001 3.62125C11.2862 4.05678 10.5741 4.49577 9.85928 4.93001Z" fill="#EE0033"/>
<path d="M8.82886 13.0187C9.04918 12.9541 9.2859 12.9981 9.51324 12.9856C9.73825 12.9929 10.0176 12.9378 10.1803 13.1208C10.3973 13.3284 10.2553 13.7169 9.9459 13.7617C9.64684 13.7854 9.34496 13.7673 9.04496 13.7725C8.84152 13.7875 8.63386 13.6631 8.58699 13.4774C8.53074 13.2965 8.64089 13.0911 8.82886 13.0187Z" fill="#EE0033"/>
<path d="M16.5616 13.0115C16.7871 12.9585 17.0238 12.9964 17.2544 12.9852C17.4569 12.993 17.6974 12.9452 17.8601 13.0873C18.049 13.2355 18.0438 13.5352 17.8488 13.6774C17.6562 13.8264 17.3862 13.7562 17.1565 13.7721C16.9062 13.7545 16.5963 13.838 16.4032 13.6464C16.1951 13.4581 16.2855 13.0976 16.5616 13.0115Z" fill="#EE0033"/>
<path d="M8.87957 14.1824C9.19926 14.1449 9.52504 14.172 9.84707 14.166C10.0575 14.1587 10.2572 14.3112 10.2811 14.505C10.32 14.7203 10.1279 14.9425 9.88926 14.9486C9.59301 14.9555 9.29676 14.9516 9.00098 14.9503C8.78442 14.9572 8.58707 14.7892 8.57442 14.5915C8.55332 14.4111 8.68973 14.2298 8.87957 14.1824Z" fill="#EE0033"/>
<path d="M16.3646 14.0867C16.6257 14.0699 16.8887 14.0849 17.1502 14.0789C17.3021 14.0746 17.4732 14.0845 17.5843 14.1935C17.7671 14.3481 17.7498 14.6479 17.5487 14.7827C17.356 14.9188 17.0968 14.8507 16.8732 14.8667C16.6088 14.8499 16.2652 14.9399 16.0834 14.7069C15.8888 14.4859 16.0562 14.1138 16.3646 14.0867Z" fill="#EE0033"/>
<path d="M8.82686 18.5285C9.04764 18.4639 9.28576 18.5078 9.51405 18.4953C9.73764 18.5027 10.0156 18.448 10.1778 18.6301C10.3953 18.8373 10.2533 19.2266 9.94436 19.2714C9.64483 19.2951 9.34342 19.277 9.04295 19.2822C8.83998 19.2969 8.63279 19.1737 8.58545 18.988C8.52826 18.8072 8.63842 18.6009 8.82686 18.5285Z" fill="#EE0033"/>
<path d="M16.5602 18.522C16.7847 18.4677 17.0214 18.5065 17.2516 18.4953C17.4541 18.503 17.6955 18.4544 17.8582 18.5965C18.0485 18.7433 18.0443 19.0427 17.8507 19.1861C17.658 19.3368 17.3866 19.2662 17.1564 19.2821C16.9057 19.2645 16.5949 19.348 16.4022 19.1551C16.1955 18.9673 16.286 18.6085 16.5602 18.522Z" fill="#EE0033"/>
<path d="M8.87872 19.6922C9.10466 19.6543 9.33669 19.6827 9.56544 19.6741C9.77826 19.6745 10.0417 19.6414 10.1884 19.8193C10.3839 20.02 10.2653 20.3766 9.98217 20.4443C9.75248 20.4809 9.51716 20.452 9.28513 20.4615C9.07419 20.4611 8.81544 20.4929 8.67059 20.3181C8.47512 20.116 8.59325 19.7581 8.87872 19.6922Z" fill="#EE0033"/>
<path d="M16.6497 19.6807C16.9595 19.6661 17.2717 19.6734 17.582 19.676C17.7836 19.6751 17.9678 19.8242 17.9945 20.0068C18.0419 20.2333 17.8295 20.465 17.5783 20.4585C17.2825 20.4611 16.9863 20.4633 16.69 20.4577C16.4809 20.4542 16.2991 20.2854 16.2888 20.095C16.2686 19.8982 16.4355 19.7044 16.6497 19.6807Z" fill="#EE0033"/>
</svg>
