<svg id="Capa_1" data-name="Capa 1" xmlns="http://www.w3.org/2000/svg" viewBox="0 0 15.5 18"><defs><style>.cls-1{fill:#223b55;}</style></defs><path class="cls-1" d="M255,251.4a2.33,2.33,0,0,0-2.3,2.3,2.25,2.25,0,1,0,2.3-2.3Z" transform="translate(-248.2 -247)"/><path class="cls-1" d="M257.1,261.8v-.2c-.2-.1-.7-.4-.9-.5l1.6-2.7.9.5a.76.76,0,0,1,.4-.2v-1h1.5a9.07,9.07,0,0,0,1-4,6.7,6.7,0,0,0-13.4,0,9.07,9.07,0,0,0,1,4,25.42,25.42,0,0,0,5.7,7.3,12.7,12.7,0,0,0,1.7-1.7c-.1-.1-.3-.6-.4-.7.2-.1.7-.4.9-.5v-.3ZM255,257a3.3,3.3,0,1,1,3.3-3.3A3.33,3.33,0,0,1,255,257Z" transform="translate(-248.2 -247)"/><path class="cls-1" d="M263.1,262.6c0-.2.1-.5.1-.8s-.1-.6-.1-.8l.6-.3-.5-.9-.6.3-.3-.2a2.51,2.51,0,0,0-.7-.4l-.3-.1v-.7h-1.1v.7a2.07,2.07,0,0,1-.6.2c-.3.1-.5.4-.8.6a1.69,1.69,0,0,0-.6-.3l-.5.9a3.33,3.33,0,0,0,.6.3c0,.2-.1.5-.1.8s.1.6.1.8l-.6.3.5.9.6-.3.3.2a2.51,2.51,0,0,0,.7.4l.3.1v.7h1.1v-.7l.3-.1a1.61,1.61,0,0,0,.7-.4l.3-.2.6.3.5-.9Zm-1.9-.2h-1.1v-1.1h1.1Z" transform="translate(-248.2 -247)"/></svg>