<svg id="Capa_1" data-name="Capa 1" xmlns="http://www.w3.org/2000/svg" viewBox="0 0 18 18"><defs><style>.cls-1{fill:#223b55;}</style></defs><path class="cls-1" d="M258.62,256.53a2.69,2.69,0,0,1-2.62,2.11,2.64,2.64,0,0,1-2.58-2.11h-1.06a3.69,3.69,0,0,0,7.31,0Z" transform="translate(-247 -247)"/><path class="cls-1" d="M260.73,256.53a4.74,4.74,0,0,1-9.42,0H247v.52a.55.55,0,0,0,.36.51l2.17.7a7,7,0,0,0,.29.71l-1,2a.52.52,0,0,0,.1.6l1.49,1.49a.52.52,0,0,0,.6.1l2-1a7,7,0,0,0,.71.29l.7,2.17a.55.55,0,0,0,.51.36h2.14a.53.53,0,0,0,.5-.36l.71-2.17c.26-.09.49-.19.71-.29l2,1a.53.53,0,0,0,.61-.1l1.49-1.49a.52.52,0,0,0,.1-.6l-1-2a5.24,5.24,0,0,0,.29-.71l2.14-.7a.55.55,0,0,0,.36-.51v-.52Z" transform="translate(-247 -247)"/><path class="cls-1" d="M254.52,256.53a1.56,1.56,0,0,0,1.48,1.05,1.62,1.62,0,0,0,1.52-1.05Z" transform="translate(-247 -247)"/><path class="cls-1" d="M256,247a2.11,2.11,0,0,0,0,4.22,2.11,2.11,0,1,0,0-4.22Z" transform="translate(-247 -247)"/><path class="cls-1" d="M261.31,247a2.11,2.11,0,1,0,2.11,2.11A2.12,2.12,0,0,0,261.31,247Z" transform="translate(-247 -247)"/><path class="cls-1" d="M250.73,247a2.11,2.11,0,1,0,2.11,2.11A2.11,2.11,0,0,0,250.73,247Z" transform="translate(-247 -247)"/><path class="cls-1" d="M263.11,251.71a3.17,3.17,0,0,1-1.8.56,3.14,3.14,0,0,1-1.79-.56,3.39,3.39,0,0,0-.66.46,4.82,4.82,0,0,1,1.89,3.3H265V255A3.74,3.74,0,0,0,263.11,251.71Z" transform="translate(-247 -247)"/><path class="cls-1" d="M256,252.27a3.72,3.72,0,0,0-3.65,3.2h7.34A3.77,3.77,0,0,0,256,252.27Z" transform="translate(-247 -247)"/><path class="cls-1" d="M252.52,251.71a3.16,3.16,0,0,1-3.59,0A3.75,3.75,0,0,0,247,255v.52h4.29a4.85,4.85,0,0,1,1.88-3.3A3.65,3.65,0,0,0,252.52,251.71Z" transform="translate(-247 -247)"/></svg>