<svg id="Layer_1" data-name="Layer 1" xmlns="http://www.w3.org/2000/svg" viewBox="0 0 25.01 14"><defs><style>.cls-1{fill:#223b55;}</style></defs><path class="cls-1" d="M209.06,319.42v-1.35l-1.46-.44a3.51,3.51,0,0,0-.34-.85l.73-1.38-.92-1-1.33.76a3.49,3.49,0,0,0-.82-.35l-.43-1.51h-1.3l-.43,1.51a3.68,3.68,0,0,0-.82.35l-1.33-.76-.92,1,.73,1.38a4,4,0,0,0-.34.85l-1.45.44v1.35l1.45.44a4.19,4.19,0,0,0,.34.85l-.73,1.38.92,1,1.33-.75a3.68,3.68,0,0,0,.82.35l.43,1.51h1.3l.43-1.51a3.49,3.49,0,0,0,.82-.35l1.33.75.92-1-.73-1.38a3.68,3.68,0,0,0,.34-.85Zm-5.22.53a1.21,1.21,0,1,1,1.16-1.21A1.19,1.19,0,0,1,203.84,320Z" transform="translate(-184.05 -310.15)"/><path class="cls-1" d="M194.58,315.21A.65.65,0,0,0,195,315a.63.63,0,0,0,0-.88.65.65,0,0,0-.44-.18.62.62,0,1,0,0,1.24Z" transform="translate(-184.05 -310.15)"/><path class="cls-1" d="M199.79,322.82l-.63-.65.77-1.46a4.14,4.14,0,0,1-.19-.49L199,320a1.64,1.64,0,0,1-1.62-1.62,1.62,1.62,0,0,1,1.62-1.62,1.58,1.58,0,0,1,.84.23l.09-.21-.77-1.46,1.38-1.43,1.41.8a4.58,4.58,0,0,1,.46-.2l.46-1.6h1.18v-2.11a.63.63,0,0,0-.63-.63H190.87v1.49a.5.5,0,0,1-.5.5.51.51,0,0,1-.5-.5v-1.49h-5.2a.63.63,0,0,0-.62.63v3.45a2.28,2.28,0,0,1,0,4.51v3.45a.63.63,0,0,0,.62.63h5.2v-1.49a.51.51,0,0,1,.5-.5.5.5,0,0,1,.5.5v1.49Zm-1.53-9.45a.49.49,0,0,1,.69-.13.5.5,0,0,1,.14.69l-3.79,5.59a.5.5,0,0,1-.69.14.51.51,0,0,1-.14-.7l3.79-5.59Zm-4.83.07a1.62,1.62,0,1,1,0,2.3,1.64,1.64,0,0,1,0-2.3Zm-2.56,5.65a.5.5,0,0,1-.5.5.5.5,0,0,1-.5-.5V317.6a.51.51,0,0,1,.5-.5.5.5,0,0,1,.5.5Zm0-3.73a.5.5,0,0,1-.5.5.5.5,0,0,1-.5-.5v-1.48a.5.5,0,0,1,.5-.5.5.5,0,0,1,.5.5Z" transform="translate(-184.05 -310.15)"/><path class="cls-1" d="M202,322.82l0,0,0,0Z" transform="translate(-184.05 -310.15)"/></svg>