<svg id="Capa_1" data-name="Capa 1" xmlns="http://www.w3.org/2000/svg" viewBox="0 0 23.14 18"><defs><style>.cls-1{fill:#223b55;}</style></defs><path class="cls-1" d="M203.81,238.53v14.08h8.33V238h-7.82A.51.51,0,0,0,203.81,238.53Zm6.24,9.86a.52.52,0,0,1-1,0v-1.73a.52.52,0,0,1,1,0Zm-3.63-8.83h3.11a.52.52,0,0,1,.52.52.52.52,0,0,1-.52.52h-3.11a.52.52,0,0,1-.52-.52A.52.52,0,0,1,206.42,239.56Zm0,2.08h3.11a.52.52,0,0,1,0,1h-3.11a.52.52,0,0,1,0-1Zm0,2.08h3.11a.52.52,0,1,1,0,1h-3.11a.52.52,0,1,1,0-1Z" transform="translate(-203.81 -238.01)"/><path class="cls-1" d="M218.84,254.77v-1.13h-15v1.56a.51.51,0,0,0,.51.52h15.21A1,1,0,0,1,218.84,254.77Z" transform="translate(-203.81 -238.01)"/><path class="cls-1" d="M218.84,249h-.35a1,1,0,0,1-.8-1.6l2-2.71a1,1,0,0,1,.8-.39,1,1,0,0,1,.8.39l.2.27v-6.43A.52.52,0,0,0,221,238h-7.82v14.6h5.66Zm-3.05-9.44h3.12a.52.52,0,0,1,.51.52.51.51,0,0,1-.51.52h-3.12a.52.52,0,0,1-.52-.52A.53.53,0,0,1,215.79,239.56Zm0,2.08h3.12a.52.52,0,0,1,0,1h-3.12a.52.52,0,0,1,0-1Zm-.52,2.59a.52.52,0,0,1,.52-.51h3.12a.52.52,0,0,1,0,1h-3.12A.52.52,0,0,1,215.27,244.23Z" transform="translate(-203.81 -238.01)"/><path class="cls-1" d="M222.82,247.8l-2-2.71a.35.35,0,0,0-.54,0l-2,2.71a.34.34,0,0,0,.27.54h1v6.43a.34.34,0,0,0,.34.34h1.36a.34.34,0,0,0,.33-.34v-6.43h1A.34.34,0,0,0,222.82,247.8Z" transform="translate(-203.81 -238.01)"/><path class="cls-1" d="M226.61,252.62h-1v-6.43a.34.34,0,0,0-.33-.34H223.9a.34.34,0,0,0-.34.34v6.43h-1a.34.34,0,0,0-.27.54l2,2.71a.34.34,0,0,0,.54,0l2-2.71A.34.34,0,0,0,226.61,252.62Z" transform="translate(-203.81 -238.01)"/></svg>