<svg width="40" height="40" viewBox="0 0 40 40" fill="none" xmlns="http://www.w3.org/2000/svg">
<g clip-path="url(#clip0_2215:2087)">
<path d="M39.7576 25.6971C39.1515 24.4243 37.697 23.7577 36.4242 24.5456L26.9697 30.7274C26.6667 30.9092 26.6061 31.2728 26.7879 31.5759C26.9697 31.8789 27.3333 31.9395 27.6364 31.7577L37.0303 25.5759C37.5758 25.2728 38.303 25.4546 38.6667 26.1819C38.9697 26.9092 38.7273 27.8183 38.0606 28.1819L22.5455 38.2425C21.6364 38.788 20.5455 38.9092 19.5758 38.6062L11.4545 35.6971C11.3939 35.6971 11.3333 35.6365 11.2121 35.6365L8.48485 35.7577V24.5456C9.87879 24.1819 14.2424 23.3334 16.1818 25.8183C16.5455 26.2425 17.0909 26.5456 17.697 26.5456H24.6667C25.3333 26.5456 25.8788 27.2122 25.8788 28.0001C25.8788 28.788 25.3333 29.4546 24.6667 29.4546H18C17.3333 29.4546 16.7273 29.8183 16.3636 30.4849C16 31.1516 16.0606 32.0001 16.4848 32.6668C16.6667 32.9092 17.0303 32.9698 17.3333 32.788C17.6364 32.6062 17.6364 32.1819 17.4545 31.9395C17.2727 31.6365 17.2727 31.2728 17.3939 31.0304C17.4545 30.9698 17.6364 30.6668 17.9394 30.6668H24.6061C25.9394 30.6668 27.0303 29.4546 27.0303 28.0001C27.0303 26.5456 25.9394 25.3334 24.6061 25.3334H17.697C17.5758 25.3334 17.2727 25.2728 17.0909 25.091C14.9091 22.1819 10.303 22.9092 8.48485 23.2728V22.0001C8.48485 21.6365 8.24242 21.394 7.87879 21.394H0.606061C0.242424 21.394 0 21.6365 0 22.0001V37.8183C0 38.1819 0.242424 38.4243 0.606061 38.4243H7.87879C8.24242 38.4243 8.48485 38.1819 8.48485 37.8183V36.9698L11.1515 36.8486L19.1515 39.6971C20.4848 40.1819 22 40.0001 23.2121 39.2122L38.7273 29.2122C39.8788 28.6062 40.303 26.9698 39.7576 25.6971ZM7.27273 37.2728H1.21212V22.6668H7.27273V37.2728Z" fill="#223B55"/>
<path d="M15.3343 17.5152C15.3949 17.5758 26.9706 24.8485 26.9706 24.8485C27.0919 24.9091 27.2131 24.9091 27.2737 24.9091C27.3949 24.9091 27.5161 24.8485 27.5767 24.8485L39.2737 18.6061C39.4555 18.4849 39.5767 18.3031 39.5767 18.0606V6.96973C39.5767 6.7273 39.3949 6.48488 39.2131 6.42427L27.5767 0.0606357C27.3949 -0.0605765 27.1525 -0.0605765 26.9706 0.0606357C26.304 0.424272 16.7282 5.51518 15.3343 6.24246C15.1525 6.36367 15.0312 6.60609 15.0312 6.78791V17.0303C15.0312 17.2122 15.1525 17.4546 15.3343 17.5152ZM16.2434 16.7273V7.81821L26.6676 13.697V23.2122L16.2434 16.7273ZM27.8797 23.3334V13.7576L31.5161 11.7576V14.6061C31.5161 14.8485 31.6373 15.0303 31.8191 15.1515C32.0009 15.2728 32.2434 15.2728 32.4252 15.1515L35.2737 13.5758C35.4555 13.4546 35.5767 13.2728 35.5767 13.0303V9.51518L38.4252 8.00003V17.7576L27.8797 23.3334ZM23.2131 3.45458L34.304 9.51518V12.7273L32.7282 13.5758V10.7273C32.7282 10.4849 32.607 10.3031 32.4252 10.1818L21.5767 4.36367L23.2131 3.45458ZM27.2737 1.27276L37.6979 6.96973L34.9706 8.48488L24.4858 2.78791L27.2737 1.27276ZM20.304 5.03033L30.8494 10.7273L27.2737 12.6667L16.91 6.78791L20.304 5.03033Z" fill="#223B55"/>
</g>
<defs>
<clipPath id="clip0_2215:2087">
<rect width="40" height="40" fill="white"/>
</clipPath>
</defs>
</svg>
