<svg width="24" height="24" viewBox="0 0 24 24" fill="none" xmlns="http://www.w3.org/2000/svg">
<path d="M15.375 6.375H17.625C17.7245 6.375 17.8198 6.33549 17.8902 6.26517C17.9605 6.19484 18 6.09946 18 6C18 5.90054 17.9605 5.80516 17.8902 5.73484C17.8198 5.66451 17.7245 5.625 17.625 5.625H15.375C15.2755 5.625 15.1802 5.66451 15.1098 5.73484C15.0395 5.80516 15 5.90054 15 6C15 6.09946 15.0395 6.19484 15.1098 6.26517C15.1802 6.33549 15.2755 6.375 15.375 6.375Z" fill="#EE0033"/>
<path d="M18 7.5C18 7.40054 17.9605 7.30516 17.8902 7.23483C17.8198 7.16451 17.7245 7.125 17.625 7.125H15.375C15.2755 7.125 15.1802 7.16451 15.1098 7.23483C15.0395 7.30516 15 7.40054 15 7.5C15 7.59946 15.0395 7.69484 15.1098 7.76517C15.1802 7.83549 15.2755 7.875 15.375 7.875H17.625C17.7245 7.875 17.8198 7.83549 17.8902 7.76517C17.9605 7.69484 18 7.59946 18 7.5Z" fill="#EE0033"/>
<path d="M22.875 12V6.9375C22.875 6.5894 22.7367 6.25556 22.4906 6.00942C22.2444 5.76328 21.9106 5.625 21.5625 5.625C21.2144 5.625 20.8806 5.76328 20.6344 6.00942C20.3883 6.25556 20.25 6.5894 20.25 6.9375V11.1263C20.25 11.1746 20.2437 11.2227 20.2399 11.2709C20.139 11.1609 20.0221 11.0668 19.8931 10.9917C19.7699 10.9226 19.6375 10.8712 19.5 10.8388V4.5C19.5 4.42597 19.4781 4.35359 19.437 4.29199L17.937 2.04199C17.9028 1.99062 17.8564 1.94851 17.8019 1.91938C17.7475 1.89025 17.6867 1.875 17.625 1.875H6.37501C6.31328 1.875 6.2525 1.89025 6.19808 1.91938C6.14365 1.94851 6.09726 1.99062 6.06301 2.04199L4.56301 4.29199C4.52196 4.35359 4.50004 4.42597 4.50001 4.5V10.8388C4.36248 10.8712 4.23016 10.9227 4.1069 10.9918C3.97792 11.0669 3.86102 11.1611 3.76014 11.2711C3.75639 11.2228 3.75001 11.1747 3.75001 11.1264V6.9375C3.75001 6.5894 3.61173 6.25556 3.36559 6.00942C3.11945 5.76328 2.78561 5.625 2.43751 5.625C2.08942 5.625 1.75558 5.76328 1.50944 6.00942C1.2633 6.25556 1.12501 6.5894 1.12501 6.9375V12C1.1211 14.5183 1.89585 16.9762 3.34314 19.0371L3.40468 19.125H3.37501C3.27556 19.125 3.18018 19.1645 3.10985 19.2348C3.03952 19.3052 3.00001 19.4005 3.00001 19.5V21.75C3.00001 21.8495 3.03952 21.9448 3.10985 22.0152C3.18018 22.0855 3.27556 22.125 3.37501 22.125H9.37501C9.47447 22.125 9.56985 22.0855 9.64018 22.0152C9.71051 21.9448 9.75001 21.8495 9.75001 21.75V19.5C9.75001 19.4005 9.71051 19.3052 9.64018 19.2348C9.56985 19.1645 9.47447 19.125 9.37501 19.125H9.00001V16.9907C9.00027 16.3544 8.82036 15.731 8.48109 15.1926L8.12368 14.625H15.8764L15.5189 15.1926C15.1797 15.731 14.9998 16.3544 15 16.9907V19.125H14.625C14.5256 19.125 14.4302 19.1645 14.3598 19.2348C14.2895 19.3052 14.25 19.4005 14.25 19.5V21.75C14.25 21.8495 14.2895 21.9448 14.3598 22.0152C14.4302 22.0855 14.5256 22.125 14.625 22.125H20.625C20.7245 22.125 20.8199 22.0855 20.8902 22.0152C20.9605 21.9448 21 21.8495 21 21.75V19.5C21 19.4005 20.9605 19.3052 20.8902 19.2348C20.8199 19.1645 20.7245 19.125 20.625 19.125H20.5954L20.6569 19.0371C22.1042 16.9762 22.8789 14.5183 22.875 12ZM18.4243 4.125H13.8177L13.5675 2.625H17.4243L18.4243 4.125ZM13.0575 4.125H10.9425L11.1925 2.625H12.8072L13.0575 4.125ZM10.875 4.875H13.125V7.5L12.225 6.825C12.1601 6.77632 12.0812 6.75 12 6.75C11.9189 6.75 11.8399 6.77632 11.775 6.825L10.875 7.5V4.875ZM6.57571 2.625H10.4325L10.1825 4.125H5.5757L6.57571 2.625ZM9.00001 19.875V21.375H3.75001V19.875H9.00001ZM8.25001 19.125H4.32035L3.95765 18.607C2.59877 16.6721 1.87134 14.3644 1.87501 12V6.9375C1.87501 6.78832 1.93428 6.64524 2.03977 6.53975C2.14526 6.43426 2.28833 6.375 2.43751 6.375C2.5867 6.375 2.72977 6.43426 2.83526 6.53975C2.94075 6.64524 3.00001 6.78832 3.00001 6.9375V11.1263C3.00266 11.6821 3.14247 12.2288 3.40704 12.7176L5.42195 16.3125C5.47168 16.3986 5.55359 16.4615 5.64967 16.4873C5.74575 16.513 5.84813 16.4996 5.93428 16.4498C6.02043 16.4001 6.08329 16.3182 6.10905 16.2221C6.1348 16.126 6.12133 16.0236 6.0716 15.9375L4.19975 12.6955H4.19866L4.19953 12.695C4.09844 12.5199 4.07005 12.3123 4.12046 12.1166C4.17088 11.9208 4.29607 11.7527 4.46913 11.6483C4.64218 11.544 4.84929 11.5116 5.04592 11.5583C5.24255 11.605 5.41301 11.727 5.52065 11.8981L7.84644 15.5921C8.11032 16.0108 8.25025 16.4957 8.25001 16.9907V19.125ZM7.65148 13.875L6.15523 11.4987C5.94921 11.1703 5.62531 10.9332 5.25001 10.8361V4.875H10.125V8.25C10.125 8.31964 10.1444 8.38791 10.181 8.44715C10.2176 8.50639 10.27 8.55427 10.3323 8.58541C10.3946 8.61655 10.4643 8.62974 10.5337 8.62349C10.6031 8.61723 10.6693 8.59178 10.725 8.55L12 7.59375L13.275 8.55C13.3307 8.59178 13.397 8.61723 13.4663 8.62349C13.5357 8.62974 13.6054 8.61655 13.6677 8.58541C13.73 8.55427 13.7824 8.50639 13.819 8.44715C13.8556 8.38791 13.875 8.31964 13.875 8.25V4.875H18.75V10.8361C18.3747 10.9332 18.0508 11.1703 17.8447 11.4987L16.3486 13.875H7.65148ZM20.25 21.375H15V19.875H20.25V21.375ZM20.0424 18.607L19.6797 19.125H15.75V16.9907C15.7498 16.4957 15.8897 16.0108 16.1536 15.592L18.4794 11.898C18.587 11.727 18.7575 11.605 18.9541 11.5583C19.1507 11.5116 19.3578 11.5439 19.5309 11.6483C19.704 11.7527 19.8291 11.9208 19.8796 12.1165C19.93 12.3122 19.9016 12.5199 19.8005 12.6949L19.8014 12.6954H19.8003L17.9284 15.9375C17.8787 16.0236 17.8652 16.126 17.891 16.2221C17.9167 16.3182 17.9796 16.4001 18.0658 16.4498C18.1519 16.4996 18.2543 16.513 18.3504 16.4873C18.4464 16.4615 18.5283 16.3986 18.5781 16.3125L20.593 12.7178C20.8576 12.2289 20.9974 11.6822 21 11.1263V6.9375C21 6.78832 21.0593 6.64524 21.1648 6.53975C21.2703 6.43426 21.4133 6.375 21.5625 6.375C21.7117 6.375 21.8548 6.43426 21.9603 6.53975C22.0658 6.64524 22.125 6.78832 22.125 6.9375V12C22.1287 14.3644 21.4013 16.6721 20.0424 18.607Z" fill="#EE0033"/>
</svg>
