<svg width="36" height="36" viewBox="0 0 36 36" fill="none" xmlns="http://www.w3.org/2000/svg">
<path d="M1.12488 27H5.62488V34.875C5.62488 35.0242 5.68414 35.1673 5.78963 35.2727C5.89512 35.3782 6.0382 35.4375 6.18738 35.4375H29.8124C29.9616 35.4375 30.1046 35.3782 30.2101 35.2727C30.3156 35.1673 30.3749 35.0242 30.3749 34.875V27H34.8749C34.9861 27 35.0948 26.967 35.1873 26.9052C35.2798 26.8434 35.3519 26.7555 35.3945 26.6527C35.437 26.55 35.4482 26.4369 35.4265 26.3278C35.4048 26.2187 35.3512 26.1185 35.2726 26.0398L30.2101 20.9773C30.1046 20.8718 29.9616 20.8125 29.8124 20.8125H6.18738C6.03821 20.8125 5.89516 20.8718 5.78969 20.9773L0.727193 26.0398C0.64855 26.1185 0.594996 26.2187 0.573302 26.3278C0.551608 26.4369 0.562747 26.55 0.605311 26.6527C0.647876 26.7555 0.719954 26.8434 0.812435 26.9052C0.904915 26.967 1.01365 27 1.12488 27ZM6.74988 27H12.9374C13.0866 27 13.2296 26.9407 13.3351 26.8352L17.4374 22.7329V34.3125H6.74988V27ZM29.2499 34.3125H18.5624V22.7329L22.6647 26.8352C22.7702 26.9407 22.9132 27 23.0624 27H29.2499V34.3125ZM29.5795 21.9375L33.517 25.875H23.2953L19.3578 21.9375H29.5795ZM6.42026 21.9375H16.642L12.7045 25.875H2.48276L6.42026 21.9375Z" fill="#EE0033"/>
<path fill-rule="evenodd" clip-rule="evenodd" d="M5.64708 20.836C5.79004 20.693 5.98396 20.6126 6.18617 20.6125H29.8112C30.0134 20.6126 30.2074 20.6929 30.3503 20.8359M30.3503 20.8359L35.4128 25.8984C35.5194 26.0051 35.592 26.141 35.6214 26.2888C35.6509 26.4367 35.6358 26.59 35.5781 26.7293C35.5204 26.8686 35.4226 26.9877 35.2973 27.0715C35.1719 27.1553 35.0245 27.2 34.8737 27.2H30.5737V34.875C30.5737 35.0773 30.4934 35.2712 30.3504 35.4142C30.2074 35.5572 30.0134 35.6375 29.8112 35.6375H6.18621C5.98398 35.6375 5.79004 35.5572 5.64704 35.4142C5.50404 35.2712 5.42371 35.0773 5.42371 34.875V27.2H1.12371C0.972924 27.2 0.825491 27.1553 0.700129 27.0715C0.574767 26.9877 0.47706 26.8686 0.419361 26.7293C0.361663 26.59 0.346563 26.4367 0.375971 26.2888C0.405378 26.1409 0.477973 26.0051 0.584578 25.8985L5.64708 20.836M6.18621 21.0125C6.09009 21.0126 5.99792 21.0508 5.92996 21.1188L0.867464 26.1813C0.867456 26.1813 0.867471 26.1813 0.867464 26.1813C0.816795 26.232 0.782268 26.2966 0.76829 26.3669C0.754309 26.4372 0.761487 26.51 0.788918 26.5763C0.816348 26.6425 0.862798 26.6991 0.922397 26.7389C0.981984 26.7788 1.05204 26.8 1.12371 26.8C1.12372 26.8 1.12369 26.8 1.12371 26.8H5.82371V34.875C5.82371 34.9712 5.8619 35.0634 5.92988 35.1314C5.99786 35.1994 6.09007 35.2375 6.18621 35.2375H29.8112C29.9074 35.2375 29.9996 35.1994 30.0675 35.1314C30.1355 35.0634 30.1737 34.9712 30.1737 34.875V26.8H34.8737C34.9454 26.8 35.0154 26.7788 35.075 26.7389C35.1346 26.6991 35.1811 26.6425 35.2085 26.5763C35.2359 26.51 35.2431 26.4372 35.2291 26.3669C35.2151 26.2965 35.1806 26.232 35.13 26.1813L30.0675 21.1188C29.9995 21.0508 29.9073 21.0126 29.8112 21.0125M6.18621 21.0125C6.18619 21.0125 6.18622 21.0125 6.18621 21.0125V21.0125ZM29.8112 21.0125H6.18621H29.8112ZM6.33624 21.7375H17.1237L12.7862 26.075H1.99874L6.33624 21.7375ZM6.50193 22.1375L2.96443 25.675H12.6205L16.158 22.1375H6.50193ZM18.8737 21.7375H29.6612L33.9987 26.075H23.2112L18.8737 21.7375ZM19.8394 22.1375L23.3769 25.675H33.033L29.4955 22.1375H19.8394ZM17.6362 22.2501V34.5125H6.54871V26.8H12.9362C12.9362 26.8 12.9362 26.8 12.9362 26.8C13.0323 26.8 13.1245 26.7618 13.1925 26.6938L17.6362 22.2501ZM18.3612 22.2501L22.8049 26.6938C22.8729 26.7618 22.9651 26.8 23.0612 26.8C23.0612 26.8 23.0612 26.8 23.0612 26.8H29.4487V34.5125H18.3612V22.2501ZM17.2362 23.2158L13.4753 26.9766C13.4753 26.9766 13.4753 26.9766 13.4753 26.9766C13.3324 27.1196 13.1385 27.2 12.9363 27.2H6.94871V34.1125H17.2362V23.2158ZM18.7612 23.2158V34.1125H29.0487V27.2H23.0612C22.859 27.2 22.6651 27.1197 22.5221 26.9767C22.5221 26.9767 22.5221 26.9767 22.5221 26.9767L18.7612 23.2158Z" fill="#EE0033"/>
<path d="M8.90775 11.8046L10.3635 12.0476C10.55 12.7929 10.8455 13.5065 11.2404 14.1654L10.3832 15.3664C10.3058 15.4747 10.2693 15.6069 10.2802 15.7396C10.2912 15.8722 10.3488 15.9967 10.4428 16.0909L12.0341 17.6822C12.1282 17.7763 12.2527 17.834 12.3853 17.8451C12.518 17.8561 12.6503 17.8197 12.7586 17.7424L13.9596 16.884C14.6184 17.2793 15.332 17.575 16.0774 17.7615L16.3204 19.2178C16.3423 19.3491 16.4101 19.4683 16.5116 19.5543C16.6132 19.6403 16.7419 19.6875 16.875 19.6875H19.125C19.2581 19.6875 19.3868 19.6403 19.4884 19.5543C19.5899 19.4683 19.6577 19.3491 19.6796 19.2178L19.9226 17.7615C20.668 17.575 21.3816 17.2793 22.0404 16.884L23.2414 17.7424C23.3497 17.8197 23.482 17.8561 23.6147 17.8451C23.7473 17.834 23.8718 17.7763 23.9659 17.6822L25.5572 16.0909C25.6512 15.9967 25.7088 15.8722 25.7198 15.7396C25.7307 15.6069 25.6942 15.4747 25.6168 15.3664L24.7596 14.1654C25.1545 13.5065 25.45 12.7929 25.6365 12.0476L27.0923 11.8046C27.2236 11.7828 27.3429 11.7151 27.429 11.6135C27.5152 11.512 27.5624 11.3831 27.5625 11.25V9C27.5624 8.86685 27.5152 8.73804 27.429 8.63649C27.3429 8.53493 27.2236 8.46721 27.0923 8.44537L25.6365 8.20237C25.4502 7.45707 25.1547 6.74342 24.7596 6.08456L25.6168 4.88363C25.6942 4.77533 25.7307 4.6431 25.7198 4.51045C25.7088 4.3778 25.6512 4.25331 25.5572 4.15913L23.9659 2.56781C23.8718 2.47368 23.7473 2.41597 23.6147 2.40495C23.482 2.39393 23.3497 2.43031 23.2414 2.50763L22.0404 3.366C21.3817 2.97055 20.668 2.67484 19.9226 2.4885L19.6796 1.03219C19.6577 0.900946 19.5899 0.781738 19.4884 0.695744C19.3868 0.60975 19.2581 0.562539 19.125 0.5625H16.875C16.7419 0.562539 16.6132 0.60975 16.5116 0.695744C16.4101 0.781738 16.3423 0.900946 16.3204 1.03219L16.0774 2.4885C15.332 2.67484 14.6183 2.97055 13.9596 3.366L12.7586 2.50763C12.6503 2.43031 12.518 2.39393 12.3853 2.40495C12.2527 2.41597 12.1282 2.47368 12.0341 2.56781L10.4428 4.15913C10.3488 4.25331 10.2912 4.3778 10.2802 4.51045C10.2693 4.6431 10.3058 4.77533 10.3832 4.88363L11.2404 6.08456C10.8453 6.74342 10.5498 7.45707 10.3635 8.20237L8.90775 8.44537C8.77641 8.46721 8.65707 8.53493 8.57096 8.63649C8.48485 8.73804 8.43756 8.86685 8.4375 9V11.25C8.43756 11.3831 8.48485 11.512 8.57096 11.6135C8.65707 11.7151 8.77641 11.7828 8.90775 11.8046ZM9.5625 9.47644L10.9215 9.25144C11.0341 9.23263 11.1384 9.17999 11.2203 9.10051C11.3023 9.02103 11.3582 8.91849 11.3805 8.8065C11.5519 7.93869 11.8937 7.11351 12.3863 6.37875C12.4499 6.28345 12.483 6.17097 12.481 6.05636C12.479 5.94176 12.442 5.83051 12.375 5.7375L11.5751 4.617L12.4926 3.70012L13.6125 4.5C13.7055 4.56645 13.8165 4.60301 13.9307 4.60482C14.045 4.60663 14.157 4.5736 14.2521 4.51012C14.9863 4.01798 15.8109 3.67633 16.6781 3.50494C16.7902 3.48273 16.8929 3.42692 16.9725 3.34493C17.0521 3.26293 17.1048 3.15864 17.1236 3.04594L17.3514 1.6875H18.6486L18.8736 3.04706C18.8924 3.15976 18.9451 3.26405 19.0247 3.34605C19.1043 3.42805 19.207 3.48386 19.3191 3.50606C20.1868 3.67724 21.012 4.0189 21.7468 4.51125C21.8421 4.57481 21.9544 4.60778 22.0689 4.60577C22.1834 4.60376 22.2945 4.56686 22.3875 4.5L23.5086 3.699L24.426 4.61588L23.625 5.7375C23.5586 5.83046 23.522 5.94145 23.5202 6.0557C23.5184 6.16995 23.5514 6.28205 23.6149 6.37706C24.1072 7.11131 24.449 7.9359 24.6206 8.80312C24.6429 8.91511 24.6988 9.01766 24.7808 9.09713C24.8628 9.17661 24.967 9.22925 25.0796 9.24806L26.4386 9.47306V10.7702L25.0796 10.9952C24.967 11.014 24.8628 11.0666 24.7808 11.1461C24.6988 11.2256 24.6429 11.3281 24.6206 11.4401C24.4488 12.3075 24.107 13.1322 23.6149 13.8668C23.55 13.9624 23.5162 14.0757 23.518 14.1912C23.5198 14.3068 23.5572 14.4189 23.625 14.5125L24.426 15.6375L23.5086 16.5544L22.3875 15.75C22.2945 15.6836 22.1835 15.647 22.0693 15.6452C21.955 15.6434 21.843 15.6764 21.7479 15.7399C21.0135 16.2318 20.189 16.5734 19.3219 16.7451C19.2098 16.7673 19.1071 16.8231 19.0275 16.9051C18.9479 16.9871 18.8952 17.0914 18.8764 17.2041L18.6486 18.5625H17.3514L17.1264 17.2029C17.1076 17.0902 17.0549 16.9859 16.9753 16.9039C16.8957 16.822 16.793 16.7661 16.6809 16.7439C15.8138 16.5723 14.9893 16.2306 14.2549 15.7387C14.1595 15.6748 14.0468 15.6416 13.9319 15.6436C13.8171 15.6457 13.7056 15.6828 13.6125 15.75L12.4914 16.551L11.574 15.6341L12.375 14.5125C12.4413 14.4196 12.4778 14.3087 12.4796 14.1946C12.4814 14.0804 12.4485 13.9685 12.3851 13.8735C11.893 13.1389 11.5512 12.3142 11.3794 11.4469C11.3571 11.3349 11.3012 11.2323 11.2192 11.1529C11.1372 11.0734 11.033 11.0207 10.9204 11.0019L9.5625 10.7736V9.47644Z" fill="#EE0033"/>
<path d="M18 14.625C18.89 14.625 19.76 14.3611 20.5001 13.8666C21.2401 13.3721 21.8169 12.6693 22.1575 11.8471C22.4981 11.0248 22.5872 10.12 22.4135 9.2471C22.2399 8.37418 21.8113 7.57236 21.182 6.94302C20.5526 6.31368 19.7508 5.8851 18.8779 5.71147C18.005 5.53783 17.1002 5.62695 16.2779 5.96754C15.4557 6.30814 14.7529 6.88491 14.2584 7.62494C13.7639 8.36496 13.5 9.23499 13.5 10.125C13.5013 11.3181 13.9759 12.4619 14.8195 13.3055C15.6631 14.1491 16.8069 14.6237 18 14.625ZM18 6.75C18.6675 6.75 19.32 6.94794 19.875 7.31879C20.4301 7.68964 20.8626 8.21674 21.1181 8.83344C21.3735 9.45015 21.4404 10.1287 21.3102 10.7834C21.1799 11.4381 20.8585 12.0395 20.3865 12.5115C19.9145 12.9835 19.3131 13.3049 18.6584 13.4352C18.0037 13.5654 17.3251 13.4985 16.7084 13.2431C16.0917 12.9876 15.5646 12.5551 15.1938 12.0001C14.8229 11.445 14.625 10.7925 14.625 10.125C14.6259 9.23017 14.9818 8.37224 15.6145 7.7395C16.2472 7.10676 17.1052 6.7509 18 6.75Z" fill="#EE0033"/>
<path d="M28.1249 7.31262H29.2499V1.12511C29.2499 0.975929 29.3091 0.832855 29.4146 0.727365C29.5201 0.621876 29.6632 0.562613 29.8124 0.562613H33.1874C33.3366 0.562613 33.4796 0.621876 33.5851 0.727365C33.6906 0.832855 33.7499 0.975929 33.7499 1.12511V7.31262H34.8749C34.9861 7.31264 35.0948 7.34564 35.1873 7.40745C35.2798 7.46926 35.3519 7.55711 35.3945 7.65987C35.437 7.76264 35.4482 7.87572 35.4265 7.98482C35.4048 8.09392 35.3512 8.19414 35.2726 8.27281L31.8976 11.6478C31.7921 11.7533 31.649 11.8125 31.4999 11.8125C31.3507 11.8125 31.2077 11.7533 31.1022 11.6478L27.7272 8.27281C27.6485 8.19414 27.595 8.09392 27.5733 7.98482C27.5516 7.87572 27.5627 7.76264 27.6053 7.65987C27.6479 7.55711 27.72 7.46926 27.8124 7.40745C27.9049 7.34564 28.0136 7.31264 28.1249 7.31262ZM31.4999 10.4547L33.517 8.43762H33.1874C33.0382 8.43762 32.8951 8.37835 32.7896 8.27287C32.6841 8.16738 32.6249 8.0243 32.6249 7.87512V1.68761H30.3749V7.87512C30.3749 8.0243 30.3156 8.16738 30.2101 8.27287C30.1046 8.37835 29.9616 8.43762 29.8124 8.43762H29.4828L31.4999 10.4547Z" fill="#EE0033"/>
<path fill-rule="evenodd" clip-rule="evenodd" d="M30.9596 11.7892C31.1026 11.9321 31.2965 12.0125 31.4987 12.0125C31.7009 12.0125 31.8948 11.9321 32.0378 11.7892L35.4128 8.41418C35.5194 8.30754 35.592 8.17167 35.6214 8.02378C35.6509 7.87589 35.6358 7.7226 35.5781 7.58329C35.5204 7.44399 35.4227 7.32491 35.2973 7.24113C35.1719 7.15734 35.0245 7.1126 34.8738 7.11257H33.9487V1.12506C33.9487 0.922837 33.8684 0.728892 33.7254 0.585896C33.5824 0.442899 33.3884 0.362565 33.1862 0.362565H29.8112C29.609 0.362565 29.415 0.442899 29.272 0.585896C29.129 0.728892 29.0487 0.922837 29.0487 1.12506V7.11257H28.1237C27.9729 7.1126 27.8255 7.15734 27.7001 7.24113C27.5748 7.32491 27.4771 7.44399 27.4194 7.58329C27.3617 7.7226 27.3466 7.87589 27.376 8.02378C27.4054 8.17167 27.478 8.30752 27.5846 8.41416L30.9596 11.7892ZM31.2424 11.5063L27.8675 8.13136C27.8675 8.13135 27.8675 8.13136 27.8675 8.13136C27.8168 8.08066 27.7823 8.01607 27.7683 7.94577C27.7543 7.87546 27.7615 7.80258 27.7889 7.73636C27.8163 7.67013 27.8628 7.61352 27.9224 7.57369C27.982 7.53386 28.052 7.51259 28.1237 7.51257C28.1237 7.51257 28.1237 7.51257 28.1237 7.51257H29.4487V1.12506C29.4487 1.02892 29.4869 0.93672 29.5549 0.868738C29.6229 0.800756 29.7151 0.762565 29.8112 0.762565H33.1862C33.2824 0.762565 33.3746 0.800756 33.4425 0.868738C33.5105 0.93672 33.5487 1.02892 33.5487 1.12506V7.51257H34.8737C34.8737 7.51257 34.8737 7.51257 34.8737 7.51257C34.9453 7.51259 35.0154 7.53386 35.075 7.57369C35.1346 7.61352 35.1811 7.67013 35.2085 7.73636C35.2359 7.80258 35.2431 7.87546 35.2291 7.94577C35.2151 8.01607 35.1806 8.08064 35.13 8.13134M31.755 11.5063C31.755 11.5063 31.755 11.5063 31.755 11.5063L35.13 8.13134L31.755 11.5063ZM31.755 11.5063C31.687 11.5743 31.5948 11.6125 31.4987 11.6125C31.4026 11.6125 31.3104 11.5743 31.2424 11.5063M31.4987 10.7375L33.9987 8.23757H33.1862C33.0901 8.23757 32.9979 8.19938 32.9299 8.1314C32.8619 8.06341 32.8237 7.97121 32.8237 7.87507V1.48757H30.1737V7.87507C30.1737 7.97121 30.1355 8.06341 30.0675 8.1314C29.9996 8.19938 29.9073 8.23757 29.8112 8.23757H28.9987L31.4987 10.7375ZM29.9514 8.62457C30.1015 8.59649 30.2409 8.52373 30.3504 8.41424C30.4934 8.27124 30.5737 8.0773 30.5737 7.87507V1.88756H32.4237V7.87507C32.4237 8.0773 32.504 8.27124 32.647 8.41424C32.7565 8.52373 32.8959 8.59649 33.046 8.62457L31.4987 10.1719L29.9514 8.62457Z" fill="#EE0033"/>
<path d="M4.10219 19.5227C4.20768 19.6281 4.35073 19.6874 4.49988 19.6874C4.64903 19.6874 4.79208 19.6281 4.89757 19.5227L8.27257 16.1477C8.35121 16.069 8.40476 15.9688 8.42646 15.8597C8.44815 15.7506 8.43701 15.6375 8.39445 15.5348C8.35188 15.432 8.27981 15.3441 8.18733 15.2823C8.09484 15.2205 7.98611 15.1875 7.87488 15.1875H6.74988V9C6.74988 8.85082 6.69062 8.70774 6.58513 8.60225C6.47964 8.49676 6.33656 8.4375 6.18738 8.4375H2.81238C2.6632 8.4375 2.52012 8.49676 2.41463 8.60225C2.30914 8.70774 2.24988 8.85082 2.24988 9V15.1875H1.12488C1.01365 15.1875 0.904915 15.2205 0.812435 15.2823C0.719954 15.3441 0.647876 15.432 0.605311 15.5348C0.562747 15.6375 0.551608 15.7506 0.573302 15.8597C0.594996 15.9688 0.64855 16.069 0.727193 16.1477L4.10219 19.5227ZM2.81238 16.3125C2.96156 16.3125 3.10464 16.2532 3.21013 16.1477C3.31562 16.0423 3.37488 15.8992 3.37488 15.75V9.5625H5.62488V15.75C5.62488 15.8992 5.68414 16.0423 5.78963 16.1477C5.89512 16.2532 6.0382 16.3125 6.18738 16.3125H6.51701L4.49988 18.3296L2.48276 16.3125H2.81238Z" fill="#EE0033"/>
</svg>
