<svg width="36" height="36" viewBox="0 0 36 36" fill="none" xmlns="http://www.w3.org/2000/svg">
<path d="M1.1239 27H5.6239V34.875C5.6239 35.0242 5.68317 35.1673 5.78866 35.2727C5.89415 35.3782 6.03722 35.4375 6.1864 35.4375H29.8114C29.9606 35.4375 30.1037 35.3782 30.2092 35.2727C30.3146 35.1673 30.3739 35.0242 30.3739 34.875V27H34.8739C34.9851 27 35.0939 26.967 35.1863 26.9052C35.2788 26.8434 35.3509 26.7555 35.3935 26.6527C35.436 26.55 35.4472 26.4369 35.4255 26.3278C35.4038 26.2187 35.3502 26.1185 35.2716 26.0398L30.2091 20.9773C30.1036 20.8718 29.9606 20.8125 29.8114 20.8125H6.1864C6.03723 20.8125 5.89418 20.8718 5.78872 20.9773L0.726216 26.0398C0.647573 26.1185 0.59402 26.2187 0.572325 26.3278C0.550631 26.4369 0.56177 26.55 0.604335 26.6527C0.646899 26.7555 0.718978 26.8434 0.811458 26.9052C0.903939 26.967 1.01267 27 1.1239 27ZM6.7489 27H12.9364C13.0856 27 13.2286 26.9407 13.3341 26.8352L17.4364 22.7329V34.3125H6.7489V27ZM29.2489 34.3125H18.5614V22.7329L22.6637 26.8352C22.7692 26.9407 22.9122 27 23.0614 27H29.2489V34.3125ZM29.5785 21.9375L33.516 25.875H23.2943L19.3568 21.9375H29.5785ZM6.41928 21.9375H16.641L12.7035 25.875H2.48178L6.41928 21.9375Z" fill="#EE0033"/>
<path fill-rule="evenodd" clip-rule="evenodd" d="M5.64708 20.836C5.79004 20.693 5.98396 20.6126 6.18617 20.6125H29.8112C30.0134 20.6126 30.2074 20.6929 30.3503 20.8359M30.3503 20.8359L35.4128 25.8984C35.5194 26.0051 35.592 26.141 35.6214 26.2888C35.6509 26.4367 35.6358 26.59 35.5781 26.7293C35.5204 26.8686 35.4226 26.9877 35.2973 27.0715C35.1719 27.1553 35.0245 27.2 34.8737 27.2H30.5737V34.875C30.5737 35.0773 30.4934 35.2712 30.3504 35.4142C30.2074 35.5572 30.0134 35.6375 29.8112 35.6375H6.18621C5.98398 35.6375 5.79004 35.5572 5.64704 35.4142C5.50404 35.2712 5.42371 35.0773 5.42371 34.875V27.2H1.12371C0.972924 27.2 0.825491 27.1553 0.700129 27.0715C0.574767 26.9877 0.47706 26.8686 0.419361 26.7293C0.361663 26.59 0.346563 26.4367 0.375971 26.2888C0.405378 26.1409 0.477973 26.0051 0.584578 25.8985L5.64708 20.836M6.18621 21.0125C6.09009 21.0126 5.99792 21.0508 5.92996 21.1188L0.867464 26.1813C0.867456 26.1813 0.867471 26.1813 0.867464 26.1813C0.816795 26.232 0.782268 26.2966 0.76829 26.3669C0.754309 26.4372 0.761487 26.51 0.788918 26.5763C0.816348 26.6425 0.862798 26.6991 0.922397 26.7389C0.981984 26.7788 1.05204 26.8 1.12371 26.8C1.12372 26.8 1.12369 26.8 1.12371 26.8H5.82371V34.875C5.82371 34.9712 5.8619 35.0634 5.92988 35.1314C5.99786 35.1994 6.09007 35.2375 6.18621 35.2375H29.8112C29.9074 35.2375 29.9996 35.1994 30.0675 35.1314C30.1355 35.0634 30.1737 34.9712 30.1737 34.875V26.8H34.8737C34.9454 26.8 35.0154 26.7788 35.075 26.7389C35.1346 26.6991 35.1811 26.6425 35.2085 26.5763C35.2359 26.51 35.2431 26.4372 35.2291 26.3669C35.2151 26.2965 35.1806 26.232 35.13 26.1813L30.0675 21.1188C29.9995 21.0508 29.9073 21.0126 29.8112 21.0125M6.18621 21.0125C6.18619 21.0125 6.18622 21.0125 6.18621 21.0125V21.0125ZM29.8112 21.0125H6.18621H29.8112ZM6.33624 21.7375H17.1237L12.7862 26.075H1.99874L6.33624 21.7375ZM6.50193 22.1375L2.96443 25.675H12.6205L16.158 22.1375H6.50193ZM18.8737 21.7375H29.6612L33.9987 26.075H23.2112L18.8737 21.7375ZM19.8394 22.1375L23.3769 25.675H33.033L29.4955 22.1375H19.8394ZM17.6362 22.2501V34.5125H6.54871V26.8H12.9362C12.9362 26.8 12.9362 26.8 12.9362 26.8C13.0323 26.8 13.1245 26.7618 13.1925 26.6938L17.6362 22.2501ZM18.3612 22.2501L22.8049 26.6938C22.8729 26.7618 22.9651 26.8 23.0612 26.8C23.0612 26.8 23.0612 26.8 23.0612 26.8H29.4487V34.5125H18.3612V22.2501ZM17.2362 23.2158L13.4753 26.9766C13.4753 26.9766 13.4753 26.9766 13.4753 26.9766C13.3324 27.1196 13.1385 27.2 12.9363 27.2H6.94871V34.1125H17.2362V23.2158ZM18.7612 23.2158V34.1125H29.0487V27.2H23.0612C22.859 27.2 22.6651 27.1197 22.5221 26.9767C22.5221 26.9767 22.5221 26.9767 22.5221 26.9767L18.7612 23.2158Z" fill="#EE0033"/>
<path d="M8.90775 11.8046L10.3635 12.0476C10.55 12.7929 10.8455 13.5065 11.2404 14.1654L10.3832 15.3664C10.3058 15.4747 10.2693 15.6069 10.2802 15.7396C10.2912 15.8722 10.3488 15.9967 10.4428 16.0909L12.0341 17.6822C12.1282 17.7763 12.2527 17.834 12.3853 17.8451C12.518 17.8561 12.6503 17.8197 12.7586 17.7424L13.9596 16.884C14.6184 17.2793 15.332 17.575 16.0774 17.7615L16.3204 19.2178C16.3423 19.3491 16.4101 19.4683 16.5116 19.5543C16.6132 19.6403 16.7419 19.6875 16.875 19.6875H19.125C19.2581 19.6875 19.3868 19.6403 19.4884 19.5543C19.5899 19.4683 19.6577 19.3491 19.6796 19.2178L19.9226 17.7615C20.668 17.575 21.3816 17.2793 22.0404 16.884L23.2414 17.7424C23.3497 17.8197 23.482 17.8561 23.6147 17.8451C23.7473 17.834 23.8718 17.7763 23.9659 17.6822L25.5572 16.0909C25.6512 15.9967 25.7088 15.8722 25.7198 15.7396C25.7307 15.6069 25.6942 15.4747 25.6168 15.3664L24.7596 14.1654C25.1545 13.5065 25.45 12.7929 25.6365 12.0476L27.0923 11.8046C27.2236 11.7828 27.3429 11.7151 27.429 11.6135C27.5152 11.512 27.5624 11.3831 27.5625 11.25V9C27.5624 8.86685 27.5152 8.73804 27.429 8.63649C27.3429 8.53493 27.2236 8.46721 27.0923 8.44537L25.6365 8.20237C25.4502 7.45707 25.1547 6.74342 24.7596 6.08456L25.6168 4.88363C25.6942 4.77533 25.7307 4.6431 25.7198 4.51045C25.7088 4.3778 25.6512 4.25331 25.5572 4.15913L23.9659 2.56781C23.8718 2.47368 23.7473 2.41597 23.6147 2.40495C23.482 2.39393 23.3497 2.43031 23.2414 2.50763L22.0404 3.366C21.3817 2.97055 20.668 2.67484 19.9226 2.4885L19.6796 1.03219C19.6577 0.900946 19.5899 0.781738 19.4884 0.695744C19.3868 0.60975 19.2581 0.562539 19.125 0.5625H16.875C16.7419 0.562539 16.6132 0.60975 16.5116 0.695744C16.4101 0.781738 16.3423 0.900946 16.3204 1.03219L16.0774 2.4885C15.332 2.67484 14.6183 2.97055 13.9596 3.366L12.7586 2.50763C12.6503 2.43031 12.518 2.39393 12.3853 2.40495C12.2527 2.41597 12.1282 2.47368 12.0341 2.56781L10.4428 4.15913C10.3488 4.25331 10.2912 4.3778 10.2802 4.51045C10.2693 4.6431 10.3058 4.77533 10.3832 4.88363L11.2404 6.08456C10.8453 6.74342 10.5498 7.45707 10.3635 8.20237L8.90775 8.44537C8.77641 8.46721 8.65707 8.53493 8.57096 8.63649C8.48485 8.73804 8.43756 8.86685 8.4375 9V11.25C8.43756 11.3831 8.48485 11.512 8.57096 11.6135C8.65707 11.7151 8.77641 11.7828 8.90775 11.8046ZM9.5625 9.47644L10.9215 9.25144C11.0341 9.23263 11.1384 9.17999 11.2203 9.10051C11.3023 9.02103 11.3582 8.91849 11.3805 8.8065C11.5519 7.93869 11.8937 7.11351 12.3863 6.37875C12.4499 6.28345 12.483 6.17097 12.481 6.05636C12.479 5.94176 12.442 5.83051 12.375 5.7375L11.5751 4.617L12.4926 3.70012L13.6125 4.5C13.7055 4.56645 13.8165 4.60301 13.9307 4.60482C14.045 4.60663 14.157 4.5736 14.2521 4.51012C14.9863 4.01798 15.8109 3.67633 16.6781 3.50494C16.7902 3.48273 16.8929 3.42692 16.9725 3.34493C17.0521 3.26293 17.1048 3.15864 17.1236 3.04594L17.3514 1.6875H18.6486L18.8736 3.04706C18.8924 3.15976 18.9451 3.26405 19.0247 3.34605C19.1043 3.42805 19.207 3.48386 19.3191 3.50606C20.1868 3.67724 21.012 4.0189 21.7468 4.51125C21.8421 4.57481 21.9544 4.60778 22.0689 4.60577C22.1834 4.60376 22.2945 4.56686 22.3875 4.5L23.5086 3.699L24.426 4.61588L23.625 5.7375C23.5586 5.83046 23.522 5.94145 23.5202 6.0557C23.5184 6.16995 23.5514 6.28205 23.6149 6.37706C24.1072 7.11131 24.449 7.9359 24.6206 8.80312C24.6429 8.91511 24.6988 9.01766 24.7808 9.09713C24.8628 9.17661 24.967 9.22925 25.0796 9.24806L26.4386 9.47306V10.7702L25.0796 10.9952C24.967 11.014 24.8628 11.0666 24.7808 11.1461C24.6988 11.2256 24.6429 11.3281 24.6206 11.4401C24.4488 12.3075 24.107 13.1322 23.6149 13.8668C23.55 13.9624 23.5162 14.0757 23.518 14.1912C23.5198 14.3068 23.5572 14.4189 23.625 14.5125L24.426 15.6375L23.5086 16.5544L22.3875 15.75C22.2945 15.6836 22.1835 15.647 22.0693 15.6452C21.955 15.6434 21.843 15.6764 21.7479 15.7399C21.0135 16.2318 20.189 16.5734 19.3219 16.7451C19.2098 16.7673 19.1071 16.8231 19.0275 16.9051C18.9479 16.9871 18.8952 17.0914 18.8764 17.2041L18.6486 18.5625H17.3514L17.1264 17.2029C17.1076 17.0902 17.0549 16.9859 16.9753 16.9039C16.8957 16.822 16.793 16.7661 16.6809 16.7439C15.8138 16.5723 14.9893 16.2306 14.2549 15.7387C14.1595 15.6748 14.0468 15.6416 13.9319 15.6436C13.8171 15.6457 13.7056 15.6828 13.6125 15.75L12.4914 16.551L11.574 15.6341L12.375 14.5125C12.4413 14.4196 12.4778 14.3087 12.4796 14.1946C12.4814 14.0804 12.4485 13.9685 12.3851 13.8735C11.893 13.1389 11.5512 12.3142 11.3794 11.4469C11.3571 11.3349 11.3012 11.2323 11.2192 11.1529C11.1372 11.0734 11.033 11.0207 10.9204 11.0019L9.5625 10.7736V9.47644Z" fill="#EE0033"/>
<path d="M18 14.625C18.89 14.625 19.76 14.3611 20.5001 13.8666C21.2401 13.3721 21.8169 12.6693 22.1575 11.8471C22.4981 11.0248 22.5872 10.12 22.4135 9.2471C22.2399 8.37418 21.8113 7.57236 21.182 6.94302C20.5526 6.31368 19.7508 5.8851 18.8779 5.71147C18.005 5.53783 17.1002 5.62695 16.2779 5.96754C15.4557 6.30814 14.7529 6.88491 14.2584 7.62494C13.7639 8.36496 13.5 9.23499 13.5 10.125C13.5013 11.3181 13.9759 12.4619 14.8195 13.3055C15.6631 14.1491 16.8069 14.6237 18 14.625ZM18 6.75C18.6675 6.75 19.32 6.94794 19.875 7.31879C20.4301 7.68964 20.8626 8.21674 21.1181 8.83344C21.3735 9.45015 21.4404 10.1287 21.3102 10.7834C21.1799 11.4381 20.8585 12.0395 20.3865 12.5115C19.9145 12.9835 19.3131 13.3049 18.6584 13.4352C18.0037 13.5654 17.3251 13.4985 16.7084 13.2431C16.0917 12.9876 15.5646 12.5551 15.1938 12.0001C14.8229 11.445 14.625 10.7925 14.625 10.125C14.6259 9.23017 14.9818 8.37224 15.6145 7.7395C16.2472 7.10676 17.1052 6.7509 18 6.75Z" fill="#EE0033"/>
<path d="M28.1239 5.06214H29.2489V11.2496C29.2489 11.3988 29.3082 11.5419 29.4137 11.6474C29.5191 11.7529 29.6622 11.8121 29.8114 11.8121H33.1864C33.3356 11.8121 33.4787 11.7529 33.5842 11.6474C33.6896 11.5419 33.7489 11.3988 33.7489 11.2496V5.06214H34.8739C34.9851 5.06211 35.0939 5.02911 35.1863 4.9673C35.2788 4.90549 35.3509 4.81765 35.3935 4.71488C35.436 4.61211 35.4472 4.49903 35.4255 4.38993C35.4038 4.28083 35.3502 4.18062 35.2716 4.10195L31.8966 0.726948C31.7911 0.621496 31.6481 0.562256 31.4989 0.562256C31.3497 0.562256 31.2067 0.621496 31.1012 0.726948L27.7262 4.10195C27.6476 4.18062 27.594 4.28083 27.5723 4.38993C27.5506 4.49903 27.5618 4.61211 27.6043 4.71488C27.6469 4.81765 27.719 4.90549 27.8115 4.9673C27.9039 5.02911 28.0127 5.06211 28.1239 5.06214ZM31.4989 1.92001L33.516 3.93714H33.1864C33.0372 3.93714 32.8941 3.9964 32.7887 4.10189C32.6832 4.20738 32.6239 4.35045 32.6239 4.49964V10.6871H30.3739V4.49964C30.3739 4.35045 30.3146 4.20738 30.2092 4.10189C30.1037 3.9964 29.9606 3.93714 29.8114 3.93714H29.4818L31.4989 1.92001Z" fill="#EE0033"/>
<path fill-rule="evenodd" clip-rule="evenodd" d="M30.9606 0.585555C31.1036 0.442608 31.2975 0.362305 31.4997 0.362305C31.7019 0.362305 31.8958 0.442608 32.0388 0.585555L35.4138 3.96058C35.5204 4.06722 35.593 4.20309 35.6224 4.35098C35.6518 4.49886 35.6367 4.65215 35.579 4.79146C35.5213 4.93077 35.4236 5.04984 35.2983 5.13363C35.1729 5.21742 35.0255 5.26216 34.8747 5.26219H33.9497V11.2497C33.9497 11.4519 33.8694 11.6459 33.7264 11.7889C33.5834 11.9319 33.3894 12.0122 33.1872 12.0122H29.8122C29.61 12.0122 29.416 11.9319 29.273 11.7889C29.13 11.6459 29.0497 11.4519 29.0497 11.2497V5.26219H28.1247C27.9739 5.26216 27.8265 5.21742 27.7011 5.13363C27.5757 5.04984 27.478 4.93077 27.4203 4.79146C27.3626 4.65215 27.3475 4.49886 27.3769 4.35098C27.4064 4.20309 27.4789 4.06724 27.5856 3.9606L30.9606 0.585555ZM31.2434 0.86844L27.8684 4.2434C27.8684 4.24341 27.8684 4.24339 27.8684 4.2434C27.8178 4.29409 27.7832 4.35869 27.7693 4.42899C27.7553 4.4993 27.7625 4.57217 27.7899 4.6384C27.8173 4.70463 27.8638 4.76124 27.9234 4.80107C27.983 4.8409 28.053 4.86216 28.1247 4.86219C28.1247 4.86219 28.1247 4.86219 28.1247 4.86219H29.4497V11.2497C29.4497 11.3458 29.4879 11.438 29.5559 11.506C29.6238 11.574 29.716 11.6122 29.8122 11.6122H33.1872C33.2833 11.6122 33.3755 11.574 33.4435 11.506C33.5115 11.438 33.5497 11.3458 33.5497 11.2497V4.86219H34.8746C34.8747 4.86219 34.8746 4.86219 34.8746 4.86219C34.9463 4.86216 35.0164 4.8409 35.076 4.80107C35.1356 4.76124 35.182 4.70463 35.2095 4.6384C35.2369 4.57217 35.2441 4.4993 35.2301 4.42899C35.2161 4.35869 35.1816 4.29411 35.131 4.24342M31.756 0.868419C31.7559 0.868411 31.756 0.868426 31.756 0.868419L35.131 4.24342L31.756 0.868419ZM31.756 0.868419C31.688 0.800474 31.5958 0.762305 31.4997 0.762305C31.4036 0.762305 31.3114 0.800482 31.2434 0.86844M31.4997 1.63722L33.9997 4.13719H33.1872C33.091 4.13719 32.9988 4.17538 32.9309 4.24336C32.8629 4.31134 32.8247 4.40355 32.8247 4.49969V10.8872H30.1747V4.49969C30.1747 4.40355 30.1365 4.31134 30.0685 4.24336C30.0005 4.17538 29.9083 4.13719 29.8122 4.13719H28.9997L31.4997 1.63722ZM29.9524 3.75019C30.1025 3.77827 30.2419 3.85102 30.3514 3.96052C30.4944 4.10351 30.5747 4.29746 30.5747 4.49969V10.4872H32.4247V4.49969C32.4247 4.29746 32.505 4.10351 32.648 3.96052C32.7575 3.85102 32.8969 3.77827 33.047 3.75019L31.4997 2.2029L29.9524 3.75019Z" fill="#EE0033"/>
<path d="M4.10122 8.60231C4.2067 8.49686 4.34975 8.43762 4.4989 8.43762C4.64806 8.43762 4.79111 8.49686 4.89659 8.60231L8.27159 11.9773C8.35023 12.056 8.40379 12.1562 8.42548 12.2653C8.44718 12.3744 8.43604 12.4875 8.39347 12.5902C8.35091 12.693 8.27883 12.7809 8.18635 12.8427C8.09387 12.9045 7.98514 12.9375 7.8739 12.9375H6.7489V19.125C6.7489 19.2742 6.68964 19.4173 6.58415 19.5227C6.47866 19.6282 6.33559 19.6875 6.1864 19.6875H2.8114C2.66222 19.6875 2.51915 19.6282 2.41366 19.5227C2.30817 19.4173 2.2489 19.2742 2.2489 19.125V12.9375H1.1239C1.01267 12.9375 0.903939 12.9045 0.811458 12.8427C0.718978 12.7809 0.646899 12.693 0.604335 12.5902C0.56177 12.4875 0.550631 12.3744 0.572325 12.2653C0.59402 12.1562 0.647573 12.056 0.726216 11.9773L4.10122 8.60231ZM2.8114 11.8125C2.96059 11.8125 3.10366 11.8718 3.20915 11.9773C3.31464 12.0827 3.3739 12.2258 3.3739 12.375V18.5625H5.6239V12.375C5.6239 12.2258 5.68317 12.0827 5.78866 11.9773C5.89415 11.8718 6.03722 11.8125 6.1864 11.8125H6.51603L4.4989 9.79538L2.48178 11.8125H2.8114Z" fill="#EE0033"/>
</svg>
