<svg width="40" height="40" viewBox="0 0 40 40" fill="none" xmlns="http://www.w3.org/2000/svg">
<path d="M14.9985 40C9.65514 40 4.63347 37.9199 0.855087 34.1415C0.530075 33.8165 0.530075 33.2883 0.855087 32.9633C1.1801 32.6382 1.70836 32.6382 2.03337 32.9633C5.49681 36.4267 10.1019 38.3334 14.9985 38.3334C19.895 38.3334 24.4986 36.4267 27.9617 32.9633C31.4252 29.5001 33.3319 24.8965 33.3319 20C33.3319 15.1035 31.4252 10.4984 27.9617 7.03491C24.4986 3.57178 19.895 1.66656 14.9985 1.66656C10.1019 1.66656 5.49834 3.5733 2.0352 7.03674C1.71019 7.36176 1.18193 7.36176 0.856918 7.03674C0.531906 6.71173 0.531906 6.18347 0.856918 5.85846C4.63499 2.08008 9.65666 0 14.9985 0C20.3418 0 25.3634 2.08008 29.1418 5.85846C32.9202 9.63654 34.9985 14.6582 34.9985 20C34.9985 25.3418 32.9184 30.3635 29.14 34.1415C25.3619 37.9199 20.3403 40 14.9985 40Z" fill="#35C75C"/>
<path d="M7.5 8.33344H0.833435C0.37323 8.33344 0 7.9599 0 7.5V0.833435C0 0.37323 0.37323 0 0.833435 0C1.29333 0 1.66656 0.37323 1.66656 0.833435V6.66656H7.5C7.9599 6.66656 8.33344 7.0401 8.33344 7.5C8.33344 7.9599 7.9599 8.33344 7.5 8.33344Z" fill="#35C75C"/>
<path d="M15.0808 19.675C16.2573 19.675 17.2759 19.253 18.1084 18.4205C18.9407 17.5881 19.3628 16.5696 19.3628 15.393C19.3628 14.2168 18.9408 13.1982 18.1083 12.3655C17.2758 11.5333 16.2571 11.1113 15.0808 11.1113C13.9042 11.1113 12.8857 11.5333 12.0533 12.3657C11.2209 13.1981 10.7988 14.2167 10.7988 15.393C10.7988 16.5696 11.2209 17.5883 12.0533 18.4206C12.886 19.2529 13.9046 19.675 15.0808 19.675ZM12.7901 13.1023C13.4288 12.4636 14.178 12.1531 15.0808 12.1531C15.9834 12.1531 16.7328 12.4636 17.3717 13.1023C18.0104 13.7411 18.321 14.4905 18.321 15.393C18.321 16.2958 18.0104 17.045 17.3717 17.6839C16.7328 18.3227 15.9834 18.6332 15.0808 18.6332C14.1783 18.6332 13.429 18.3226 12.7901 17.6839C12.1512 17.0452 11.8406 16.2958 11.8406 15.393C11.8406 14.4905 12.1512 13.7411 12.7901 13.1023Z" fill="#35C75C"/>
<path d="M22.5735 24.7816C22.5495 24.4352 22.501 24.0573 22.4295 23.6583C22.3573 23.2563 22.2644 22.8762 22.1532 22.5289C22.0382 22.1698 21.8821 21.8153 21.6888 21.4755C21.4884 21.1229 21.253 20.8158 20.9888 20.5631C20.7125 20.2988 20.3742 20.0862 19.983 19.9312C19.5932 19.777 19.1612 19.6989 18.6991 19.6989C18.5177 19.6989 18.3421 19.7733 18.0032 19.994C17.7946 20.13 17.5506 20.2874 17.2782 20.4614C17.0453 20.6098 16.7299 20.7488 16.3402 20.8747C15.96 20.9977 15.574 21.0601 15.1929 21.0601C14.812 21.0601 14.426 20.9977 14.0455 20.8747C13.6563 20.7489 13.3406 20.6099 13.1082 20.4615C12.8384 20.2891 12.5942 20.1318 12.3825 19.9939C12.0438 19.7732 11.8683 19.6987 11.6869 19.6987C11.2246 19.6987 10.7928 19.777 10.4031 19.9313C10.0122 20.0861 9.67378 20.2986 9.39722 20.5633C9.13301 20.8161 8.89754 21.123 8.69735 21.4755C8.50434 21.8153 8.34809 22.1697 8.23307 22.529C8.12199 22.8764 8.02908 23.2563 7.95692 23.6583C7.88531 24.0568 7.83689 24.4348 7.81288 24.782C7.78928 25.1215 7.77734 25.4748 7.77734 25.8318C7.77734 26.7598 8.07235 27.5111 8.65408 28.0652C9.22863 28.6119 9.98872 28.8892 10.9133 28.8892H19.4735C20.3978 28.8892 21.1579 28.6119 21.7326 28.0652C22.3145 27.5115 22.6095 26.76 22.6095 25.8317C22.6093 25.4735 22.5973 25.1202 22.5735 24.7816ZM21.0143 27.3104C20.6346 27.6717 20.1306 27.8473 19.4733 27.8473H10.9133C10.2559 27.8473 9.7519 27.6717 9.3724 27.3105C9.00008 26.9561 8.81915 26.4723 8.81915 25.8318C8.81915 25.4987 8.83013 25.1698 8.85211 24.854C8.87354 24.5443 8.91735 24.2039 8.98232 23.8423C9.04647 23.4852 9.12812 23.1501 9.22524 22.8467C9.31842 22.5557 9.44551 22.2676 9.60311 21.9901C9.75353 21.7256 9.9266 21.4987 10.1176 21.3159C10.2962 21.1449 10.5214 21.0049 10.7867 20.8999C11.032 20.8028 11.3078 20.7496 11.6071 20.7416C11.6436 20.761 11.7086 20.798 11.8138 20.8667C12.028 21.0062 12.2748 21.1655 12.5477 21.3398C12.8553 21.5359 13.2517 21.713 13.7252 21.8659C14.2092 22.0224 14.7029 22.1019 15.193 22.1019C15.683 22.1019 16.1769 22.0224 16.6607 21.866C17.1346 21.7129 17.5308 21.5359 17.8388 21.3395C18.1181 21.161 18.358 21.0064 18.5722 20.8667C18.6774 20.7982 18.7424 20.761 18.7789 20.7416C19.0784 20.7496 19.3541 20.8028 19.5996 20.8999C19.8648 21.0049 20.0899 21.145 20.2686 21.3159C20.4595 21.4986 20.6326 21.7255 20.783 21.9903C20.9408 22.2676 21.068 22.5559 21.161 22.8465C21.2583 23.1503 21.3401 23.4854 21.4041 23.8422C21.4689 24.2045 21.5129 24.5449 21.5343 24.8542V24.8544C21.5564 25.169 21.5675 25.4978 21.5677 25.8318C21.5675 26.4724 21.3866 26.9561 21.0143 27.3104Z" fill="#35C75C"/>
</svg>
