<svg width="16" height="16" viewBox="0 0 16 16" fill="none" xmlns="http://www.w3.org/2000/svg">
<path d="M6.60705 15.0297C6.60705 15.4092 6.29533 15.7168 5.91079 15.7168C5.52626 15.7168 5.21453 15.4092 5.21453 15.0297V3.29523L1.47181 6.91038C1.20307 7.16996 0.773397 7.16996 0.504658 6.91038C0.227512 6.64268 0.227629 6.2024 0.504919 5.93485L5.36088 1.24934C5.82526 0.801265 6.60705 1.12598 6.60705 1.76693V15.0297ZM10.6347 14.6389C10.1716 15.0857 9.39209 14.7619 9.39209 14.1228V0.85513C9.39209 0.475621 9.70382 0.167969 10.0884 0.167969C10.4729 0.167969 10.7846 0.475621 10.7846 0.85513V12.5963L14.5307 8.97785C14.7979 8.71984 15.2247 8.7191 15.4927 8.97618C15.7706 9.24263 15.7712 9.68268 15.4942 9.94995L10.6347 14.6389Z" fill="white"/>
<path fill-rule="evenodd" clip-rule="evenodd" d="M10.0884 0.246733C9.77286 0.246733 9.5171 0.499152 9.5171 0.810527V14.0782C9.5171 14.608 10.1634 14.8765 10.5473 14.5061L15.4068 9.81712C15.6336 9.59834 15.633 9.23813 15.4056 9.02003C15.1862 8.8096 14.8368 8.8102 14.6182 9.0214L10.6596 12.845V0.810527C10.6596 0.499152 10.4039 0.246733 10.0884 0.246733ZM9.26709 0.810527C9.26709 0.362885 9.63479 0 10.0884 0C10.5419 0 10.9096 0.362885 10.9096 0.810527V12.2583L14.4433 8.84507C14.7589 8.54024 15.2632 8.53936 15.5799 8.84309C15.9081 9.15788 15.9089 9.67777 15.5816 9.99354L10.7221 14.6825C10.1799 15.2056 9.26709 14.8265 9.26709 14.0782V0.810527ZM6.48205 1.72232C6.48205 1.19061 5.8335 0.921239 5.44827 1.29295L0.592305 5.97845C0.36515 6.19763 0.365054 6.5583 0.592091 6.7776C0.812241 6.99024 1.16423 6.99024 1.38438 6.7776L5.33953 2.95726V14.985C5.33953 15.2964 5.5953 15.5488 5.91079 15.5488C6.22629 15.5488 6.48205 15.2964 6.48205 14.985V1.72232ZM5.2735 1.11652C5.81702 0.592083 6.73206 0.972133 6.73206 1.72232V14.985C6.73206 15.4327 6.36436 15.7956 5.91079 15.7956C5.45722 15.7956 5.08953 15.4327 5.08953 14.985V3.54398L1.55924 6.95393C1.24191 7.26044 0.734554 7.26044 0.417226 6.95393C0.0899704 6.63783 0.0901094 6.11795 0.417534 5.80202L5.2735 1.11652Z" fill="white"/>
</svg>
