<svg width="18" height="18" viewBox="0 0 18 18" fill="none" xmlns="http://www.w3.org/2000/svg">
<path d="M3.16406 13.7812C4.32904 13.7812 5.27344 12.8369 5.27344 11.6719C5.27344 10.5069 4.32904 9.5625 3.16406 9.5625C1.99909 9.5625 1.05469 10.5069 1.05469 11.6719C1.05469 12.8369 1.99909 13.7812 3.16406 13.7812Z" fill="#223B55"/>
<path d="M4.74609 13.7812H1.58203C0.709664 13.7812 0 14.4909 0 15.3633V18H6.32812V15.3633C6.32812 14.4909 5.61846 13.7812 4.74609 13.7812Z" fill="#223B55"/>
<path d="M14.8359 13.7812C16.0009 13.7812 16.9453 12.8369 16.9453 11.6719C16.9453 10.5069 16.0009 9.5625 14.8359 9.5625C13.671 9.5625 12.7266 10.5069 12.7266 11.6719C12.7266 12.8369 13.671 13.7812 14.8359 13.7812Z" fill="#223B55"/>
<path d="M16.418 13.7812H13.2539C12.3815 13.7812 11.6719 14.4909 11.6719 15.3633V18H18V15.3633C18 14.4909 17.2903 13.7812 16.418 13.7812Z" fill="#223B55"/>
<path d="M9 4.21875C10.165 4.21875 11.1094 3.27435 11.1094 2.10938C11.1094 0.944399 10.165 0 9 0C7.83502 0 6.89062 0.944399 6.89062 2.10938C6.89062 3.27435 7.83502 4.21875 9 4.21875Z" fill="#223B55"/>
<path d="M12.1641 5.80078C12.1641 4.92841 11.4544 4.21875 10.582 4.21875H7.41797C6.5456 4.21875 5.83594 4.92841 5.83594 5.80078V8.50781H12.1641V5.80078Z" fill="#223B55"/>
<path d="M9.52727 9.5625H8.47258V12.1585L7.0332 12.9892L7.56055 13.9028L8.99992 13.0716L10.4393 13.9028L10.9666 12.9892L9.52727 12.1585V9.5625Z" fill="#223B55"/>
</svg>
