<svg width="18" height="18" viewBox="0 0 18 18" fill="none" xmlns="http://www.w3.org/2000/svg">
<g clip-path="url(#clip0)">
<path d="M17.7638 6.10504L9.32625 0.105039C9.13125 -0.0337109 8.8695 -0.0337109 8.6745 0.105039L0.237 6.10504C0.0885 6.21004 0 6.38104 0 6.56329V9.18829C0 9.39904 0.11775 9.59179 0.3045 9.68854C0.492 9.78454 0.71625 9.76879 0.888 9.64729L1.5 9.21154V17.2508C1.5 17.6648 1.836 18.0008 2.25 18.0008H3.75V9.00079H14.25V18.0008H15.75C16.164 18.0008 16.5 17.6648 16.5 17.2508V9.21154L17.1112 9.64654C17.2087 9.71554 17.3228 9.75079 17.4375 9.75079C17.526 9.75079 17.6138 9.72979 17.6955 9.68854C17.8822 9.59179 18 9.39904 18 9.18829V6.56329C18 6.38104 17.9115 6.21004 17.7638 6.10504Z" fill="#223B55"/>
<path d="M4.875 16.125H13.125V18H4.875V16.125Z" fill="#223B55"/>
<path d="M4.875 13.125H13.125V15H4.875V13.125Z" fill="#223B55"/>
<path d="M4.875 10.125H13.125V12H4.875V10.125Z" fill="#223B55"/>
</g>
<defs>
<clipPath id="clip0">
<rect width="18" height="18" fill="white"/>
</clipPath>
</defs>
</svg>
