<svg width="18" height="18" viewBox="0 0 18 18" fill="none" xmlns="http://www.w3.org/2000/svg">
<path fill-rule="evenodd" clip-rule="evenodd" d="M5.30695 5.94141H1.58203C0.709991 5.94141 0 6.6514 0 7.52344V10.9688C0 11.5746 0.348953 12.1193 0.877258 12.3837V17.4727C0.877258 17.7639 1.11333 18 1.4046 18H5.48438C5.77565 18 6.01172 17.7639 6.01172 17.4727V12.3837C6.54002 12.1193 6.88898 11.5746 6.88898 10.9688V7.52344C6.88898 6.6514 6.17899 5.94141 5.30695 5.94141Z" fill="#223B55"/>
<path fill-rule="evenodd" clip-rule="evenodd" d="M10.5117 11.6705H15.1523C15.4436 11.6705 15.6797 11.4345 15.6797 11.1432V6.53772C15.6797 6.24658 15.4436 6.01038 15.1523 6.01038H13.3594V6.75003C13.3594 7.04131 13.1233 7.27737 12.832 7.27737C12.5408 7.27737 12.3047 7.04131 12.3047 6.75003V6.01038H10.5117C10.2204 6.01038 9.98438 6.24658 9.98438 6.53772V11.1432C9.98438 11.4345 10.2204 11.6705 10.5117 11.6705Z" fill="#223B55"/>
<path fill-rule="evenodd" clip-rule="evenodd" d="M6.46915 1.96243H5.96062V1.34514C5.96062 0.603561 5.35706 0 4.61548 0H2.4075C1.66606 0 1.0625 0.603561 1.0625 1.34514V2.69426C1.0625 4.04681 2.15907 5.14339 3.51149 5.14339C4.74731 5.14339 5.78044 4.22438 5.93947 3.01712H6.46915C6.76042 3.01712 6.99649 2.78105 6.99649 2.48978C6.99649 2.19864 6.76042 1.96243 6.46915 1.96243Z" fill="#223B55"/>
<path fill-rule="evenodd" clip-rule="evenodd" d="M11.778 12.3398H10.512V13.0795C10.512 13.3706 10.2759 13.6068 9.98465 13.6068C9.69351 13.6068 9.45731 13.3706 9.45731 13.0795V12.3398H8.19141C7.90013 12.3398 7.66406 12.5759 7.66406 12.8672V17.4727C7.66406 17.7639 7.90013 18 8.19141 18H11.778C12.0685 18 12.3054 17.7631 12.3054 17.4727V12.8672C12.3054 12.5767 12.0685 12.3398 11.778 12.3398Z" fill="#223B55"/>
<path fill-rule="evenodd" clip-rule="evenodd" d="M17.4729 12.3398H16.2077V13.0795C16.2077 13.3706 15.9715 13.6068 15.6804 13.6068C15.3891 13.6068 15.153 13.3706 15.153 13.0795V12.3398H13.8877C13.5972 12.3398 13.3604 12.5767 13.3604 12.8672V17.4727C13.3604 17.7631 13.5972 18 13.8877 18H17.4729C17.7642 18 18.0003 17.7639 18.0003 17.4727V12.8672C18.0003 12.5759 17.7642 12.3398 17.4729 12.3398Z" fill="#223B55"/>
</svg>
