<svg width="36" height="36" viewBox="0 0 36 36" fill="none" xmlns="http://www.w3.org/2000/svg">
<g clip-path="url(#clip0)">
<path d="M31.9838 29.3428C31.7889 29.005 31.3569 28.8892 31.0189 29.0842L28.451 30.5666C28.1131 30.7617 27.9973 31.1938 28.1924 31.5316C28.3233 31.7582 28.5607 31.885 28.8049 31.885C28.9247 31.885 29.0462 31.8544 29.1574 31.7902L31.7253 30.3078C32.0631 30.1127 32.179 29.6807 31.9838 29.3428Z" fill="#EE0033"/>
<path d="M35.8228 20.4642C35.8226 20.4355 35.8209 20.4067 35.8171 20.378C35.8168 20.3761 35.8164 20.3742 35.8161 20.3723C35.8125 20.3465 35.8072 20.321 35.8007 20.2956C35.7989 20.2884 35.7969 20.2815 35.7949 20.2745C35.789 20.2539 35.7819 20.2336 35.7741 20.2134C35.7713 20.2065 35.7689 20.1994 35.7659 20.1926C35.7551 20.1675 35.7432 20.1426 35.7292 20.1183C35.7288 20.1176 35.7284 20.1168 35.7279 20.1161C35.714 20.0919 35.6984 20.0693 35.6821 20.0474C35.6777 20.0415 35.6727 20.0358 35.6681 20.03C35.6546 20.013 35.6405 19.9969 35.6256 19.9814C35.6206 19.9761 35.6155 19.9709 35.6103 19.9658C35.5915 19.9474 35.5719 19.93 35.5514 19.914C35.5499 19.9129 35.5486 19.9115 35.5471 19.9104C35.5241 19.8928 35.5001 19.8769 35.4753 19.8624C35.4735 19.8613 35.4719 19.8599 35.47 19.8589L27.2648 15.1219V5.64723C27.2648 5.64519 27.2645 5.64329 27.2644 5.64126C27.2642 5.61236 27.2624 5.58346 27.2586 5.55456C27.2584 5.55308 27.2581 5.55168 27.2579 5.55027C27.2543 5.52397 27.2488 5.49796 27.2421 5.47194C27.2404 5.46526 27.2384 5.45858 27.2366 5.4519C27.2305 5.43088 27.2233 5.41 27.2152 5.38933C27.2127 5.38286 27.2104 5.37625 27.2077 5.36992C27.1966 5.34425 27.1846 5.31887 27.1702 5.29405C27.156 5.2693 27.1401 5.24624 27.1234 5.22388C27.1192 5.21818 27.1145 5.21277 27.1101 5.20721C27.0963 5.18999 27.082 5.17354 27.067 5.15793C27.062 5.15279 27.057 5.14759 27.052 5.1426C27.0331 5.12411 27.0134 5.10667 26.9929 5.09057C26.9915 5.08944 26.9902 5.08818 26.9888 5.08705C26.9657 5.0694 26.9417 5.05351 26.9168 5.03889C26.915 5.03783 26.9135 5.0365 26.9117 5.03551L18.3537 0.0946322C18.1351 -0.0315089 17.8658 -0.0315792 17.6472 0.0946322L9.08939 5.03544C9.0877 5.03643 9.08629 5.03762 9.08461 5.03861C9.05957 5.0533 9.03539 5.06926 9.01211 5.08712C9.01099 5.08796 9.01 5.08895 9.00888 5.08986C8.988 5.10611 8.96803 5.12389 8.9489 5.1426C8.94391 5.14752 8.93899 5.15258 8.93414 5.15764C8.91909 5.17332 8.90475 5.18978 8.89103 5.207C8.8866 5.21256 8.88189 5.21804 8.8776 5.22381C8.86094 5.2461 8.84512 5.26923 8.83085 5.29391C8.81657 5.31866 8.80448 5.3439 8.79351 5.3695C8.7907 5.37611 8.78831 5.383 8.78563 5.38968C8.77762 5.41007 8.77059 5.4306 8.76461 5.45134C8.76264 5.45816 8.76067 5.46505 8.75885 5.47194C8.75231 5.49761 8.74689 5.52341 8.74331 5.54936C8.7431 5.55112 8.7426 5.55273 8.74239 5.55449C8.7386 5.58325 8.73691 5.61215 8.7367 5.6409C8.7367 5.64294 8.73628 5.64498 8.73628 5.64702V15.1216L0.530915 19.8586C0.529158 19.8596 0.527681 19.861 0.525994 19.8619C0.501033 19.8766 0.476845 19.8925 0.453712 19.9103C0.452587 19.9112 0.451532 19.9122 0.450407 19.9131C0.429524 19.9293 0.409626 19.947 0.390501 19.9659C0.385438 19.9708 0.380587 19.9759 0.375665 19.981C0.360688 19.9966 0.346344 20.013 0.332633 20.0302C0.328133 20.0358 0.323352 20.0414 0.319063 20.0471C0.30261 20.0692 0.287 20.092 0.272868 20.1164C0.272657 20.1168 0.272375 20.1171 0.272164 20.1175C0.258032 20.1421 0.245938 20.1672 0.23511 20.1926C0.232227 20.1994 0.229766 20.2064 0.227024 20.2133C0.219149 20.2335 0.212117 20.2539 0.206141 20.2745C0.204102 20.2814 0.202133 20.2884 0.200305 20.2954C0.193766 20.3209 0.188422 20.3465 0.184836 20.3723C0.184555 20.3742 0.184133 20.376 0.183852 20.3779C0.180055 20.4067 0.178367 20.4355 0.178156 20.4643C0.178156 20.4664 0.177734 20.4683 0.177734 20.4704V30.3528H0.177805C0.177805 30.6052 0.312454 30.8383 0.530986 30.9645L9.08953 35.9053C9.09121 35.9063 9.09311 35.9069 9.0948 35.9079C9.11997 35.9222 9.14578 35.9351 9.17271 35.9463C9.17432 35.9469 9.17594 35.9474 9.17756 35.948C9.20182 35.9579 9.22678 35.9661 9.2523 35.9733C9.25926 35.9752 9.26629 35.9769 9.27325 35.9786C9.29407 35.9837 9.3153 35.9879 9.33682 35.9911C9.34406 35.9923 9.3513 35.9936 9.35861 35.9944C9.38618 35.9977 9.41416 35.9999 9.44257 35.9999C9.47097 35.9999 9.49896 35.9977 9.52652 35.9944C9.53383 35.9936 9.54108 35.9922 9.54832 35.9911C9.56983 35.9879 9.591 35.9838 9.61181 35.9786C9.61884 35.9769 9.62587 35.9752 9.6329 35.9732C9.65829 35.9662 9.68311 35.9579 9.70722 35.9481C9.70898 35.9474 9.71074 35.9469 9.7125 35.9461C9.73936 35.935 9.76516 35.9221 9.79012 35.9079C9.79188 35.9069 9.79378 35.9062 9.79561 35.9052L18.0002 31.1683L26.2048 35.9052C26.2066 35.9063 26.2085 35.9069 26.2103 35.908C26.2354 35.9222 26.2611 35.935 26.2879 35.9461C26.2897 35.9469 26.2916 35.9474 26.2934 35.9482C26.3175 35.9579 26.3422 35.9661 26.3676 35.9732C26.3746 35.9752 26.3817 35.9769 26.3887 35.9786C26.4095 35.9837 26.4307 35.9879 26.4521 35.9911C26.4595 35.9923 26.4667 35.9936 26.474 35.9944C26.5016 35.9977 26.5295 35.9999 26.558 35.9999C26.5864 35.9999 26.6144 35.9977 26.6419 35.9944C26.6492 35.9936 26.6565 35.9922 26.6638 35.9911C26.6852 35.9879 26.7065 35.9838 26.7272 35.9786C26.7342 35.9769 26.7413 35.9752 26.7484 35.9732C26.7737 35.9662 26.7984 35.9579 26.8225 35.9482C26.8243 35.9475 26.8262 35.9469 26.828 35.9461C26.8548 35.935 26.8806 35.9221 26.9056 35.908C26.9074 35.9069 26.9093 35.9063 26.9111 35.9052L35.4697 30.9645C35.6883 30.8383 35.8229 30.6051 35.8229 30.3527V20.4705C35.8232 20.4683 35.8228 20.4664 35.8228 20.4642ZM29.4325 18.0046L22.2874 22.1298L19.4133 20.4704L26.5582 16.3453L29.4325 18.0046ZM25.8518 15.1218L18.7069 19.2468V10.9966L25.8518 6.87096V15.1218ZM18.0004 1.52212L20.8746 3.1815L13.7295 7.30675L10.8554 5.64723L18.0004 1.52212ZM9.44257 16.3454L12.3164 18.0046L5.17121 22.1297L2.2971 20.4704L9.44257 16.3454ZM8.73621 34.0701L1.59053 29.945V21.694L4.63409 23.4511C4.72838 23.5493 4.84685 23.6164 4.97475 23.6477L8.73621 25.8193V34.0701ZM9.44264 24.5956L6.58421 22.9454L13.7292 18.8203L16.5875 20.4705L9.44264 24.5956ZM17.294 29.945L10.1491 34.07V25.8192L17.294 21.694V29.945ZM17.294 19.2469L10.1491 15.1219V6.87089L13.1907 8.6273C13.2855 8.72651 13.405 8.79415 13.5339 8.82544L17.294 10.9966V19.2469H17.294ZM15.1424 8.12266L22.2874 3.9972L25.1454 5.64723L18.0005 9.77297L15.1424 8.12266ZM25.8517 34.07L18.7069 29.945V21.694L21.7504 23.4511C21.8444 23.5491 21.9627 23.616 22.0904 23.6474L25.8518 25.8191V34.07H25.8517ZM26.5582 24.5956L23.7003 22.9456L30.8454 18.8203L33.7037 20.4705L26.5582 24.5956ZM34.4103 29.945L27.2647 34.0701V25.8192L34.4103 21.694V29.945Z" fill="#EE0033"/>
<path d="M33.1414 28.0669C32.2323 28.0669 32.2308 29.4798 33.1414 29.4798C34.0505 29.4798 34.052 28.0669 33.1414 28.0669Z" fill="#EE0033"/>
</g>
<defs>
<clipPath id="clip0">
<rect width="36" height="36" fill="white"/>
</clipPath>
</defs>
</svg>
