<svg width="18" height="18" viewBox="0 0 18 18" fill="none" xmlns="http://www.w3.org/2000/svg">
<g clip-path="url(#clip0)">
<path d="M12.6914 2.95312C12.6914 3.06962 12.597 3.16406 12.4805 3.16406H5.51953C5.40303 3.16406 5.30859 3.06962 5.30859 2.95312V1.26562C5.30859 1.14913 5.40303 1.05469 5.51953 1.05469H7.50806C7.726 0.440826 8.31253 0 9 0C9.68747 0 10.274 0.440826 10.4919 1.05469H12.4805C12.597 1.05469 12.6914 1.14913 12.6914 1.26562V2.95312Z" fill="#223B55"/>
<path d="M13.8125 1C13.696 1 13.6016 1.09444 13.6016 1.21094V4.16406H4.32031C4.20381 4.16406 4.10938 4.06962 4.10938 3.95312V1.21094C4.10938 1.09444 4.01494 1 3.89844 1H2.21094C2.09444 1 2 1.09444 2 1.21094V17.7344C2 17.8509 2.09444 17.9453 2.21094 17.9453H15.5C15.6165 17.9453 15.7109 17.8509 15.7109 17.7344V1.21094C15.7109 1.09444 15.6165 1 15.5 1H13.8125Z" fill="#223B55"/>
<g clip-path="url(#clip1)">
<path d="M8.56336 12.424C8.5086 12.4876 8.41391 12.4925 8.35292 12.4348L6.04754 10.2528C5.98655 10.1951 5.9839 10.098 6.04158 10.037L6.77609 9.26086C6.8338 9.19988 6.93091 9.19723 6.99189 9.25491L8.25123 10.4468C8.31222 10.5045 8.40692 10.4996 8.46167 10.436L10.922 7.57731C10.9767 7.51368 11.0736 7.50641 11.1372 7.5612L11.9471 8.25824C12.0107 8.31299 12.018 8.40989 11.9632 8.47353L8.56336 12.424Z" fill="white"/>
</g>
</g>
<defs>
<clipPath id="clip0">
<rect width="18" height="18" fill="white"/>
</clipPath>
<clipPath id="clip1">
<rect width="6" height="6" fill="white" transform="translate(6 7)"/>
</clipPath>
</defs>
</svg>
