<svg width="18" height="18" viewBox="0 0 18 18" fill="none" xmlns="http://www.w3.org/2000/svg">
<path d="M11.6083 16.4829C11.2601 16.483 10.9214 16.3695 10.6435 16.1597C10.3656 15.9499 10.1637 15.6553 10.0684 15.3204L8.07196 8.01646L6.70856 12.3927C6.61082 12.7025 6.42117 12.9752 6.16478 13.1746C5.90839 13.374 5.5974 13.4907 5.27311 13.5092C4.94882 13.5277 4.62658 13.4471 4.34918 13.2781C4.07178 13.1092 3.85236 12.8598 3.72004 12.5632L2.84965 10.6398L2.20447 11.9241C2.06645 12.2001 1.82443 12.41 1.53164 12.5076C1.23886 12.6052 0.919297 12.5825 0.643257 12.4445C0.367217 12.3064 0.157311 12.0644 0.0597163 11.7716C-0.0378786 11.4789 -0.015168 11.1593 0.122852 10.8832L1.45582 8.21731C1.59202 7.9469 1.80213 7.72065 2.06175 7.56484C2.32136 7.40903 2.61985 7.33005 2.92255 7.33706C3.22525 7.34407 3.51976 7.43679 3.77188 7.60445C4.02401 7.77211 4.22342 8.00783 4.34696 8.28427L5.04692 9.84244L6.59292 4.90011C6.69356 4.57414 6.89646 4.28923 7.1716 4.08753C7.44674 3.88583 7.77951 3.77807 8.12066 3.78018H8.15109C8.49854 3.78655 8.83432 3.90668 9.10697 4.12216C9.37961 4.33764 9.57408 4.63657 9.66057 4.97315L11.5778 11.9545L13.6656 3.20804C13.7488 2.87916 13.9343 2.58523 14.1955 2.36866C14.4566 2.15208 14.7798 2.02406 15.1183 2.00307C15.4569 1.98208 15.7935 2.0692 16.0793 2.25186C16.3652 2.43452 16.5856 2.70328 16.7089 3.01935L17.9262 6.34264C17.9797 6.48571 18.0046 6.63794 17.9993 6.79062C17.994 6.94329 17.9587 7.09344 17.8954 7.23248C17.8321 7.37151 17.7421 7.49672 17.6304 7.60095C17.5187 7.70518 17.3876 7.78639 17.2445 7.83994C17.1014 7.8935 16.9492 7.91835 16.7965 7.91307C16.6438 7.90779 16.4937 7.8725 16.3546 7.8092C16.2156 7.74589 16.0904 7.65583 15.9862 7.54414C15.8819 7.43245 15.8007 7.30132 15.7472 7.15824L15.3333 6.06265L13.1665 15.2595C13.0819 15.6026 12.8861 15.908 12.6098 16.1282C12.3334 16.3484 11.992 16.471 11.6387 16.4768L11.6083 16.4829Z" fill="#223B55"/>
</svg>
