<svg width="33" height="44" viewBox="0 0 33 44" fill="none" xmlns="http://www.w3.org/2000/svg">
<g clip-path="url(#clip0_2401:71053)">
<path d="M16.2363 0.429688C7.56721 0.429688 0.509766 7.46866 0.509766 16.1151C0.509766 26.8512 14.5822 42.6127 15.1845 43.2726C15.7443 43.8987 16.7283 43.8987 17.2882 43.2726C17.8904 42.6043 31.9629 26.8512 31.9629 16.1151C31.9629 7.46866 24.9054 0.429688 16.2363 0.429688Z" fill="#FF0000" stroke="#990000" stroke-width="0.34375" stroke-miterlimit="10"/>
<path d="M16.0332 23.25C21.3489 23.25 25.6582 18.9407 25.6582 13.625C25.6582 8.30926 21.3489 4 16.0332 4C10.7175 4 6.4082 8.30926 6.4082 13.625C6.4082 18.9407 10.7175 23.25 16.0332 23.25Z" fill="white"/>
<path fill-rule="evenodd" clip-rule="evenodd" d="M5.66206 28.5312C5.57744 28.5312 4.89126 28.5662 4.80664 28.5742C4.8811 28.7125 4.96608 28.8587 5.04922 29.0017C5.22129 29.2976 5.38543 29.5799 5.43183 29.7503L5.52787 29.9184C5.58294 29.9245 5.63661 29.93 5.69027 29.93C6.76265 29.93 7.83424 29.9309 8.90532 29.9318C11.0459 29.9335 13.1844 29.9353 15.3229 29.93C15.9223 29.93 16.4229 30.1538 16.8531 30.6573C17.4643 31.3767 18.0817 32.089 18.6991 32.8012C19.0078 33.1573 19.3165 33.5134 19.6244 33.8704C19.6645 33.9158 19.6906 33.9929 19.7028 34.0288C19.7056 34.0371 19.7077 34.0432 19.709 34.0463C20.3589 33.2951 20.9986 32.5572 21.6307 31.828C22.3911 30.9509 23.1405 30.0864 23.8836 29.2266C23.7957 29.2266 23.7039 29.2254 23.6094 29.2241C23.363 29.2208 23.098 29.2173 22.8329 29.2346C22.4028 29.2666 22.0361 29.4904 21.7258 29.8501C21.5242 30.0892 21.3194 30.3249 21.1157 30.5594C21.013 30.6775 20.9107 30.7953 20.8091 30.9131L19.8077 32.072C19.7372 32.0001 19.6808 31.9362 19.6244 31.8722C18.8628 31.001 18.1083 30.1298 17.3538 29.2506C16.9377 28.763 16.4511 28.5312 15.8588 28.5312H5.66206Z" fill="white"/>
<path d="M27.6663 28.5742C26.1432 28.5742 24.5752 28.5885 23.0521 28.5805C22.4668 28.5805 21.9873 28.8043 21.5783 29.2838C21.0564 29.9073 20.5135 30.5147 19.9846 31.1302C19.9282 31.1941 19.9 31.282 19.8717 31.33C18.6448 29.9073 17.4601 28.5485 16.2754 27.1817C17.1075 27.1258 17.9396 27.0858 18.5813 27.9331C18.955 28.4206 19.3711 28.8602 19.8294 29.3877C19.907 29.2678 19.9705 29.14 20.0551 29.0441C20.4006 28.6284 20.7603 28.2288 21.1128 27.8212C21.4795 27.4055 21.9238 27.1737 22.4315 27.1658C24.1592 27.1578 28.3538 27.2422 28.3538 27.2422C28.3538 27.2422 28.3168 27.3563 28.2249 27.543C28.0763 27.845 27.8257 28.3087 27.6663 28.5742Z" fill="white"/>
<g clip-path="url(#clip1_2401:71053)">
<path d="M11.2643 15.5408L9.72559 14.8789L10.6272 14.4413L12.6514 14.7186L12.0438 15.0751C11.8509 15.1687 11.6776 15.2757 11.5255 15.3903L11.2643 15.5408Z" fill="#083577"/>
<path d="M12.4218 18.1382L11.5202 18.5758L11.9523 16.9573L12.2258 16.8481C12.409 16.8 12.5993 16.7309 12.7905 16.6381C12.7909 16.6379 12.7913 16.6377 12.7917 16.6375L13.4562 16.3771L12.4218 18.1382Z" fill="#083577"/>
<path d="M17.5683 18.724L15.9681 19.5006L16.4192 15.2172L19.0875 14.1723L17.5683 18.724Z" fill="#083577"/>
<path d="M18.3719 11.6465C18.5439 11.5309 18.733 11.4201 18.9396 11.3138L18.955 11.3046C18.9598 11.3031 18.9655 11.301 18.9691 11.2986L19.049 11.2574C20.3739 10.6144 21.7419 10.5821 22.0356 11.1873C22.3289 11.7917 21.4577 12.8465 20.1324 13.4897L20.0504 13.5266C20.05 13.5268 20.0493 13.5271 20.0486 13.5274C20.0441 13.5296 20.0403 13.5317 20.036 13.5344L20.0132 13.5435C19.8078 13.6377 19.6036 13.7178 19.3995 13.7837L19.3458 13.8042C19.3171 13.7924 19.2861 13.7872 19.2556 13.7999L16.2607 14.9958C16.2398 15.0038 16.224 15.0174 16.2114 15.0331L13.785 15.9836C13.7617 15.9784 13.7369 15.9792 13.7137 15.9889L12.1472 16.6139C11.6346 16.7446 11.2347 16.674 11.1385 16.4757C11.0422 16.2775 11.2343 15.9186 11.6589 15.5953L13.1145 14.7542C13.136 14.7419 13.1511 14.7231 13.1617 14.7021L15.4611 13.3536C15.4618 13.3533 15.4625 13.3529 15.463 13.3527L18.2562 11.7393C18.2779 11.7269 18.2935 11.7084 18.3044 11.6863L18.3719 11.6465Z" fill="#083577"/>
<path d="M13.3448 10.0203L17.8803 11.6502L15.4042 13.1022L11.7446 10.7969L13.3448 10.0203Z" fill="#083577"/>
<path d="M8.2655 12.486L11.0655 11.1272C11.1266 11.0975 11.1521 11.0239 11.1224 10.9628C11.0928 10.9017 11.0191 10.8761 10.958 10.9058L8.15806 12.2646C8.09701 12.2943 8.07144 12.368 8.10108 12.4291C8.13073 12.4901 8.20441 12.5157 8.2655 12.486Z" fill="#083577"/>
<path d="M8.78454 13.5563L11.5845 12.1975C11.6456 12.1678 11.6711 12.0942 11.6415 12.0331C11.6119 11.972 11.5382 11.9465 11.4771 11.9761L8.6771 13.335C8.61605 13.3646 8.59048 13.4383 8.62013 13.4994C8.64977 13.5605 8.72345 13.586 8.78454 13.5563Z" fill="#083577"/>
<path d="M12.0707 20.3259L14.8706 18.967C14.9317 18.9374 14.9572 18.8636 14.9276 18.8026C14.898 18.7416 14.8243 18.716 14.7632 18.7456L11.9632 20.1045C11.9022 20.1341 11.8767 20.2079 11.9063 20.2689C11.9358 20.3299 12.0096 20.3555 12.0707 20.3259Z" fill="#083577"/>
<path d="M12.5902 21.3981L15.3902 20.0393C15.4513 20.0096 15.4767 19.9358 15.4472 19.8749C15.4176 19.8139 15.3438 19.7883 15.2827 19.8179L12.4828 21.1767C12.4217 21.2064 12.3962 21.2802 12.4258 21.3412C12.4554 21.4021 12.5291 21.4278 12.5902 21.3981Z" fill="#083577"/>
</g>
</g>
<defs>
<clipPath id="clip0_2401:71053">
<rect width="31.9688" height="44" fill="white" transform="translate(0.251953)"/>
</clipPath>
<clipPath id="clip1_2401:71053">
<rect width="13.0778" height="13.0778" fill="white" transform="translate(7.4082 11) rotate(-25.8876)"/>
</clipPath>
</defs>
</svg>
