<svg width="18" height="18" viewBox="0 0 18 18" fill="none" xmlns="http://www.w3.org/2000/svg">
<path d="M9.19565 1C12.6489 1 15.4859 3.71875 15.9652 7.25H18L14.5761 11.4167L11.1522 7.25H13.4217C13.2029 6.23031 12.6658 5.31977 11.8983 4.66705C11.1307 4.01433 10.178 3.658 9.19565 3.65625C7.77717 3.65625 6.525 4.39583 5.73261 5.51041L4.05978 3.47917C4.70007 2.69954 5.48969 2.07492 6.37556 1.6473C7.26142 1.21967 8.22301 0.998963 9.19565 1ZM8.80435 15C5.36087 15 2.51413 12.2812 2.03478 8.74999H0L3.42391 4.58333C4.56848 5.96875 5.70326 7.36458 6.84783 8.74999H4.57826C4.79711 9.76967 5.33418 10.6802 6.10175 11.3329C6.86932 11.9857 7.82204 12.342 8.80435 12.3437C10.2228 12.3437 11.475 11.6042 12.2674 10.4896L13.9402 12.5208C13.3005 13.3012 12.5111 13.9264 11.625 14.3541C10.739 14.7818 9.77715 15.002 8.80435 15Z" fill="#223B55"/>
</svg>
