<svg width="18" height="18" viewBox="0 0 18 18" fill="none" xmlns="http://www.w3.org/2000/svg">
<g clip-path="url(#clip0)">
<path d="M8.87259 8.67065C10.0638 8.67065 11.0953 8.24342 11.938 7.4005C12.7808 6.55771 13.2081 5.52651 13.2081 4.33519C13.2081 3.14427 12.7808 2.11294 11.9379 1.26988C11.095 0.427229 10.0636 0 8.87259 0C7.68126 0 6.65005 0.427229 5.80727 1.27001C4.96448 2.1128 4.53711 3.14414 4.53711 4.33519C4.53711 5.52651 4.96448 6.55785 5.8074 7.40064C6.65033 8.24328 7.68167 8.67065 8.87259 8.67065Z" fill="#223B55"/>
<path d="M15.9811 14.1464C15.9568 13.7957 15.9076 13.4131 15.8353 13.009C15.7622 12.602 15.6681 12.2172 15.5555 11.8655C15.4392 11.502 15.281 11.143 15.0854 10.799C14.8825 10.4419 14.6441 10.131 14.3765 9.87519C14.0968 9.60754 13.7543 9.39235 13.3582 9.23538C12.9636 9.07924 12.5262 9.00014 12.0583 9.00014C11.8745 9.00014 11.6968 9.07553 11.3537 9.29896C11.1424 9.4367 10.8954 9.59601 10.6196 9.7722C10.3838 9.92244 10.0644 10.0632 9.66986 10.1906C9.28493 10.3152 8.89409 10.3784 8.50833 10.3784C8.12257 10.3784 7.73187 10.3152 7.34653 10.1906C6.95239 10.0633 6.63297 9.92257 6.39745 9.77234C6.1243 9.59779 5.87711 9.43849 5.66273 9.29883C5.31996 9.07539 5.14212 9 4.95837 9C4.49036 9 4.0531 9.07924 3.65855 9.23552C3.26277 9.39221 2.92014 9.6074 2.64012 9.87533C2.37274 10.1313 2.1342 10.4421 1.9315 10.799C1.73608 11.143 1.57788 11.5019 1.46143 11.8656C1.34895 12.2173 1.25488 12.602 1.18182 13.009C1.10945 13.4125 1.06029 13.7952 1.03598 14.1468C1.01208 14.4912 1 14.8487 1 15.2097C1 16.1493 1.29869 16.91 1.8877 17.471C2.46942 18.0245 3.23915 18.3054 4.17519 18.3054H12.8423C13.7783 18.3054 14.5478 18.0247 15.1297 17.471C15.7188 16.9104 16.0175 16.1496 16.0175 15.2096C16.0173 14.8469 16.0051 14.4892 15.9811 14.1464Z" fill="#223B55"/>
</g>
<defs>
<clipPath id="clip0">
<rect width="18" height="18" fill="white"/>
</clipPath>
</defs>
</svg>
