<svg width="36" height="36" viewBox="0 0 36 36" fill="none" xmlns="http://www.w3.org/2000/svg">
<path d="M18 0.519043L0 7.71904V35.4807H6.75V17.4807H29.25V35.4807H36V7.71904L18 0.519043ZM33.75 33.2307H31.5V15.2307H4.5V33.2307H2.25V9.24229L18 2.94229L33.75 9.24229V33.2307Z" fill="#EE0033"/>
<path d="M18 26.4807H11.25V35.4807H27V19.7307H18V26.4807ZM18 33.2307H13.5V28.7307H18V33.2307ZM20.25 21.9807H24.75V26.4807H20.25V21.9807ZM20.25 28.7307H24.75V33.2307H20.25V28.7307Z" fill="#EE0033"/>
<path d="M12.375 9.60571H10.125V11.8557H12.375V9.60571Z" fill="#EE0033"/>
<path d="M21.375 9.60571H14.625V11.8557H21.375V9.60571Z" fill="#EE0033"/>
<path d="M25.875 9.60571H23.625V11.8557H25.875V9.60571Z" fill="#EE0033"/>
</svg>
